<svg width="36" height="37" viewBox="0 0 36 37" fill="none" xmlns="http://www.w3.org/2000/svg">
<path d="M7.62147 21.9684C7.18794 20.9568 7.76598 20.3788 8.34401 19.6563C8.77753 19.0782 9.21106 18.5002 9.78909 17.6332C9.9336 18.6447 10.0781 19.3673 10.2226 20.2343C10.5116 22.8355 10.9452 25.2921 11.2342 27.8932C11.2342 28.3268 11.3787 28.6158 11.9567 28.6158C12.9683 28.6158 14.1243 28.7603 15.1359 28.6158C16.581 28.4713 17.0145 27.7487 16.87 26.4482C16.581 23.847 16.292 21.2459 16.0029 18.6447C16.0029 18.3557 16.0029 17.9222 16.292 17.6332C17.0145 16.6216 17.737 15.7546 18.4596 14.5985C18.7486 16.9106 19.0376 19.0782 19.1821 21.1014C19.3266 22.8355 19.6157 24.5696 19.7602 26.3037C19.9047 27.0262 20.1937 27.4597 20.7717 27.8932C21.7833 28.4713 22.9393 28.9048 24.2399 28.6158C24.818 28.4713 25.107 28.1823 25.107 27.4597C24.818 24.2805 24.3844 21.1014 24.0954 17.9222C23.9509 17.1996 24.0954 16.6216 24.5289 16.0436C25.396 14.8875 26.1185 13.5869 26.9856 12.1418C27.1301 13.0089 27.1301 13.5869 27.1301 14.165C27.5636 19.0782 27.9971 23.9915 28.2862 28.9048C28.4307 30.7834 26.4075 32.8065 24.5289 32.8065C23.6619 32.8065 22.9393 32.8065 22.0723 32.662C20.1937 32.5175 19.0376 31.506 18.3151 29.7719C18.3151 29.6273 18.1706 29.4828 18.0261 29.1938C17.737 29.7719 17.3035 30.3499 17.159 30.9279C16.7255 32.2285 15.7139 32.662 14.5579 32.662C13.2573 32.662 11.9567 32.5175 10.8007 32.373C10.0781 32.2285 9.64458 31.9395 9.50008 31.0724C9.21106 30.0609 8.92204 29.0493 8.63303 28.0378C8.34401 28.4713 8.1995 28.9048 7.91049 29.3383C7.04344 30.6389 6.4654 31.0724 4.87581 30.4944C3.86425 30.2054 2.9972 29.6273 2.13015 29.1938C1.55212 29.1938 1.40761 28.9048 1.55212 28.3268C1.98565 27.1707 2.41917 25.8701 2.8527 24.7141C3.14171 23.847 3.86425 23.4135 4.7313 23.1245C5.59835 22.6909 6.60991 22.4019 7.62147 21.9684ZM4.7313 26.3037C4.7313 26.1591 4.7313 26.3037 4.7313 26.3037C4.87581 27.0262 5.30934 27.3152 5.88737 27.4597C6.60991 27.6042 7.47696 27.6042 8.05499 27.1707C8.05499 27.1707 8.1995 27.0262 8.1995 26.8817C8.1995 26.1591 8.05499 25.4366 7.91049 24.7141C6.89893 25.1476 5.88737 25.7256 4.7313 26.3037Z" fill="white"/>
<path d="M34.5001 5.78326C34.5001 6.07228 34.5001 6.21679 34.5001 6.50581C34.5001 13.7312 34.5001 21.1011 34.5001 28.3266C34.5001 28.7601 34.3555 29.1936 34.0665 29.6271C33.344 30.6387 32.6214 31.7948 31.7544 32.9508C31.7544 32.5173 31.7544 32.3728 31.7544 32.2283C31.7544 24.7138 31.7544 17.1994 31.7544 9.68499C31.7544 9.39597 31.8989 8.96245 32.1879 8.67343C32.9105 7.66187 33.633 6.79482 34.5001 5.92777C34.5001 5.78326 34.5001 5.78326 34.5001 5.78326Z" fill="white"/>
<path d="M13.5464 10.552C13.6909 11.2746 13.5464 11.8526 13.8354 12.2861C13.9799 12.7197 14.4134 13.1532 14.7024 13.2977C15.1359 13.2977 15.5695 13.0087 15.8585 12.7197C16.4365 11.8526 16.4365 10.841 16.292 9.82949C16.581 9.68498 17.0146 9.54047 17.4481 9.25146C17.4481 9.54047 17.5926 9.82949 17.5926 9.974C17.8816 10.4075 18.0261 10.9856 18.4596 11.2746C19.1822 11.8526 20.0492 11.7081 20.1937 10.6965C20.3382 9.974 20.1937 9.10695 20.1937 8.2399C20.4828 8.09539 20.9163 7.95088 21.4943 7.66187C22.0723 9.25146 21.7833 11.7081 20.7718 12.7197C20.3382 13.4422 19.6157 13.5867 18.8932 13.1532C18.0261 12.7197 17.4481 12.8642 16.7255 13.7312C16.1475 14.5983 15.2805 15.0318 14.2689 15.0318C13.4018 15.0318 12.8238 14.5983 12.6793 13.8757C12.3903 13.1532 12.3903 12.2861 12.3903 11.5636C12.3903 11.2746 13.1128 10.9856 13.5464 10.552Z" fill="white"/>
<path d="M16.8701 4.04919C17.4481 5.34977 17.5926 6.65034 17.1591 7.95092C17.0146 8.23993 16.7256 8.38444 16.4366 8.67346C16.2921 7.51739 16.003 6.50583 15.714 5.49428C15.714 5.34977 15.8585 5.06075 16.003 4.91624C16.2921 4.77174 16.5811 4.48272 16.8701 4.04919Z" fill="white"/>
</svg>
