<svg width="172" height="133" viewBox="0 0 172 133" fill="none" xmlns="http://www.w3.org/2000/svg">
<mask id="mask0_2998_961" style="mask-type:alpha" maskUnits="userSpaceOnUse" x="7" y="6" width="156" height="117">
<rect x="7" y="6" width="156" height="117" rx="8" fill="#0A77B5"/>
</mask>
<g mask="url(#mask0_2998_961)">
<g filter="url(#filter0_d_2998_961)">
<rect x="7" y="6" width="156" height="117" fill="#0A77B5"/>
</g>
<g opacity="0.5">
<path opacity="0.3" d="M84.232 15.1319L81.88 10.9079L84.184 6.82789L84.952 5.48389L83.512 5.0999L78.952 3.85189L77.752 -0.708107L77.368 -2.19611L76.072 -1.42811L71.992 1.0199L68.056 -1.3321L66.76 -2.1001L66.376 -0.612105L65.176 4.09189L60.76 5.29189L59.32 5.67589L60.088 7.0199L62.44 11.2439L60.136 15.3239L59.368 16.6679L60.808 17.0519L65.368 18.2999L66.568 22.8599L66.952 24.3479L68.248 23.5799L72.328 21.1319L76.264 23.4839L77.56 24.2519L77.944 22.7639L79.144 18.0599L83.56 16.8599L85 16.4759L84.232 15.1319ZM80.536 10.3799H73.864L78.712 5.3879L82.696 6.49189L80.536 10.3799ZM76.456 0.107895L77.608 4.47589L72.904 9.3239V2.2679L76.456 0.107895ZM71.416 2.41189V9.27589L66.568 4.28389L67.624 0.155895L71.416 2.41189ZM61.48 6.63589L65.704 5.48389L70.408 10.3319H63.544L61.48 6.63589ZM63.736 11.8199H70.408L65.56 16.8119L61.576 15.7079L63.736 11.8199ZM67.816 22.0919L66.664 17.7239L71.368 12.8759V19.9319L67.816 22.0919ZM72.856 19.7399V12.8759L77.704 17.8679L76.648 21.9959L72.856 19.7399ZM78.616 16.7159L73.912 11.8679H80.776L82.84 15.5639L78.616 16.7159Z" fill="white" fill-opacity="0.33"/>
<path opacity="0.3" d="M84.232 41.82L81.88 37.596L84.184 33.516L84.952 32.172L83.512 31.788L78.952 30.54L77.752 25.98L77.368 24.492L76.072 25.26L71.992 27.708L68.056 25.356L66.76 24.636L66.376 26.124L65.176 30.828L60.76 32.028L59.32 32.412L60.088 33.756L62.44 37.98L60.136 42.06L59.368 43.404L60.808 43.788L65.368 45.036L66.568 49.596L66.952 51.084L68.248 50.316L72.328 47.868L76.264 50.22L77.56 50.988L77.944 49.5L79.144 44.796L83.56 43.596L85 43.212L84.232 41.82ZM80.536 37.02H73.864L78.712 32.028L82.696 33.132L80.536 37.02ZM76.456 26.796L77.608 31.164L72.904 36.012V28.956L76.456 26.796ZM71.416 29.1V35.964L66.568 30.972L67.624 26.844L71.416 29.1ZM61.48 33.324L65.704 32.172L70.408 37.02H63.544L61.48 33.324ZM63.736 38.508H70.408L65.56 43.5L61.576 42.396L63.736 38.508ZM67.816 48.78L66.664 44.412L71.368 39.564V46.62L67.816 48.78ZM72.856 46.428V39.564L77.704 44.556L76.648 48.684L72.856 46.428ZM78.616 43.404L73.912 38.556H80.776L82.84 42.252L78.616 43.404Z" fill="white" fill-opacity="0.33"/>
<path opacity="0.3" d="M84.232 68.5079L81.88 64.2839L84.184 60.2039L84.952 58.8599L83.512 58.4759L78.952 57.2279L77.752 52.6679L77.368 51.1799L76.072 51.9479L71.992 54.3959L68.056 52.0439L66.76 51.2759L66.376 52.7639L65.176 57.4679L60.76 58.6679L59.32 59.0519L60.088 60.3959L62.44 64.6199L60.136 68.6999L59.368 70.0439L60.808 70.4279L65.368 71.6759L66.568 76.2359L66.952 77.7239L68.248 76.9559L72.328 74.5079L76.264 76.8599L77.56 77.6279L77.944 76.1399L79.144 71.4359L83.56 70.2359L85 69.8519L84.232 68.5079ZM80.536 63.7079H73.864L78.712 58.7159L82.696 59.8199L80.536 63.7079ZM76.456 53.4839L77.608 57.8519L72.904 62.6999V55.6439L76.456 53.4839ZM71.416 55.7879V62.6519L66.568 57.6599L67.624 53.5319L71.416 55.7879ZM61.48 60.0119L65.704 58.8599L70.408 63.7079H63.544L61.48 60.0119ZM63.736 65.1959H70.408L65.56 70.2359L61.576 69.1319L63.736 65.1959ZM67.816 75.4679L66.664 71.0999L71.368 66.2519V73.3079L67.816 75.4679ZM72.856 73.1159V66.2519L77.704 71.2439L76.648 75.3719L72.856 73.1159ZM78.616 70.0919L73.912 65.2439H80.776L82.84 68.9399L78.616 70.0919Z" fill="white" fill-opacity="0.33"/>
<path opacity="0.3" d="M84.232 95.196L81.88 90.972L84.184 86.892L84.952 85.548L83.512 85.164L78.952 83.916L77.752 79.356L77.368 77.868L76.072 78.636L71.992 81.084L68.056 78.732L66.76 77.964L66.376 79.452L65.176 84.156L60.76 85.356L59.32 85.74L60.088 87.084L62.44 91.308L60.136 95.388L59.368 96.732L60.808 97.116L65.368 98.364L66.568 102.924L66.952 104.412L68.248 103.644L72.328 101.196L76.264 103.548L77.56 104.316L77.944 102.828L79.144 98.124L83.56 96.924L85 96.54L84.232 95.196ZM80.536 90.396H73.864L78.712 85.404L82.696 86.508L80.536 90.396ZM76.456 80.172L77.608 84.54L72.904 89.388V82.332L76.456 80.172ZM71.416 82.476V89.34L66.568 84.348L67.624 80.22L71.416 82.476ZM61.48 86.7L65.704 85.548L70.408 90.396H63.544L61.48 86.7ZM63.736 91.884H70.408L65.56 96.876L61.576 95.772L63.736 91.884ZM67.816 102.156L66.664 97.788L71.368 92.94V99.996L67.816 102.156ZM72.856 99.804V92.94L77.704 97.932L76.648 102.06L72.856 99.804ZM78.616 96.78L73.912 91.932H80.776L82.84 95.628L78.616 96.78Z" fill="white" fill-opacity="0.33"/>
<path opacity="0.3" d="M84.232 121.884L81.88 117.66L84.184 113.58L84.952 112.236L83.512 111.852L78.952 110.604L77.752 106.044L77.368 104.556L76.072 105.324L71.992 107.772L68.056 105.42L66.76 104.652L66.376 106.14L65.176 110.844L60.76 112.044L59.32 112.428L60.088 113.772L62.44 117.996L60.136 122.076L59.368 123.42L60.808 123.804L65.368 125.052L66.568 129.612L66.952 131.1L68.248 130.332L72.328 127.884L76.264 130.236L77.56 131.004L77.944 129.516L79.144 124.812L83.56 123.612L85 123.228L84.232 121.884ZM80.536 117.084H73.864L78.712 112.092L82.696 113.196L80.536 117.084ZM76.456 106.86L77.608 111.228L72.904 116.076V109.02L76.456 106.86ZM71.416 109.164V116.028L66.568 111.036L67.624 106.908L71.416 109.164ZM61.48 113.388L65.704 112.236L70.408 117.084H63.544L61.48 113.388ZM63.736 118.572H70.408L65.56 123.564L61.576 122.46L63.736 118.572ZM67.816 128.844L66.664 124.476L71.368 119.628V126.684L67.816 128.844ZM72.856 126.492V119.628L77.704 124.62L76.648 128.748L72.856 126.492ZM78.616 123.468L73.912 118.62H80.776L82.84 122.316L78.616 123.468Z" fill="white" fill-opacity="0.33"/>
<path opacity="0.3" d="M58.552 15.1319L56.2 10.9079L58.504 6.82789L59.272 5.48389L57.832 5.0999L53.272 3.85189L52.072 -0.708107L51.688 -2.19611L50.392 -1.42811L46.312 1.0199L42.376 -1.3321L41.08 -2.1001L40.696 -0.612105L39.496 4.09189L35.08 5.29189L33.64 5.67589L34.408 7.0199L36.76 11.2439L34.456 15.3239L33.688 16.6679L35.128 17.0519L39.688 18.2999L40.888 22.8599L41.272 24.3479L42.568 23.5799L46.648 21.1319L50.584 23.4839L51.88 24.2519L52.264 22.7639L53.464 18.0599L57.88 16.8599L59.32 16.4759L58.552 15.1319ZM54.856 10.3799H48.184L53.032 5.3879L57.016 6.49189L54.856 10.3799ZM50.728 0.107895L51.88 4.47589L47.176 9.3239V2.2679L50.728 0.107895ZM45.688 2.41189V9.27589L40.84 4.28389L41.896 0.155895L45.688 2.41189ZM35.752 6.63589L39.976 5.48389L44.68 10.3319H37.816L35.752 6.63589ZM38.008 11.8199H44.68L39.832 16.8119L35.848 15.7079L38.008 11.8199ZM42.136 22.0919L40.984 17.7239L45.688 12.8759V19.9319L42.136 22.0919ZM47.128 19.7399V12.8759L51.976 17.8679L50.92 21.9959L47.128 19.7399ZM52.888 16.7159L48.184 11.8679H55.048L57.112 15.5639L52.888 16.7159Z" fill="white" fill-opacity="0.33"/>
<path opacity="0.3" d="M58.552 41.82L56.2 37.596L58.504 33.516L59.272 32.172L57.832 31.788L53.272 30.54L52.072 25.98L51.688 24.492L50.392 25.26L46.312 27.708L42.376 25.356L41.08 24.588L40.696 26.076L39.496 30.78L35.08 31.98L33.64 32.364L34.408 33.708L36.76 37.932L34.456 42.012L33.64 43.356L35.08 43.74L39.64 44.988L40.84 49.548L41.224 51.036L42.52 50.268L46.6 47.82L50.536 50.172L51.832 50.94L52.216 49.452L53.416 44.748L57.832 43.548L59.272 43.164L58.552 41.82ZM54.856 37.068H48.184L53.032 32.076L57.016 33.18L54.856 37.068ZM50.728 26.796L51.88 31.164L47.176 36.012V28.956L50.728 26.796ZM45.688 29.1V35.964L40.84 30.972L41.896 26.844L45.688 29.1ZM35.752 33.324L39.976 32.172L44.68 37.02H37.816L35.752 33.324ZM38.008 38.508H44.68L39.832 43.5L35.848 42.396L38.008 38.508ZM42.136 48.78L40.984 44.412L45.688 39.564V46.62L42.136 48.78ZM47.128 46.428V39.564L51.976 44.556L50.92 48.684L47.128 46.428ZM52.888 43.404L48.184 38.556H55.048L57.112 42.252L52.888 43.404Z" fill="white" fill-opacity="0.33"/>
<path opacity="0.3" d="M58.552 68.5079L56.2 64.2839L58.504 60.2039L59.272 58.8599L57.832 58.4759L53.272 57.2279L52.072 52.6679L51.688 51.1799L50.392 51.9479L46.312 54.3959L42.376 52.0439L41.08 51.2759L40.696 52.7639L39.496 57.4679L35.08 58.6679L33.64 59.0519L34.408 60.3959L36.76 64.6199L34.456 68.6999L33.688 70.0439L35.128 70.4279L39.688 71.6759L40.888 76.2359L41.272 77.7239L42.568 76.9559L46.648 74.5079L50.584 76.8599L51.88 77.6279L52.264 76.1399L53.464 71.4359L57.88 70.2359L59.32 69.8519L58.552 68.5079ZM54.856 63.7559H48.184L53.032 58.7639L57.016 59.8679L54.856 63.7559ZM50.728 53.4839L51.88 57.8519L47.176 62.6999V55.6439L50.728 53.4839ZM45.688 55.7879V62.6519L40.84 57.6599L41.896 53.5319L45.688 55.7879ZM35.752 60.0119L39.976 58.8599L44.68 63.7079H37.816L35.752 60.0119ZM38.008 65.1959H44.68L39.832 70.2359L35.848 69.1319L38.008 65.1959ZM42.136 75.4679L40.984 71.0999L45.688 66.2519V73.3079L42.136 75.4679ZM47.128 73.1159V66.2519L51.976 71.2439L50.92 75.3719L47.128 73.1159ZM52.888 70.0919L48.184 65.2439H55.048L57.112 68.9399L52.888 70.0919Z" fill="white" fill-opacity="0.33"/>
<path opacity="0.3" d="M58.552 95.196L56.2 90.972L58.504 86.892L59.272 85.548L57.832 85.164L53.272 83.916L52.072 79.356L51.688 77.868L50.392 78.636L46.312 81.084L42.376 78.732L41.08 77.964L40.696 79.452L39.4 84.156L34.984 85.356L33.544 85.74L34.312 87.084L36.664 91.308L34.36 95.388L33.592 96.732L35.032 97.116L39.592 98.364L40.792 102.924L41.176 104.412L42.472 103.644L46.552 101.196L50.488 103.548L51.784 104.316L52.168 102.828L53.368 98.124L57.784 96.924L59.224 96.54L58.552 95.196ZM54.856 90.444H48.184L53.032 85.452L57.016 86.556L54.856 90.444ZM50.728 80.172L51.88 84.54L47.176 89.388V82.332L50.728 80.172ZM45.688 82.476V89.34L40.84 84.348L41.896 80.22L45.688 82.476ZM35.752 86.7L39.976 85.548L44.68 90.396H37.816L35.752 86.7ZM38.008 91.884H44.68L39.832 96.876L35.848 95.772L38.008 91.884ZM42.136 102.156L40.984 97.788L45.688 92.94V99.996L42.136 102.156ZM47.128 99.804V92.94L51.976 97.932L50.92 102.06L47.128 99.804ZM52.888 96.78L48.184 91.932H55.048L57.112 95.628L52.888 96.78Z" fill="white" fill-opacity="0.33"/>
<path opacity="0.3" d="M58.552 121.884L56.2 117.66L58.504 113.58L59.272 112.236L57.832 111.852L53.272 110.604L52.072 106.044L51.688 104.556L50.392 105.324L46.312 107.772L42.376 105.42L41.08 104.652L40.696 106.14L39.496 110.844L35.08 112.044L33.64 112.428L34.408 113.772L36.76 117.996L34.456 122.076L33.688 123.42L35.128 123.804L39.688 125.052L40.888 129.612L41.272 131.1L42.568 130.332L46.648 127.884L50.584 130.236L51.88 131.004L52.264 129.516L53.464 124.812L57.88 123.612L59.32 123.228L58.552 121.884ZM54.856 117.084H48.184L53.032 112.092L57.016 113.196L54.856 117.084ZM50.728 106.86L51.88 111.228L47.176 116.076V109.02L50.728 106.86ZM45.688 109.164V116.028L40.84 111.036L41.896 106.908L45.688 109.164ZM35.752 113.388L39.976 112.236L44.68 117.084H37.816L35.752 113.388ZM38.008 118.572H44.68L39.832 123.564L35.848 122.46L38.008 118.572ZM42.136 128.844L40.984 124.476L45.688 119.628V126.684L42.136 128.844ZM47.128 126.492V119.628L51.976 124.62L50.92 128.748L47.128 126.492ZM52.888 123.468L48.184 118.62H55.048L57.112 122.316L52.888 123.468Z" fill="white" fill-opacity="0.33"/>
<path opacity="0.3" d="M32.824 15.1319L30.472 10.9079L32.776 6.82789L33.544 5.48389L32.104 5.0999L27.544 3.85189L26.344 -0.708107L25.96 -2.19611L24.664 -1.42811L20.584 1.0199L16.648 -1.3321L15.352 -2.1001L14.968 -0.612105L13.768 4.09189L9.35202 5.29189L7.91202 5.67589L8.68002 7.0199L11.032 11.2439L8.72802 15.3239L7.96002 16.6679L9.40002 17.0519L13.96 18.2999L15.16 22.8599L15.544 24.3479L16.84 23.5799L20.92 21.1319L24.856 23.4839L26.152 24.2519L26.536 22.7639L27.736 18.0599L32.152 16.8599L33.592 16.4759L32.824 15.1319ZM29.128 10.3799H22.456L27.304 5.3879L31.288 6.49189L29.128 10.3799ZM25 0.107895L26.152 4.47589L21.448 9.3239V2.2679L25 0.107895ZM20.008 2.41189V9.27589L15.16 4.28389L16.216 0.155895L20.008 2.41189ZM10.024 6.6839L14.248 5.53189L18.952 10.3799H12.088L10.024 6.6839ZM12.28 11.8199H18.952L14.104 16.8119L10.12 15.7079L12.28 11.8199ZM16.408 22.0919L15.256 17.7239L19.96 12.8759V19.9319L16.408 22.0919ZM21.448 19.7399V12.8759L26.296 17.8679L25.24 21.9959L21.448 19.7399ZM27.16 16.7159L22.456 11.8679H29.32L31.384 15.5639L27.16 16.7159Z" fill="white" fill-opacity="0.33"/>
<path opacity="0.3" d="M32.824 41.82L30.472 37.596L32.776 33.516L33.544 32.172L32.104 31.788L27.544 30.54L26.344 25.98L25.96 24.492L24.664 25.26L20.584 27.708L16.648 25.356L15.352 24.588L14.968 26.076L13.768 30.78L9.35202 31.98L7.91202 32.364L8.68002 33.708L11.032 37.932L8.72802 42.012L7.96002 43.356L9.40002 43.74L13.96 44.988L15.16 49.548L15.544 51.036L16.84 50.268L20.92 47.82L24.856 50.172L26.152 50.94L26.536 49.452L27.736 44.748L32.152 43.548L33.592 43.164L32.824 41.82ZM29.128 37.068H22.456L27.304 32.076L31.288 33.18L29.128 37.068ZM25 26.796L26.152 31.164L21.448 36.012V28.956L25 26.796ZM20.008 29.1V35.964L15.16 30.972L16.216 26.844L20.008 29.1ZM10.024 33.372L14.248 32.22L18.952 37.068H12.088L10.024 33.372ZM12.28 38.508H18.952L14.104 43.5L10.12 42.396L12.28 38.508ZM16.408 48.78L15.256 44.412L19.96 39.564V46.62L16.408 48.78ZM21.448 46.428V39.564L26.296 44.556L25.24 48.684L21.448 46.428ZM27.16 43.404L22.456 38.556H29.32L31.384 42.252L27.16 43.404Z" fill="white" fill-opacity="0.33"/>
<path opacity="0.3" d="M32.824 68.5079L30.472 64.2839L32.776 60.2039L33.544 58.8599L32.104 58.4759L27.544 57.2279L26.344 52.6679L25.96 51.1799L24.664 51.9479L20.584 54.3959L16.648 52.0439L15.352 51.2759L14.968 52.7639L13.768 57.4679L9.35202 58.6679L7.91202 59.0519L8.68002 60.3959L11.032 64.6199L8.72802 68.6999L7.96002 70.0439L9.40002 70.4279L13.96 71.6759L15.16 76.2359L15.544 77.7239L16.84 76.9559L20.92 74.5079L24.856 76.8599L26.152 77.6279L26.536 76.1399L27.736 71.4359L32.152 70.2359L33.592 69.8519L32.824 68.5079ZM29.128 63.7559H22.456L27.304 58.7639L31.288 59.8679L29.128 63.7559ZM25 53.4839L26.152 57.8519L21.448 62.6999V55.6439L25 53.4839ZM20.008 55.7879V62.6519L15.16 57.6599L16.216 53.5319L20.008 55.7879ZM10.024 60.0119L14.248 58.8599L18.952 63.7079H12.088L10.024 60.0119ZM12.28 65.1959H18.952L14.104 70.2359L10.12 69.1319L12.28 65.1959ZM16.408 75.4679L15.256 71.0999L19.96 66.2519V73.3079L16.408 75.4679ZM21.448 73.1159V66.2519L26.296 71.2439L25.24 75.3719L21.448 73.1159ZM27.16 70.0919L22.456 65.2439H29.32L31.384 68.9399L27.16 70.0919Z" fill="white" fill-opacity="0.33"/>
<path opacity="0.3" d="M32.824 95.196L30.472 90.972L32.776 86.892L33.544 85.548L32.104 85.164L27.544 83.916L26.344 79.356L25.96 77.868L24.664 78.636L20.584 81.084L16.648 78.732L15.352 77.964L14.968 79.452L13.768 84.156L9.35202 85.356L7.91202 85.74L8.68002 87.084L11.032 91.308L8.72802 95.388L7.96002 96.732L9.40002 97.116L13.96 98.364L15.16 102.924L15.544 104.412L16.84 103.644L20.92 101.196L24.856 103.548L26.152 104.316L26.536 102.828L27.736 98.124L32.152 96.924L33.592 96.54L32.824 95.196ZM29.128 90.444H22.456L27.304 85.452L31.288 86.556L29.128 90.444ZM25 80.172L26.152 84.54L21.448 89.388V82.332L25 80.172ZM20.008 82.476V89.34L15.16 84.348L16.216 80.22L20.008 82.476ZM10.024 86.7L14.248 85.548L18.952 90.396H12.088L10.024 86.7ZM12.28 91.884H18.952L14.104 96.876L10.12 95.772L12.28 91.884ZM16.408 102.156L15.256 97.788L19.96 92.94V99.996L16.408 102.156ZM21.448 99.804V92.94L26.296 97.932L25.24 102.06L21.448 99.804ZM27.16 96.78L22.456 91.932H29.32L31.384 95.628L27.16 96.78Z" fill="white" fill-opacity="0.33"/>
<path opacity="0.3" d="M32.824 121.884L30.472 117.66L32.776 113.58L33.544 112.236L32.104 111.852L27.544 110.604L26.344 106.044L25.96 104.556L24.664 105.324L20.584 107.772L16.648 105.42L15.352 104.652L14.968 106.14L13.768 110.844L9.35202 112.044L7.91202 112.428L8.68002 113.772L11.032 117.996L8.68002 122.076L7.91202 123.42L9.35202 123.804L13.912 125.052L15.112 129.612L15.496 131.1L16.792 130.332L20.872 127.884L24.808 130.236L26.104 131.004L26.488 129.516L27.688 124.812L32.104 123.612L33.544 123.228L32.824 121.884ZM29.128 117.132H22.456L27.304 112.14L31.288 113.244L29.128 117.132ZM25 106.86L26.152 111.228L21.448 116.076V109.02L25 106.86ZM20.008 109.164V116.028L15.16 111.036L16.216 106.908L20.008 109.164ZM10.024 113.388L14.248 112.236L18.952 117.084H12.088L10.024 113.388ZM12.28 118.572H18.952L14.104 123.564L10.12 122.46L12.28 118.572ZM16.408 128.844L15.256 124.476L19.96 119.628V126.684L16.408 128.844ZM21.448 126.492V119.628L26.296 124.62L25.24 128.748L21.448 126.492ZM27.16 123.468L22.456 118.62H29.32L31.384 122.316L27.16 123.468Z" fill="white" fill-opacity="0.33"/>
<path opacity="0.3" d="M7.09602 15.1319L4.74402 10.9079L7.04802 6.82789L7.81602 5.48389L6.37602 5.0999L1.81602 3.85189L0.616018 -0.708107L0.232018 -2.19611L-1.06398 -1.42811L-5.14398 1.0199L-9.07998 -1.3321L-10.376 -2.1001L-10.76 -0.612105L-11.96 4.09189L-16.376 5.29189L-17.816 5.67589L-17.048 7.0199L-14.696 11.2439L-17 15.3239L-17.768 16.6679L-16.328 17.0519L-11.768 18.2999L-10.568 22.8599L-10.184 24.3479L-8.88798 23.5799L-4.80798 21.1319L-0.871977 23.4839L0.424023 24.2519L0.808023 22.7639L2.00802 18.0599L6.42402 16.8599L7.86402 16.4759L7.09602 15.1319ZM3.40002 10.3799H-3.27198L1.57602 5.3879L5.56002 6.49189L3.40002 10.3799ZM-0.679979 0.107895L0.472017 4.47589L-4.23198 9.3239V2.2679L-0.679979 0.107895ZM-5.71998 2.41189V9.27589L-10.568 4.28389L-9.51198 0.155895L-5.71998 2.41189ZM-15.656 6.6839L-11.432 5.53189L-6.72798 10.3799H-13.592L-15.656 6.6839ZM-13.4 11.8199H-6.72798L-11.576 16.8119L-15.56 15.7079L-13.4 11.8199ZM-9.31998 22.0919L-10.472 17.7239L-5.76798 12.8759V19.9319L-9.31998 22.0919ZM-4.27998 19.7399V12.8759L0.568024 17.8679L-0.487982 21.9959L-4.27998 19.7399ZM1.43202 16.7159L-3.27198 11.8679H3.59202L5.65602 15.5639L1.43202 16.7159Z" fill="white" fill-opacity="0.33"/>
<path opacity="0.3" d="M7.09602 41.82L4.74402 37.596L7.04802 33.516L7.81602 32.172L6.37602 31.788L1.81602 30.54L0.616018 25.98L0.232018 24.492L-1.06398 25.26L-5.14398 27.708L-9.07998 25.356L-10.376 24.588L-10.76 26.076L-11.96 30.78L-16.376 31.98L-17.816 32.364L-17.048 33.708L-14.696 37.932L-17 42.012L-17.768 43.356L-16.328 43.74L-11.768 44.988L-10.568 49.548L-10.184 51.036L-8.88798 50.268L-4.80798 47.82L-0.871977 50.172L0.424023 50.94L0.808023 49.452L2.00802 44.748L6.42402 43.548L7.86402 43.164L7.09602 41.82ZM3.40002 37.068H-3.27198L1.57602 32.076L5.56002 33.18L3.40002 37.068ZM-0.679979 26.796L0.472017 31.164L-4.23198 36.012V28.956L-0.679979 26.796ZM-5.71998 29.1V35.964L-10.568 30.972L-9.51198 26.844L-5.71998 29.1ZM-15.656 33.372L-11.432 32.22L-6.72798 37.068H-13.592L-15.656 33.372ZM-13.4 38.508H-6.72798L-11.576 43.5L-15.56 42.396L-13.4 38.508ZM-9.31998 48.78L-10.472 44.412L-5.76798 39.564V46.62L-9.31998 48.78ZM-4.27998 46.428V39.564L0.568024 44.556L-0.487982 48.684L-4.27998 46.428ZM1.43202 43.404L-3.27198 38.556H3.59202L5.65602 42.252L1.43202 43.404Z" fill="white" fill-opacity="0.33"/>
<path opacity="0.3" d="M7.09602 68.5079L4.74402 64.2839L7.04802 60.2039L7.81602 58.8599L6.37602 58.4759L1.81602 57.2279L0.616018 52.6679L0.232018 51.1799L-1.06398 51.9479L-5.14398 54.3959L-9.07998 52.0439L-10.376 51.2759L-10.76 52.7639L-11.96 57.4679L-16.376 58.6679L-17.816 59.0519L-17.048 60.3959L-14.696 64.6199L-17 68.6999L-17.768 70.0439L-16.328 70.4279L-11.768 71.6759L-10.568 76.2359L-10.184 77.7239L-8.88798 76.9559L-4.80798 74.5079L-0.871977 76.8599L0.424023 77.6279L0.808023 76.1399L2.00802 71.4359L6.42402 70.2359L7.86402 69.8519L7.09602 68.5079ZM3.40002 63.7559H-3.27198L1.57602 58.7639L5.56002 59.8679L3.40002 63.7559ZM-0.679979 53.4839L0.472017 57.8519L-4.23198 62.6999V55.6439L-0.679979 53.4839ZM-5.71998 55.7879V62.6519L-10.568 57.6599L-9.51198 53.5319L-5.71998 55.7879ZM-15.656 60.0599L-11.432 58.9079L-6.72798 63.7559H-13.592L-15.656 60.0599ZM-13.4 65.1959H-6.72798L-11.576 70.2359L-15.56 69.1319L-13.4 65.1959ZM-9.31998 75.4679L-10.472 71.0999L-5.76798 66.2519V73.3079L-9.31998 75.4679ZM-4.27998 73.1159V66.2519L0.568024 71.2439L-0.487982 75.3719L-4.27998 73.1159ZM1.43202 70.0919L-3.27198 65.2439H3.59202L5.65602 68.9399L1.43202 70.0919Z" fill="white" fill-opacity="0.33"/>
<path opacity="0.3" d="M7.09602 95.196L4.74402 90.972L7.04802 86.892L7.81602 85.548L6.37602 85.164L1.81602 83.916L0.616018 79.356L0.232018 77.868L-1.06398 78.636L-5.14398 81.084L-9.07998 78.732L-10.376 77.964L-10.76 79.452L-11.96 84.156L-16.376 85.356L-17.816 85.74L-17.048 87.084L-14.696 91.308L-17 95.388L-17.768 96.732L-16.328 97.116L-11.768 98.364L-10.568 102.924L-10.184 104.412L-8.88798 103.644L-4.80798 101.196L-0.871977 103.548L0.424023 104.316L0.808023 102.828L2.00802 98.124L6.42402 96.924L7.86402 96.54L7.09602 95.196ZM3.40002 90.444H-3.27198L1.57602 85.452L5.56002 86.556L3.40002 90.444ZM-0.679979 80.172L0.472017 84.54L-4.23198 89.388V82.332L-0.679979 80.172ZM-5.71998 82.476V89.34L-10.568 84.348L-9.51198 80.22L-5.71998 82.476ZM-15.656 86.748L-11.432 85.596L-6.72798 90.444H-13.592L-15.656 86.748ZM-13.4 91.884H-6.72798L-11.576 96.876L-15.56 95.772L-13.4 91.884ZM-9.31998 102.156L-10.472 97.788L-5.76798 92.94V99.996L-9.31998 102.156ZM-4.27998 99.804V92.94L0.568024 97.932L-0.487982 102.06L-4.27998 99.804ZM1.43202 96.78L-3.27198 91.932H3.59202L5.65602 95.628L1.43202 96.78Z" fill="white" fill-opacity="0.33"/>
<path opacity="0.3" d="M7.09602 121.884L4.74402 117.66L7.04802 113.58L7.81602 112.236L6.37602 111.852L1.81602 110.604L0.616018 106.044L0.232018 104.556L-1.06398 105.324L-5.14398 107.772L-9.07998 105.42L-10.376 104.652L-10.76 106.14L-11.96 110.844L-16.376 112.044L-17.816 112.428L-17.048 113.772L-14.696 117.996L-17 122.076L-17.768 123.42L-16.328 123.804L-11.768 125.052L-10.568 129.612L-10.184 131.1L-8.88798 130.332L-4.80798 127.884L-0.871977 130.236L0.424023 131.004L0.808023 129.516L2.00802 124.812L6.42402 123.612L7.86402 123.228L7.09602 121.884ZM3.40002 117.132H-3.27198L1.57602 112.14L5.56002 113.244L3.40002 117.132ZM-0.679979 106.86L0.472017 111.228L-4.23198 116.076V109.02L-0.679979 106.86ZM-5.71998 109.164V116.028L-10.568 111.036L-9.51198 106.908L-5.71998 109.164ZM-15.656 113.436L-11.432 112.284L-6.72798 117.132H-13.592L-15.656 113.436ZM-13.4 118.572H-6.72798L-11.576 123.564L-15.56 122.46L-13.4 118.572ZM-9.31998 128.844L-10.472 124.476L-5.76798 119.628V126.684L-9.31998 128.844ZM-4.27998 126.492V119.628L0.568024 124.62L-0.487982 128.748L-4.27998 126.492ZM1.43202 123.468L-3.27198 118.62H3.59202L5.65602 122.316L1.43202 123.468Z" fill="white" fill-opacity="0.33"/>
<path opacity="0.3" d="M187.096 15.1319L184.744 10.9079L187.048 6.82789L187.816 5.48389L186.376 5.0999L181.816 3.85189L180.616 -0.708107L180.232 -2.19611L178.936 -1.42811L174.856 1.0199L170.92 -1.3321L169.624 -2.1001L169.24 -0.612105L168.04 4.09189L163.624 5.29189L162.184 5.67589L162.952 7.0199L165.304 11.2439L163 15.3239L162.232 16.6679L163.672 17.0519L168.232 18.2999L169.432 22.8599L169.816 24.3479L171.112 23.5799L175.192 21.1319L179.128 23.4839L180.424 24.2519L180.808 22.7639L182.008 18.0599L186.424 16.8599L187.864 16.4759L187.096 15.1319ZM183.4 10.3799H176.728L181.576 5.3879L185.56 6.49189L183.4 10.3799ZM179.32 0.107895L180.472 4.47589L175.768 9.3239V2.2679L179.32 0.107895ZM174.28 2.4599V9.3239L169.432 4.33189L170.488 0.203894L174.28 2.4599ZM164.344 6.6839L168.568 5.53189L173.272 10.3799H166.408L164.344 6.6839ZM166.6 11.8199H173.272L168.424 16.8119L164.44 15.7079L166.6 11.8199ZM170.68 22.0919L169.528 17.7239L174.232 12.8759V19.9319L170.68 22.0919ZM175.72 19.7879V12.9239L180.568 17.9159L179.512 22.0439L175.72 19.7879ZM181.432 16.7159L176.728 11.8679H183.592L185.656 15.5639L181.432 16.7159Z" fill="white" fill-opacity="0.33"/>
<path opacity="0.3" d="M187.096 41.82L184.744 37.596L187.048 33.516L187.816 32.172L186.376 31.788L181.816 30.54L180.616 25.98L180.232 24.492L178.936 25.26L174.856 27.708L170.92 25.356L169.624 24.588L169.24 26.076L168.04 30.78L163.624 31.98L162.184 32.364L162.952 33.708L165.304 37.932L163 42.012L162.232 43.356L163.672 43.74L168.232 44.988L169.432 49.548L169.816 51.036L171.112 50.268L175.192 47.82L179.128 50.172L180.424 50.94L180.808 49.452L182.008 44.748L186.424 43.548L187.864 43.164L187.096 41.82ZM183.4 37.068H176.728L181.576 32.076L185.56 33.18L183.4 37.068ZM179.32 26.796L180.472 31.164L175.768 36.012V28.956L179.32 26.796ZM174.28 29.148V36.012L169.432 31.02L170.488 26.892L174.28 29.148ZM164.344 33.372L168.568 32.22L173.272 37.068H166.408L164.344 33.372ZM166.6 38.508H173.272L168.424 43.5L164.44 42.396L166.6 38.508ZM170.68 48.78L169.528 44.412L174.232 39.564V46.62L170.68 48.78ZM175.72 46.476V39.612L180.568 44.604L179.512 48.732L175.72 46.476ZM181.432 43.404L176.728 38.556H183.592L185.656 42.252L181.432 43.404Z" fill="white" fill-opacity="0.33"/>
<path opacity="0.3" d="M187.096 68.5079L184.744 64.2839L187.048 60.2039L187.816 58.8599L186.376 58.4759L181.816 57.2279L180.616 52.6679L180.232 51.1799L178.936 51.9479L174.856 54.3959L170.92 52.0439L169.624 51.2759L169.24 52.7639L168.04 57.4679L163.624 58.6679L162.184 59.0519L162.952 60.3959L165.304 64.6199L163 68.6999L162.232 70.0439L163.672 70.4279L168.232 71.6759L169.432 76.2359L169.816 77.7239L171.112 76.9559L175.192 74.5079L179.128 76.8599L180.424 77.6279L180.808 76.1399L182.008 71.4359L186.424 70.2359L187.864 69.8519L187.096 68.5079ZM183.4 63.7559H176.728L181.576 58.7639L185.56 59.8679L183.4 63.7559ZM179.32 53.4839L180.472 57.8519L175.768 62.6999V55.6439L179.32 53.4839ZM174.28 55.8359V62.6999L169.432 57.7079L170.488 53.5799L174.28 55.8359ZM164.344 60.0599L168.568 58.9079L173.272 63.7559H166.408L164.344 60.0599ZM166.6 65.1959H173.272L168.424 70.2359L164.44 69.1319L166.6 65.1959ZM170.68 75.4679L169.528 71.0999L174.232 66.2519V73.3079L170.68 75.4679ZM175.72 73.1639V66.2999L180.568 71.2919L179.512 75.4199L175.72 73.1639ZM181.432 70.0919L176.728 65.2439H183.592L185.656 68.9399L181.432 70.0919Z" fill="white" fill-opacity="0.33"/>
<path opacity="0.3" d="M187.096 95.196L184.744 90.972L187.048 86.892L187.816 85.548L186.376 85.164L181.816 83.916L180.616 79.356L180.232 77.868L178.936 78.636L174.856 81.084L170.92 78.732L169.624 77.964L169.24 79.452L168.04 84.156L163.624 85.356L162.184 85.74L162.952 87.084L165.304 91.308L163 95.388L162.232 96.732L163.672 97.116L168.232 98.364L169.432 102.924L169.816 104.412L171.112 103.644L175.192 101.196L179.128 103.548L180.424 104.316L180.808 102.828L182.008 98.124L186.424 96.924L187.864 96.54L187.096 95.196ZM183.4 90.444H176.728L181.576 85.452L185.56 86.556L183.4 90.444ZM179.32 80.172L180.472 84.54L175.768 89.388V82.332L179.32 80.172ZM174.28 82.524V89.388L169.432 84.396L170.488 80.268L174.28 82.524ZM164.344 86.748L168.568 85.596L173.272 90.444H166.408L164.344 86.748ZM166.6 91.884H173.272L168.424 96.876L164.44 95.772L166.6 91.884ZM170.68 102.156L169.528 97.788L174.232 92.94V99.996L170.68 102.156ZM175.72 99.852V92.988L180.568 97.98L179.512 102.108L175.72 99.852ZM181.432 96.78L176.728 91.932H183.592L185.656 95.628L181.432 96.78Z" fill="white" fill-opacity="0.33"/>
<path opacity="0.3" d="M187.096 121.884L184.744 117.66L187.048 113.58L187.816 112.236L186.376 111.852L181.816 110.604L180.616 106.044L180.232 104.556L178.936 105.324L174.856 107.772L170.92 105.42L169.624 104.652L169.24 106.14L168.04 110.844L163.624 112.044L162.184 112.428L162.952 113.772L165.304 117.996L163 122.076L162.232 123.42L163.672 123.804L168.232 125.052L169.432 129.612L169.816 131.1L171.112 130.332L175.192 127.884L179.128 130.236L180.424 131.004L180.808 129.516L182.008 124.812L186.424 123.612L187.864 123.228L187.096 121.884ZM183.4 117.132H176.728L181.576 112.14L185.56 113.244L183.4 117.132ZM179.32 106.86L180.472 111.228L175.768 116.076V109.02L179.32 106.86ZM174.28 109.212V116.076L169.432 111.084L170.488 106.956L174.28 109.212ZM164.344 113.436L168.568 112.284L173.272 117.132H166.408L164.344 113.436ZM166.6 118.572H173.272L168.424 123.564L164.44 122.46L166.6 118.572ZM170.68 128.844L169.528 124.476L174.232 119.628V126.684L170.68 128.844ZM175.72 126.54V119.676L180.568 124.668L179.512 128.796L175.72 126.54ZM181.432 123.468L176.728 118.62H183.592L185.656 122.316L181.432 123.468Z" fill="white" fill-opacity="0.33"/>
<path opacity="0.3" d="M161.416 15.1319L159.064 10.9079L161.368 6.82789L162.136 5.48389L160.696 5.0999L156.136 3.85189L154.936 -0.708107L154.552 -2.19611L153.256 -1.42811L149.176 1.0199L145.24 -1.3321L143.944 -2.1001L143.56 -0.612105L142.36 4.09189L137.944 5.29189L136.504 5.67589L137.272 7.0199L139.624 11.2439L137.32 15.3239L136.552 16.6679L137.992 17.0519L142.552 18.2999L143.752 22.8599L144.136 24.3479L145.432 23.5799L149.512 21.1319L153.448 23.4839L154.744 24.2519L155.128 22.7639L156.328 18.0599L160.744 16.8599L162.184 16.4759L161.416 15.1319ZM157.72 10.3799H151.048L155.896 5.3879L159.88 6.49189L157.72 10.3799ZM153.592 0.107895L154.744 4.47589L150.04 9.3239V2.2679L153.592 0.107895ZM148.552 2.4599V9.3239L143.704 4.33189L144.76 0.203894L148.552 2.4599ZM138.616 6.6839L142.84 5.53189L147.544 10.3799H140.68L138.616 6.6839ZM140.872 11.8199H147.544L142.696 16.8119L138.712 15.7079L140.872 11.8199ZM145 22.0919L143.848 17.7239L148.552 12.8759V19.9319L145 22.0919ZM149.992 19.7879V12.9239L154.84 17.9159L153.784 22.0439L149.992 19.7879ZM155.752 16.7159L151.048 11.8679H157.912L159.976 15.5639L155.752 16.7159Z" fill="white" fill-opacity="0.33"/>
<path opacity="0.3" d="M161.416 41.82L159.064 37.596L161.368 33.516L162.136 32.172L160.696 31.788L156.136 30.54L154.936 25.98L154.552 24.492L153.256 25.26L149.176 27.708L145.24 25.356L143.944 24.588L143.56 26.076L142.36 30.78L137.944 31.98L136.504 32.364L137.272 33.708L139.624 37.932L137.32 42.012L136.552 43.356L137.992 43.74L142.552 44.988L143.752 49.548L144.136 51.036L145.432 50.268L149.512 47.82L153.448 50.172L154.744 50.94L155.128 49.452L156.328 44.748L160.744 43.548L162.184 43.164L161.416 41.82ZM157.72 37.068H151.048L155.896 32.076L159.88 33.18L157.72 37.068ZM153.592 26.796L154.744 31.164L150.04 36.012V28.956L153.592 26.796ZM148.552 29.148V36.012L143.704 31.02L144.76 26.892L148.552 29.148ZM138.616 33.372L142.84 32.22L147.544 37.068H140.68L138.616 33.372ZM140.872 38.508H147.544L142.696 43.5L138.712 42.396L140.872 38.508ZM145 48.78L143.848 44.412L148.552 39.564V46.62L145 48.78ZM149.992 46.476V39.612L154.84 44.604L153.784 48.732L149.992 46.476ZM155.752 43.404L151.048 38.556H157.912L159.976 42.252L155.752 43.404Z" fill="white" fill-opacity="0.33"/>
<path opacity="0.3" d="M161.416 68.5081L159.064 64.2841L161.368 60.2041L162.136 58.8601L160.696 58.4761L156.04 57.2761L154.84 52.7161L154.456 51.2281L153.16 51.9961L149.08 54.4441L145.144 52.0921L143.848 51.3241L143.464 52.8121L142.264 57.5161L137.848 58.7161L136.408 59.1001L137.176 60.4441L139.528 64.6681L137.224 68.7481L136.456 70.0921L137.896 70.4761L142.456 71.7241L143.656 76.2841L144.04 77.7721L145.336 77.0041L149.416 74.5561L153.352 76.9081L154.648 77.6761L155.032 76.1881L156.232 71.4841L160.648 70.2841L162.088 69.9001L161.416 68.5081ZM157.72 63.7561H151.048L155.896 58.7641L159.88 59.8681L157.72 63.7561ZM153.592 53.4841L154.744 57.8521L150.04 62.7001V55.6441L153.592 53.4841ZM148.552 55.8361V62.7001L143.704 57.7081L144.76 53.5801L148.552 55.8361ZM138.616 60.0601L142.84 58.9081L147.544 63.7561H140.68L138.616 60.0601ZM140.872 65.1961H147.544L142.696 70.2361L138.712 69.1321L140.872 65.1961ZM145 75.4681L143.848 71.1001L148.552 66.2521V73.3081L145 75.4681ZM149.992 73.1641V66.3001L154.84 71.2921L153.784 75.4201L149.992 73.1641ZM155.752 70.0921L151.048 65.2441H157.912L159.976 68.9401L155.752 70.0921Z" fill="white" fill-opacity="0.33"/>
<path opacity="0.3" d="M161.416 95.196L159.064 90.972L161.368 86.892L162.136 85.548L160.696 85.164L156.136 83.916L154.936 79.356L154.552 77.868L153.256 78.636L149.176 81.084L145.24 78.732L143.944 77.964L143.56 79.452L142.36 84.156L137.944 85.356L136.504 85.74L137.272 87.084L139.624 91.308L137.32 95.388L136.552 96.732L137.992 97.116L142.552 98.364L143.752 102.924L144.136 104.412L145.432 103.644L149.512 101.196L153.448 103.548L154.744 104.316L155.128 102.828L156.328 98.124L160.744 96.924L162.184 96.54L161.416 95.196ZM157.72 90.444H151.048L155.896 85.452L159.88 86.556L157.72 90.444ZM153.592 80.172L154.744 84.54L150.04 89.388V82.332L153.592 80.172ZM148.552 82.524V89.388L143.704 84.396L144.76 80.268L148.552 82.524ZM138.616 86.748L142.84 85.596L147.544 90.444H140.68L138.616 86.748ZM140.872 91.884H147.544L142.696 96.876L138.712 95.772L140.872 91.884ZM145 102.156L143.848 97.788L148.552 92.94V99.996L145 102.156ZM149.992 99.852V92.988L154.84 97.98L153.784 102.108L149.992 99.852ZM155.752 96.78L151.048 91.932H157.912L159.976 95.628L155.752 96.78Z" fill="white" fill-opacity="0.33"/>
<path opacity="0.3" d="M161.416 121.884L159.064 117.66L161.368 113.58L162.136 112.236L160.696 111.852L156.136 110.604L154.936 106.044L154.552 104.556L153.256 105.324L149.176 107.772L145.24 105.42L143.944 104.652L143.56 106.14L142.36 110.844L137.944 112.044L136.504 112.428L137.272 113.772L139.624 117.996L137.32 122.076L136.552 123.42L137.992 123.804L142.552 125.052L143.752 129.612L144.136 131.1L145.432 130.332L149.512 127.884L153.448 130.236L154.744 131.004L155.128 129.516L156.328 124.812L160.744 123.612L162.184 123.228L161.416 121.884ZM157.72 117.132H151.048L155.896 112.14L159.88 113.244L157.72 117.132ZM153.592 106.86L154.744 111.228L150.04 116.076V109.02L153.592 106.86ZM148.552 109.212V116.076L143.704 111.084L144.76 106.956L148.552 109.212ZM138.616 113.436L142.84 112.284L147.544 117.132H140.68L138.616 113.436ZM140.872 118.572H147.544L142.696 123.564L138.712 122.46L140.872 118.572ZM145 128.844L143.848 124.476L148.552 119.628V126.684L145 128.844ZM149.992 126.54V119.676L154.84 124.668L153.784 128.796L149.992 126.54ZM155.752 123.468L151.048 118.62H157.912L159.976 122.316L155.752 123.468Z" fill="white" fill-opacity="0.33"/>
<path opacity="0.3" d="M135.688 15.1319L133.336 10.9079L135.64 6.82789L136.408 5.48389L134.968 5.0999L130.408 3.85189L129.208 -0.708107L128.824 -2.19611L127.528 -1.42811L123.448 1.0199L119.512 -1.3321L118.216 -2.1001L117.832 -0.612105L116.632 4.09189L112.216 5.29189L110.776 5.67589L111.544 7.0199L113.896 11.2439L111.592 15.3239L110.824 16.6679L112.264 17.0519L116.824 18.2999L118.024 22.8599L118.408 24.3479L119.704 23.5799L123.784 21.1319L127.72 23.4839L129.016 24.2519L129.4 22.7639L130.6 18.0599L135.016 16.8599L136.456 16.4759L135.688 15.1319ZM131.992 10.3799H125.32L130.168 5.3879L134.152 6.49189L131.992 10.3799ZM127.864 0.107895L129.016 4.47589L124.312 9.3239V2.2679L127.864 0.107895ZM122.872 2.4599V9.3239L118.024 4.33189L119.08 0.203894L122.872 2.4599ZM112.888 6.6839L117.112 5.53189L121.816 10.3799H114.952L112.888 6.6839ZM115.144 11.8679H121.816L116.968 16.8599L112.984 15.7559L115.144 11.8679ZM119.272 22.0919L118.12 17.7239L122.824 12.8759V19.9319L119.272 22.0919ZM124.312 19.7879V12.9239L129.16 17.9159L128.104 22.0439L124.312 19.7879ZM130.024 16.7159L125.32 11.8679H132.184L134.248 15.5639L130.024 16.7159Z" fill="white" fill-opacity="0.33"/>
<path opacity="0.3" d="M135.688 41.82L133.336 37.596L135.64 33.516L136.408 32.172L134.968 31.788L130.408 30.54L129.208 25.98L128.824 24.492L127.528 25.26L123.448 27.708L119.512 25.356L118.216 24.588L117.832 26.076L116.632 30.78L112.216 31.98L110.776 32.364L111.544 33.708L113.896 37.932L111.592 42.012L110.824 43.356L112.264 43.74L116.824 44.988L118.024 49.548L118.408 51.036L119.704 50.268L123.784 47.82L127.72 50.172L129.016 50.94L129.4 49.452L130.6 44.748L135.016 43.548L136.456 43.164L135.688 41.82ZM131.992 37.068H125.32L130.168 32.076L134.152 33.18L131.992 37.068ZM127.864 26.796L129.016 31.164L124.312 36.012V28.956L127.864 26.796ZM122.872 29.148V36.012L118.024 31.02L119.08 26.892L122.872 29.148ZM112.888 33.372L117.112 32.22L121.816 37.068H114.952L112.888 33.372ZM115.144 38.508H121.816L116.968 43.5L112.984 42.396L115.144 38.508ZM119.272 48.78L118.12 44.412L122.824 39.564V46.62L119.272 48.78ZM124.312 46.476V39.612L129.16 44.604L128.104 48.732L124.312 46.476ZM130.024 43.404L125.32 38.556H132.184L134.248 42.252L130.024 43.404Z" fill="white" fill-opacity="0.33"/>
<path opacity="0.3" d="M135.688 68.5079L133.336 64.2839L135.64 60.2039L136.408 58.8599L134.968 58.4759L130.408 57.2279L129.208 52.6679L128.824 51.1799L127.528 51.9479L123.448 54.3959L119.512 52.0439L118.216 51.2759L117.832 52.7639L116.632 57.4679L112.216 58.6679L110.776 59.0519L111.544 60.3959L113.896 64.6199L111.592 68.6999L110.824 70.0439L112.264 70.4279L116.824 71.6759L118.024 76.2359L118.408 77.7239L119.704 76.9559L123.784 74.5079L127.72 76.8599L129.016 77.6279L129.4 76.1399L130.6 71.4359L135.016 70.2359L136.456 69.8519L135.688 68.5079ZM131.992 63.7559H125.32L130.168 58.7639L134.152 59.8679L131.992 63.7559ZM127.864 53.4839L129.016 57.8519L124.312 62.6999V55.6439L127.864 53.4839ZM122.872 55.8359V62.6999L118.024 57.7079L119.08 53.5799L122.872 55.8359ZM112.888 60.0599L117.112 58.9079L121.816 63.7559H114.952L112.888 60.0599ZM115.144 65.1959H121.816L116.968 70.2359L112.984 69.1319L115.144 65.1959ZM119.272 75.4679L118.12 71.0999L122.824 66.2519V73.3079L119.272 75.4679ZM124.312 73.1639V66.2999L129.16 71.2919L128.104 75.4199L124.312 73.1639ZM130.024 70.0919L125.32 65.2439H132.184L134.248 68.9399L130.024 70.0919Z" fill="white" fill-opacity="0.33"/>
<path opacity="0.3" d="M135.688 95.196L133.336 90.972L135.64 86.892L136.408 85.548L134.968 85.164L130.408 83.916L129.208 79.356L128.824 77.868L127.528 78.636L123.448 81.084L119.512 78.732L118.216 77.964L117.832 79.452L116.632 84.156L112.216 85.356L110.776 85.74L111.544 87.084L113.896 91.308L111.592 95.388L110.824 96.732L112.264 97.116L116.824 98.364L118.024 102.924L118.408 104.412L119.704 103.644L123.784 101.196L127.72 103.548L129.016 104.316L129.4 102.828L130.6 98.124L135.016 96.924L136.456 96.54L135.688 95.196ZM131.992 90.444H125.32L130.168 85.452L134.152 86.556L131.992 90.444ZM127.864 80.172L129.016 84.54L124.312 89.388V82.332L127.864 80.172ZM122.872 82.524V89.388L118.024 84.396L119.08 80.268L122.872 82.524ZM112.888 86.748L117.112 85.596L121.816 90.444H114.952L112.888 86.748ZM115.144 91.884H121.816L116.968 96.876L112.984 95.772L115.144 91.884ZM119.272 102.156L118.12 97.788L122.824 92.94V99.996L119.272 102.156ZM124.312 99.852V92.988L129.16 97.98L128.104 102.108L124.312 99.852ZM130.024 96.78L125.32 91.932H132.184L134.248 95.628L130.024 96.78Z" fill="white" fill-opacity="0.33"/>
<path opacity="0.3" d="M135.688 121.884L133.336 117.66L135.64 113.58L136.408 112.236L134.968 111.852L130.408 110.604L129.208 106.044L128.824 104.556L127.528 105.324L123.448 107.772L119.512 105.42L118.216 104.652L117.832 106.14L116.632 110.844L112.216 112.044L110.776 112.428L111.544 113.772L113.896 117.996L111.592 122.076L110.824 123.42L112.264 123.804L116.824 125.052L118.024 129.612L118.408 131.1L119.704 130.332L123.784 127.884L127.72 130.236L129.016 131.004L129.4 129.516L130.6 124.812L135.016 123.612L136.456 123.228L135.688 121.884ZM131.992 117.132H125.32L130.168 112.14L134.152 113.244L131.992 117.132ZM127.864 106.86L129.016 111.228L124.312 116.076V109.02L127.864 106.86ZM122.872 109.212V116.076L118.024 111.084L119.08 106.956L122.872 109.212ZM112.888 113.436L117.112 112.284L121.816 117.132H114.952L112.888 113.436ZM115.144 118.572H121.816L116.968 123.564L112.984 122.46L115.144 118.572ZM119.272 128.844L118.12 124.476L122.824 119.628V126.684L119.272 128.844ZM124.312 126.54V119.676L129.16 124.668L128.104 128.796L124.312 126.54ZM130.024 123.468L125.32 118.62H132.184L134.248 122.316L130.024 123.468Z" fill="white" fill-opacity="0.33"/>
<path opacity="0.3" d="M109.96 15.1319L107.608 10.9079L109.912 6.82789L110.68 5.48389L109.24 5.0999L104.68 3.85189L103.48 -0.708107L103.096 -2.19611L101.8 -1.42811L97.72 1.0199L93.784 -1.3321L92.488 -2.1001L92.104 -0.612105L90.904 4.09189L86.488 5.29189L85.048 5.67589L85.816 7.0199L88.168 11.2439L85.864 15.3239L85.096 16.6679L86.536 17.0519L91.096 18.2999L92.296 22.8599L92.68 24.3479L93.976 23.5799L98.056 21.1319L101.992 23.4839L103.288 24.2519L103.672 22.7639L104.872 18.0599L109.288 16.8599L110.728 16.4759L109.96 15.1319ZM106.264 10.3799H99.592L104.44 5.3879L108.424 6.49189L106.264 10.3799ZM102.184 0.107895L103.336 4.47589L98.632 9.3239V2.2679L102.184 0.107895ZM97.144 2.4599V9.3239L92.296 4.33189L93.352 0.203894L97.144 2.4599ZM87.16 6.6839L91.384 5.53189L96.088 10.3799H89.224L87.16 6.6839ZM89.464 11.8679H96.136L91.288 16.8599L87.304 15.7559L89.464 11.8679ZM93.544 22.0919L92.392 17.7239L97.096 12.8759V19.9319L93.544 22.0919ZM98.584 19.7879V12.9239L103.432 17.9159L102.376 22.0439L98.584 19.7879ZM104.296 16.7159L99.592 11.8679H106.456L108.52 15.5639L104.296 16.7159Z" fill="white" fill-opacity="0.33"/>
<path opacity="0.3" d="M109.96 41.82L107.608 37.596L109.912 33.516L110.68 32.172L109.24 31.788L104.68 30.54L103.48 25.98L103.096 24.492L101.8 25.26L97.72 27.708L93.784 25.356L92.488 24.588L92.104 26.076L90.904 30.78L86.488 31.98L85.048 32.364L85.816 33.708L88.168 37.932L85.864 42.012L85.096 43.356L86.536 43.74L91.096 44.988L92.296 49.548L92.68 51.036L93.976 50.268L98.056 47.82L101.992 50.172L103.288 50.94L103.672 49.452L104.872 44.748L109.288 43.548L110.728 43.164L109.96 41.82ZM106.264 37.068H99.592L104.44 32.076L108.424 33.18L106.264 37.068ZM102.184 26.796L103.336 31.164L98.632 36.012V28.956L102.184 26.796ZM97.144 29.148V36.012L92.296 31.02L93.352 26.892L97.144 29.148ZM87.16 33.372L91.384 32.22L96.088 37.068H89.224L87.16 33.372ZM89.464 38.556H96.136L91.288 43.548L87.304 42.444L89.464 38.556ZM93.544 48.78L92.392 44.412L97.096 39.564V46.62L93.544 48.78ZM98.584 46.476V39.612L103.432 44.604L102.376 48.732L98.584 46.476ZM104.296 43.404L99.592 38.556H106.456L108.52 42.252L104.296 43.404Z" fill="white" fill-opacity="0.33"/>
<path opacity="0.3" d="M109.96 68.5079L107.608 64.2839L109.912 60.2039L110.68 58.8599L109.24 58.4759L104.68 57.2279L103.48 52.6679L103.096 51.1799L101.8 51.9959L97.72 54.4439L93.784 52.0919L92.488 51.3239L92.104 52.8119L90.904 57.5159L86.44 58.7159L85 59.0999L85.768 60.4439L88.12 64.6679L85.816 68.7479L85.048 70.0919L86.488 70.4759L91.048 71.7239L92.248 76.2839L92.632 77.7719L93.928 77.0039L98.008 74.5559L101.944 76.9079L103.24 77.6759L103.624 76.1879L104.824 71.4839L109.24 70.2839L110.68 69.8999L109.96 68.5079ZM106.264 63.7559H99.592L104.44 58.7639L108.424 59.8679L106.264 63.7559ZM102.184 53.4839L103.336 57.8519L98.632 62.6999V55.6439L102.184 53.4839ZM97.144 55.8359V62.6999L92.296 57.7079L93.352 53.5799L97.144 55.8359ZM87.16 60.0599L91.384 58.9079L96.088 63.7559H89.224L87.16 60.0599ZM89.464 65.2439H96.136L91.288 70.2359L87.304 69.1319L89.464 65.2439ZM93.544 75.4679L92.392 71.0999L97.096 66.2519V73.3079L93.544 75.4679ZM98.584 73.1639V66.2999L103.432 71.2919L102.376 75.4199L98.584 73.1639ZM104.296 70.0919L99.592 65.2439H106.456L108.52 68.9399L104.296 70.0919Z" fill="white" fill-opacity="0.33"/>
<path opacity="0.3" d="M109.96 95.196L107.608 90.972L109.912 86.892L110.68 85.548L109.24 85.164L104.68 83.916L103.48 79.356L103.096 77.868L101.8 78.636L97.72 81.084L93.784 78.732L92.488 77.964L92.104 79.452L90.904 84.156L86.488 85.356L85.048 85.74L85.816 87.084L88.168 91.308L85.864 95.388L85.096 96.732L86.536 97.116L91.096 98.364L92.296 102.924L92.68 104.412L93.976 103.644L98.056 101.196L101.992 103.548L103.288 104.316L103.672 102.828L104.872 98.124L109.288 96.924L110.728 96.54L109.96 95.196ZM106.264 90.444H99.592L104.44 85.452L108.424 86.556L106.264 90.444ZM102.184 80.172L103.336 84.54L98.632 89.388V82.332L102.184 80.172ZM97.144 82.524V89.388L92.296 84.396L93.352 80.268L97.144 82.524ZM87.16 86.748L91.384 85.596L96.088 90.444H89.224L87.16 86.748ZM89.464 91.932H96.136L91.288 96.924L87.304 95.82L89.464 91.932ZM93.544 102.156L92.392 97.788L97.096 92.94V99.996L93.544 102.156ZM98.584 99.852V92.988L103.432 97.98L102.376 102.108L98.584 99.852ZM104.296 96.78L99.592 91.932H106.456L108.52 95.628L104.296 96.78Z" fill="white" fill-opacity="0.33"/>
<path opacity="0.3" d="M109.96 121.884L107.608 117.66L109.912 113.58L110.68 112.236L109.24 111.852L104.68 110.604L103.48 106.044L103.096 104.556L101.8 105.324L97.72 107.772L93.784 105.42L92.488 104.652L92.104 106.14L90.904 110.844L86.488 112.044L85.048 112.428L85.816 113.772L88.168 117.996L85.864 122.076L85.096 123.42L86.536 123.804L91.096 125.052L92.296 129.612L92.68 131.1L93.976 130.332L98.056 127.884L101.992 130.236L103.288 131.004L103.672 129.516L104.872 124.812L109.288 123.612L110.728 123.228L109.96 121.884ZM106.264 117.132H99.592L104.44 112.14L108.424 113.244L106.264 117.132ZM102.184 106.86L103.336 111.228L98.632 116.076V109.02L102.184 106.86ZM97.144 109.212V116.076L92.296 111.084L93.352 106.956L97.144 109.212ZM87.16 113.436L91.384 112.284L96.088 117.132H89.224L87.16 113.436ZM89.464 118.62H96.136L91.288 123.612L87.304 122.508L89.464 118.62ZM93.544 128.844L92.392 124.476L97.096 119.628V126.684L93.544 128.844ZM98.584 126.54V119.676L103.432 124.668L102.376 128.796L98.584 126.54ZM104.296 123.468L99.592 118.62H106.456L108.52 122.316L104.296 123.468Z" fill="white" fill-opacity="0.33"/>
</g>
</g>
<defs>
<filter id="filter0_d_2998_961" x="0" y="0" width="172" height="133" filterUnits="userSpaceOnUse" color-interpolation-filters="sRGB">
<feFlood flood-opacity="0" result="BackgroundImageFix"/>
<feColorMatrix in="SourceAlpha" type="matrix" values="0 0 0 0 0 0 0 0 0 0 0 0 0 0 0 0 0 0 127 0" result="hardAlpha"/>
<feOffset dx="1" dy="2"/>
<feGaussianBlur stdDeviation="4"/>
<feColorMatrix type="matrix" values="0 0 0 0 0 0 0 0 0 0 0 0 0 0 0 0 0 0 0.1 0"/>
<feBlend mode="normal" in2="BackgroundImageFix" result="effect1_dropShadow_2998_961"/>
<feBlend mode="normal" in="SourceGraphic" in2="effect1_dropShadow_2998_961" result="shape"/>
</filter>
</defs>
</svg>
