<svg width="56" height="56" viewBox="0 0 56 56" fill="none" xmlns="http://www.w3.org/2000/svg">
<g filter="url(#filter0_b_2993_816)">
<rect width="56" height="56" rx="28" fill="black" fill-opacity="0.1"/>
<path fill-rule="evenodd" clip-rule="evenodd" d="M15.7481 26.433L15.8355 28.9362C15.859 29.6101 16.6662 30.6423 16.525 26.5987C16.4511 24.4806 16.3771 22.3625 16.3031 20.2444C16.2527 18.8003 18.3708 18.7263 18.4212 20.1705L18.6297 26.1396C18.6465 26.621 19.4167 26.5941 19.3999 26.1127L19.1477 18.892C19.0973 17.4478 21.2154 17.3739 21.2658 18.818L21.5146 25.9425C21.5314 26.4238 22.2087 26.4966 22.1885 25.9189L21.97 19.661C21.9196 18.2168 24.1339 18.1395 24.1843 19.5836C24.2617 21.798 24.3558 24.4937 24.4331 26.7081C24.45 27.1895 25.1272 27.2622 25.1071 26.6846L24.9322 21.6782C24.8818 20.234 27.0962 20.1567 27.1466 21.6009L27.3013 26.0296L27.3819 28.3402L27.5433 32.9615C27.7854 39.8934 14.1209 40.5633 13.7981 31.3208L13.63 26.507C13.5796 25.0628 15.6977 24.9889 15.7481 26.433Z" fill="#E0B11A"/>
<path fill-rule="evenodd" clip-rule="evenodd" d="M40.1556 26.4296L40.0682 28.9328C40.0447 29.6068 39.3337 30.6423 39.475 26.5987C39.5489 24.4806 39.6229 22.3625 39.6968 20.2444C39.7473 18.8003 37.6292 18.7263 37.5788 20.1705L37.3703 26.1396C37.3535 26.621 36.5833 26.5941 36.6001 26.1127L36.8523 18.892C36.9027 17.4478 34.7846 17.3739 34.7342 18.818L34.4854 25.9425C34.4686 26.4238 33.695 26.4932 33.7152 25.9156L33.9337 19.6576C33.9841 18.2134 31.8661 18.1395 31.8156 19.5836C31.7383 21.798 31.6442 24.4937 31.5668 26.7081C31.55 27.1895 30.7765 27.2588 30.7966 26.6812L30.9715 21.6748C31.0219 20.2307 28.9038 20.1567 28.8534 21.6008L28.6987 26.0296L28.618 28.3402L28.4567 32.9615C28.2146 39.8934 41.8791 40.5633 42.2019 31.3208L42.37 26.507C42.4204 25.0628 40.206 24.9855 40.1556 26.4296Z" fill="#E0B11A"/>
</g>
<defs>
<filter id="filter0_b_2993_816" x="-10" y="-10" width="76" height="76" filterUnits="userSpaceOnUse" color-interpolation-filters="sRGB">
<feFlood flood-opacity="0" result="BackgroundImageFix"/>
<feGaussianBlur in="BackgroundImageFix" stdDeviation="5"/>
<feComposite in2="SourceAlpha" operator="in" result="effect1_backgroundBlur_2993_816"/>
<feBlend mode="normal" in="SourceGraphic" in2="effect1_backgroundBlur_2993_816" result="shape"/>
</filter>
</defs>
</svg>
