<svg width="56" height="56" viewBox="0 0 56 56" fill="none" xmlns="http://www.w3.org/2000/svg">
<g filter="url(#filter0_b_2993_955)">
<rect width="56" height="56" rx="28" fill="black" fill-opacity="0.1"/>
<path fill-rule="evenodd" clip-rule="evenodd" d="M19.8961 14.2857C18.5116 14.2857 17.4026 15.3947 17.4026 16.7793V36.5178C18.0691 35.9058 18.9248 35.4806 19.8961 35.4806H38.5974V14.2857H19.8961ZM24.4273 17.4471C24.6271 17.3445 24.7991 17.6177 24.6476 17.7835C24.1507 18.3274 23.7347 18.9427 23.4143 19.6109C22.9263 20.6286 22.6727 21.7429 22.6721 22.8718C22.6723 24.8731 23.4669 26.7924 24.8811 28.2076C26.2954 29.6227 28.2135 30.4178 30.2135 30.418C31.3459 30.4164 32.4634 30.1598 33.4832 29.667C34.153 29.3433 34.7693 28.9232 35.3133 28.4217C35.4785 28.2694 35.7527 28.4404 35.6508 28.6407C35.0458 29.8303 34.1616 30.8626 33.067 31.645C31.6559 32.6537 29.9655 33.1968 28.2314 33.1988C27.1366 33.1988 26.0527 32.9829 25.0413 32.5637C24.0299 32.1444 23.111 31.5299 22.337 30.7552C21.563 29.9805 20.9491 29.0608 20.5303 28.0487C20.1115 27.0365 19.896 25.9518 19.8961 24.8564C19.8987 23.1266 20.4387 21.4404 21.4412 20.0312C22.2187 18.9384 23.2445 18.0542 24.4273 17.4471ZM29.9131 20.1206C29.9716 19.9336 30.2362 19.9336 30.2948 20.1206L30.9216 22.1212C30.9479 22.2054 31.0262 22.2623 31.1144 22.2614L33.2088 22.2409C33.4044 22.239 33.4861 22.4901 33.3269 22.6037L31.6198 23.8215C31.5482 23.8726 31.5184 23.9646 31.5464 24.048L32.2143 26.0356C32.2766 26.2212 32.0627 26.3766 31.9055 26.2599L30.2232 25.0115C30.1524 24.9589 30.0555 24.9589 29.9847 25.0115L28.3043 26.2599C28.1472 26.3766 27.9332 26.2214 27.9954 26.0358L28.6616 24.048C28.6895 23.9645 28.6597 23.8727 28.5881 23.8216L26.881 22.6037C26.7217 22.4901 26.8034 22.239 26.9991 22.2409L29.0935 22.2614C29.1816 22.2623 29.2599 22.2054 29.2863 22.1212L29.9131 20.1206Z" fill="#E0B11A"/>
<path fill-rule="evenodd" clip-rule="evenodd" d="M19.8961 36.7273H29.8701V39.8443C29.8701 39.9571 29.9008 40.0677 29.9588 40.1645C30.0168 40.2613 30.0999 40.3405 30.1994 40.3937C30.2988 40.447 30.4109 40.4722 30.5236 40.4668C30.6362 40.4614 30.7453 40.4254 30.8392 40.3628L32.3636 39.3474L33.888 40.3628C33.9819 40.4254 34.091 40.4614 34.2037 40.4668C34.3164 40.4722 34.4284 40.447 34.5279 40.3937C34.6273 40.3405 34.7105 40.2613 34.7685 40.1645C34.8265 40.0677 34.8571 39.9571 34.8571 39.8443V36.7273H38.5974V41.7143H19.8961C18.5116 41.7143 17.4026 40.6054 17.4026 39.2209C17.4026 37.8364 18.5116 36.7273 19.8961 36.7273V36.7273Z" fill="#E0B11A"/>
<path fill-rule="evenodd" clip-rule="evenodd" d="M31.1167 36.7273H33.6102V38.6802L32.7092 38.0788C32.6068 38.0106 32.4865 37.9741 32.3635 37.9741C32.2404 37.9741 32.1201 38.0106 32.0177 38.0788L31.1167 38.6802V36.7273Z" fill="#E0B11A"/>
</g>
<defs>
<filter id="filter0_b_2993_955" x="-10" y="-10" width="76" height="76" filterUnits="userSpaceOnUse" color-interpolation-filters="sRGB">
<feFlood flood-opacity="0" result="BackgroundImageFix"/>
<feGaussianBlur in="BackgroundImageFix" stdDeviation="5"/>
<feComposite in2="SourceAlpha" operator="in" result="effect1_backgroundBlur_2993_955"/>
<feBlend mode="normal" in="SourceGraphic" in2="effect1_backgroundBlur_2993_955" result="shape"/>
</filter>
</defs>
</svg>
