<svg width="56" height="56" viewBox="0 0 56 56" fill="none" xmlns="http://www.w3.org/2000/svg">
<g filter="url(#filter0_b_2993_1378)">
<rect width="56" height="56" rx="28" fill="black" fill-opacity="0.1"/>
<path fill-rule="evenodd" clip-rule="evenodd" d="M26.3264 14.4257C24.2546 14.7651 22.6064 15.602 21.1823 17.0376C19.844 18.3867 19.0289 19.8376 18.733 21.3972C18.6818 21.6673 18.6647 22.1816 18.687 22.7769C18.7163 23.5557 18.7542 23.8154 18.8981 24.2243C19.155 24.9541 19.5138 25.5977 20.0079 26.2152C21.1342 27.6229 22.4928 28.6629 26.826 31.4343L27.3602 31.7759L28.5161 31.0326C32.2555 28.6281 33.8586 27.3766 34.8137 26.116C35.2726 25.5104 35.7458 24.5461 35.9159 23.8702C36.083 23.2059 36.1003 22.0183 35.9539 21.2532C35.724 20.0515 34.9974 18.6772 33.9605 17.4829C32.2358 15.4963 29.7706 14.3572 27.2628 14.388C26.8426 14.3932 26.4212 14.4101 26.3264 14.4257ZM28.8139 16.8707C30.4774 17.2894 31.926 18.495 32.63 20.0464C32.7563 20.3249 32.8993 20.7001 32.9478 20.8804C33.0309 21.1899 33.0488 21.2081 33.2705 21.2081C33.5381 21.2081 33.9512 21.3643 34.1437 21.5384C34.6548 22.0006 34.6496 22.9727 34.1335 23.4394C33.9567 23.5993 33.5313 23.7535 33.2563 23.7575C33.0548 23.7604 33.0388 23.7837 32.8609 24.3296C32.2904 26.0813 30.8539 27.4701 29.0168 28.0459C28.5647 28.1876 28.36 28.2083 27.3956 28.2091C26.152 28.2101 25.7496 28.1323 24.8838 27.7234C23.9536 27.284 23.1106 26.5672 22.5277 25.72C22.2535 25.3214 21.8762 24.5077 21.7699 24.0856C21.6923 23.7776 21.6756 23.7605 21.4526 23.7605C21.1842 23.7605 20.7713 23.6045 20.5786 23.4302C20.1379 23.0317 20.0599 22.2021 20.4189 21.7316C20.6551 21.4219 21.0629 21.2081 21.4175 21.2081C21.6823 21.2081 21.6897 21.2012 21.7699 20.883C22.1193 19.4953 23.3222 18.0198 24.6516 17.348C25.1829 17.0795 26.0504 16.7793 26.0504 16.8641C26.0504 16.8986 25.9874 17.0478 25.9103 17.1957C25.457 18.0654 25.8224 19.1938 26.6938 19.6156C27.5483 20.0293 28.6999 19.5792 28.9536 18.7324C29.2266 17.8212 28.291 17.0438 27.4424 17.4766C26.9848 17.7102 26.8787 18.1754 27.2373 18.3761C27.4141 18.475 27.4343 18.4706 27.6205 18.2921C27.9185 18.0067 28.261 18.0707 28.2557 18.4108C28.2509 18.7235 27.8636 19.0006 27.432 19.0003C26.6368 18.9997 26.2265 18.2303 26.6222 17.482C26.8026 17.1409 27.0107 16.9656 27.3996 16.827C27.7826 16.6906 28.1427 16.7017 28.8139 16.8707ZM24.7766 21.9741C24.5774 22.149 24.5328 22.2364 24.5328 22.4517C24.5328 22.9941 25.0936 23.3502 25.5646 23.1067C26.0444 22.8586 26.0712 22.1728 25.6122 21.8928C25.2995 21.7021 25.0597 21.7255 24.7766 21.9741ZM29.2927 21.8055C28.7236 22.0309 28.6802 22.824 29.2214 23.104C29.4756 23.2354 29.5927 23.2354 29.8468 23.104C30.2739 22.8832 30.367 22.2957 30.0259 21.9752C29.8609 21.8202 29.4787 21.7318 29.2927 21.8055ZM26.8517 24.5944C26.1182 25.1713 26.4892 26.3141 27.4094 26.3124C28.3038 26.3109 28.6583 25.119 27.9207 24.5938C27.6439 24.3967 27.1026 24.397 26.8517 24.5944ZM17.387 26.1901C17.2879 26.4956 17.3349 29.2795 17.4559 30.2795C17.7377 32.6061 18.438 34.9145 19.4127 36.7296C19.765 37.3857 20.6543 38.7301 20.7359 38.7301C20.7651 38.7301 20.84 38.5964 20.9024 38.4329C21.0848 37.9553 21.6848 36.9516 22.1887 36.2812C22.8747 35.3685 24.4673 33.8172 25.3608 33.1914C25.5557 33.0548 25.576 33.0764 24.7859 32.5776C20.8457 30.0897 18.994 28.5112 17.8178 26.6378C17.4808 26.101 17.4323 26.0506 17.387 26.1901ZM37.0692 26.3894C36.7126 27.0288 36.1017 27.7937 35.3346 28.5611C34.0949 29.8014 33.2583 30.4223 29.8101 32.6609C26.8355 34.5919 25.7743 35.4021 24.6157 36.6263C23.6326 37.6651 22.9665 38.7399 22.5655 39.9344L22.3825 40.4797L22.5435 40.607C23.2464 41.162 24.2413 41.721 25.0157 41.996C26.0014 42.3459 27.4396 42.4816 28.4454 42.3194C32.7471 41.6259 36.2987 36.972 37.1859 30.8659C37.349 29.7432 37.4433 28.0189 37.3914 27.1062C37.3291 26.0106 37.3074 25.9623 37.0692 26.3894Z" fill="#E0B11A"/>
</g>
<defs>
<filter id="filter0_b_2993_1378" x="-10" y="-10" width="76" height="76" filterUnits="userSpaceOnUse" color-interpolation-filters="sRGB">
<feFlood flood-opacity="0" result="BackgroundImageFix"/>
<feGaussianBlur in="BackgroundImageFix" stdDeviation="5"/>
<feComposite in2="SourceAlpha" operator="in" result="effect1_backgroundBlur_2993_1378"/>
<feBlend mode="normal" in="SourceGraphic" in2="effect1_backgroundBlur_2993_1378" result="shape"/>
</filter>
</defs>
</svg>
