<svg width="56" height="56" viewBox="0 0 56 56" fill="none" xmlns="http://www.w3.org/2000/svg">
<g filter="url(#filter0_b_2993_1662)">
<rect width="56" height="56" rx="28" fill="black" fill-opacity="0.1"/>
<path d="M18.7746 31.083C18.3893 30.1839 18.9031 29.6701 19.4169 29.0278C19.8022 28.514 20.1876 28.0002 20.7014 27.2295C20.8299 28.1287 20.9583 28.7709 21.0868 29.5416C21.3437 31.8538 21.729 34.0374 21.9859 36.3496C21.9859 36.7349 22.1144 36.9918 22.6282 36.9918C23.5273 36.9918 24.555 37.1203 25.4541 36.9918C26.7386 36.8634 27.124 36.2211 26.9955 35.0651C26.7386 32.7529 26.4817 30.4408 26.2248 28.1287C26.2248 27.8718 26.2248 27.4864 26.4817 27.2295C27.124 26.3303 27.7663 25.5596 28.4085 24.532C28.6654 26.5872 28.9223 28.514 29.0508 30.3123C29.1792 31.8538 29.4361 33.3952 29.5646 34.9366C29.693 35.5789 29.9499 35.9642 30.4637 36.3496C31.3629 36.8634 32.3905 37.2487 33.5466 36.9918C34.0604 36.8634 34.3173 36.6065 34.3173 35.9642C34.0604 33.1383 33.675 30.3123 33.4181 27.4864C33.2897 26.8441 33.4181 26.3303 33.8035 25.8165C34.5742 24.7889 35.2165 23.6328 35.9872 22.3483C36.1156 23.119 36.1156 23.6328 36.1156 24.1467C36.501 28.514 36.8863 32.8814 37.1432 37.2487C37.2717 38.9186 35.4734 40.7169 33.8035 40.7169C33.0328 40.7169 32.3905 40.7169 31.6198 40.5885C29.9499 40.46 28.9223 39.5609 28.2801 38.0194C28.2801 37.891 28.1516 37.7625 28.0232 37.5056C27.7663 38.0194 27.3809 38.5333 27.2525 39.0471C26.8671 40.2031 25.9679 40.5885 24.9403 40.5885C23.7843 40.5885 22.6282 40.46 21.6006 40.3316C20.9583 40.2031 20.573 39.9462 20.4445 39.1755C20.1876 38.2763 19.9307 37.3772 19.6738 36.478C19.4169 36.8634 19.2884 37.2487 19.0315 37.6341C18.2608 38.7902 17.747 39.1755 16.334 38.6617C15.4349 38.4048 14.6642 37.891 13.8935 37.5056C13.3797 37.5056 13.2512 37.2487 13.3797 36.7349C13.765 35.7073 14.1504 34.5512 14.5357 33.5236C14.7926 32.7529 15.4349 32.3676 16.2056 32.1107C16.9763 31.7253 17.8755 31.4684 18.7746 31.083ZM16.2056 34.9366C16.2056 34.8082 16.2056 34.9366 16.2056 34.9366C16.334 35.5789 16.7194 35.8358 17.2332 35.9642C17.8755 36.0927 18.6462 36.0927 19.16 35.7073C19.16 35.7073 19.2884 35.5789 19.2884 35.4504C19.2884 34.8082 19.16 34.1659 19.0315 33.5236C18.1324 33.909 17.2332 34.4228 16.2056 34.9366Z" fill="#E0B11A"/>
<path d="M42.6667 16.6963C42.6667 16.9532 42.6667 17.0816 42.6667 17.3385C42.6667 23.7611 42.6667 30.3121 42.6667 36.7347C42.6667 37.1201 42.5383 37.5055 42.2814 37.8908C41.6391 38.79 40.9968 39.8176 40.2261 40.8452C40.2261 40.4598 40.2261 40.3314 40.2261 40.2029C40.2261 33.5234 40.2261 26.844 40.2261 20.1645C40.2261 19.9076 40.3546 19.5222 40.6115 19.2653C41.2538 18.3661 41.896 17.5954 42.6667 16.8247C42.6667 16.6963 42.6667 16.6963 42.6667 16.6963Z" fill="#E0B11A"/>
<path d="M24.0412 20.9352C24.1696 21.5774 24.0412 22.0912 24.2981 22.4766C24.4265 22.8619 24.8119 23.2473 25.0688 23.3757C25.4542 23.3757 25.8395 23.1188 26.0964 22.8619C26.6102 22.0912 26.6102 21.1921 26.4818 20.2929C26.7387 20.1644 27.124 20.036 27.5094 19.7791C27.5094 20.036 27.6378 20.2929 27.6378 20.4213C27.8947 20.8067 28.0232 21.3205 28.4086 21.5774C29.0508 22.0912 29.8215 21.9628 29.95 21.0636C30.0784 20.4213 29.95 19.6506 29.95 18.8799C30.2069 18.7515 30.5922 18.623 31.106 18.3661C31.6198 19.7791 31.3629 21.9628 30.4638 22.8619C30.0784 23.5042 29.4362 23.6326 28.7939 23.2473C28.0232 22.8619 27.5094 22.9904 26.8671 23.7611C26.3533 24.5318 25.5826 24.9172 24.6835 24.9172C23.9127 24.9172 23.3989 24.5318 23.2705 23.8895C23.0136 23.2473 23.0136 22.4766 23.0136 21.8343C23.0136 21.5774 23.6558 21.3205 24.0412 20.9352Z" fill="#E0B11A"/>
<path d="M26.9956 15.1548C27.5094 16.3109 27.6379 17.467 27.2525 18.623C27.1241 18.8799 26.8672 19.0084 26.6103 19.2653C26.4818 18.2377 26.2249 17.3385 25.968 16.4394C25.968 16.3109 26.0965 16.054 26.2249 15.9256C26.4818 15.7971 26.7387 15.5402 26.9956 15.1548Z" fill="#E0B11A"/>
</g>
<defs>
<filter id="filter0_b_2993_1662" x="-10" y="-10" width="76" height="76" filterUnits="userSpaceOnUse" color-interpolation-filters="sRGB">
<feFlood flood-opacity="0" result="BackgroundImageFix"/>
<feGaussianBlur in="BackgroundImageFix" stdDeviation="5"/>
<feComposite in2="SourceAlpha" operator="in" result="effect1_backgroundBlur_2993_1662"/>
<feBlend mode="normal" in="SourceGraphic" in2="effect1_backgroundBlur_2993_1662" result="shape"/>
</filter>
</defs>
</svg>
