<svg width="56" height="56" viewBox="0 0 56 56" fill="none" xmlns="http://www.w3.org/2000/svg">
<g filter="url(#filter0_b_2993_1237)">
<rect width="56" height="56" rx="28" fill="black" fill-opacity="0.1"/>
<path fill-rule="evenodd" clip-rule="evenodd" d="M26.3966 17.6202C24.0338 19.4768 22.2616 15.9325 24.962 14.9198C23.3587 16.1012 24.4557 18.1266 26.3966 17.6202Z" fill="#E0B11A"/>
<path fill-rule="evenodd" clip-rule="evenodd" d="M14.9198 32.2912C14.9198 31.7389 15.3675 31.2912 15.9198 31.2912H35.6793V21.8397L34.8354 21.0802H40.9957L40.1519 21.8397V31.2912V31.2912C40.6645 31.2912 41.0801 31.7068 41.0801 32.2194V40.3334C41.0801 40.8857 40.6324 41.3334 40.0801 41.3334H15.9198C15.3675 41.3334 14.9198 40.8856 14.9198 40.3334V32.2912ZM22.5991 35.8481H22.9367C22.8523 35.5106 22.9367 35.3418 23.1054 35.173C23.6118 34.6667 24.2025 34.4979 24.7088 33.9072C25.1308 34.4979 25.7215 34.6667 26.2278 35.173C26.3966 35.3418 26.481 35.5106 26.3966 35.8481H26.7341V40.827H22.5991V35.8481Z" fill="#E0B11A"/>
<path d="M40.1949 19.1393H35.6794V20.7458H40.1949V19.1393Z" fill="#E0B11A"/>
<path d="M37.9577 14.6667C37.1982 15.6793 36.27 15.9325 35.4261 16.692C35.0042 17.1139 34.9198 17.6203 35.9324 18.8017C37.2826 18.8017 38.6329 18.8017 39.8987 18.8017C40.9957 17.6203 40.9113 17.1139 40.405 16.692C39.5611 15.9325 38.6329 15.6793 37.9577 14.6667Z" fill="#E0B11A"/>
<path d="M24.7088 18.2954C22.2615 21.249 19.0548 22.0085 16.3544 24.2026C14.751 25.5528 14.4978 27.2406 17.9577 30.7005C22.4303 30.7005 26.9029 30.7005 31.3755 30.7005C34.9198 27.2406 34.5822 25.5528 33.0632 24.2026C30.3628 22.0085 27.0717 21.249 24.7088 18.2954Z" fill="#E0B11A"/>
</g>
<defs>
<filter id="filter0_b_2993_1237" x="-10" y="-10" width="76" height="76" filterUnits="userSpaceOnUse" color-interpolation-filters="sRGB">
<feFlood flood-opacity="0" result="BackgroundImageFix"/>
<feGaussianBlur in="BackgroundImageFix" stdDeviation="5"/>
<feComposite in2="SourceAlpha" operator="in" result="effect1_backgroundBlur_2993_1237"/>
<feBlend mode="normal" in="SourceGraphic" in2="effect1_backgroundBlur_2993_1237" result="shape"/>
</filter>
</defs>
</svg>
