<svg width="36" height="37" viewBox="0 0 36 37" fill="none" xmlns="http://www.w3.org/2000/svg">
<path fill-rule="evenodd" clip-rule="evenodd" d="M16.1962 6.82277C13.538 8.91137 11.5443 4.92403 14.5823 3.78479C12.7785 5.1139 14.0127 7.39239 16.1962 6.82277Z" fill="white"/>
<path fill-rule="evenodd" clip-rule="evenodd" d="M3.28477 23.2026C3.28477 22.6503 3.73248 22.2026 4.28477 22.2026H26.6392V11.5696L25.6898 10.7152H32.6202L31.6708 11.5696V22.2026H31.7151C32.2674 22.2026 32.7151 22.6503 32.7151 23.2026V32.5C32.7151 33.0523 32.2674 33.5 31.7151 33.5H4.28477C3.73248 33.5 3.28477 33.0523 3.28477 32.5V23.2026ZM11.924 27.3291H12.3038C12.2088 26.9494 12.3038 26.7595 12.4936 26.5696C13.0632 26 13.7278 25.8101 14.2974 25.1456C14.7721 25.8101 15.4367 26 16.0063 26.5696C16.1962 26.7595 16.2911 26.9494 16.1962 27.3291H16.5759V32.9304H11.924V27.3291Z" fill="white"/>
<path d="M31.7192 8.53162H26.6393V10.3389H31.7192V8.53162Z" fill="white"/>
<path d="M29.2025 3.5C28.348 4.63924 27.3037 4.92405 26.3544 5.77848C25.8797 6.25316 25.7847 6.82278 26.924 8.1519C28.443 8.1519 29.962 8.1519 31.386 8.1519C32.6202 6.82278 32.5253 6.25316 31.9556 5.77848C31.0063 4.92405 29.962 4.63924 29.2025 3.5Z" fill="white"/>
<path d="M14.2974 7.58228C11.5442 10.9051 7.93663 11.7595 4.89865 14.2278C3.09485 15.7468 2.81004 17.6456 6.70245 21.538C11.7341 21.538 16.7657 21.538 21.7974 21.538C25.7847 17.6456 25.405 15.7468 23.6961 14.2278C20.6581 11.7595 16.9556 10.9051 14.2974 7.58228Z" fill="white"/>
</svg>
