<svg width="56" height="56" viewBox="0 0 56 56" fill="none" xmlns="http://www.w3.org/2000/svg">
<g filter="url(#filter0_b_2993_1513)">
<rect width="56" height="56" rx="28" fill="black" fill-opacity="0.1"/>
<path d="M38.6666 16H37.3333V14.6666C37.3333 13.9303 36.7364 13.3333 36 13.3333V13.3333C35.2636 13.3333 34.6666 13.9303 34.6666 14.6666V16H21.3333V14.6666C21.3333 13.9303 20.7364 13.3333 20 13.3333V13.3333C19.2636 13.3333 18.6666 13.9303 18.6666 14.6666V16H17.3333C15.8666 16 14.6666 17.2 14.6666 18.6666V40C14.6666 41.4666 15.8666 42.6666 17.3333 42.6666H38.6666C40.1333 42.6666 41.3333 41.4666 41.3333 40V18.6666C41.3333 17.2 40.1333 16 38.6666 16ZM38.6666 40H17.3333V22.6666H38.6666V40Z" fill="#E0B11A"/>
<path d="M33.029 33.2205C33.1435 32.9477 32.8162 32.7153 32.5417 32.8365C31.993 33.0774 31.4001 33.2013 30.8008 33.2003C28.4513 33.2003 26.5471 31.3342 26.5471 29.0319C26.5462 28.2546 26.7671 27.4931 27.1837 26.8368C27.3431 26.5853 27.1517 26.2372 26.8598 26.3113C24.6091 26.8857 22.9474 28.891 22.9474 31.2764C22.9474 34.1098 25.2912 36.4065 28.183 36.4065C30.3725 36.4065 32.2475 35.09 33.029 33.2205Z" fill="#E0B11A"/>
<path d="M30.0273 26.359C29.7297 26.1603 29.3749 26.5151 29.5731 26.8127L29.9268 27.3432C30.0703 27.5583 30.1468 27.8111 30.1468 28.0696C30.1468 28.3282 30.0703 28.581 29.9268 28.7961L29.5731 29.3266C29.3749 29.6242 29.7303 29.979 30.0278 29.7802L30.5578 29.4265C30.7729 29.2831 31.0257 29.2065 31.2843 29.2065C31.5428 29.2065 31.7956 29.2831 32.0107 29.4265L32.5412 29.7802C32.8388 29.979 33.1936 29.6242 32.9948 29.3266L32.6412 28.7961C32.4977 28.581 32.4211 28.3282 32.4211 28.0696C32.4211 27.8111 32.4977 27.5583 32.6412 27.3432L32.9948 26.8127C33.1936 26.5151 32.8388 26.1603 32.5407 26.359L32.0107 26.7127C31.7956 26.8562 31.5428 26.9328 31.2843 26.9328C31.0257 26.9328 30.7729 26.8562 30.5578 26.7127L30.0273 26.359V26.359Z" fill="#E0B11A"/>
</g>
<defs>
<filter id="filter0_b_2993_1513" x="-10" y="-10" width="76" height="76" filterUnits="userSpaceOnUse" color-interpolation-filters="sRGB">
<feFlood flood-opacity="0" result="BackgroundImageFix"/>
<feGaussianBlur in="BackgroundImageFix" stdDeviation="5"/>
<feComposite in2="SourceAlpha" operator="in" result="effect1_backgroundBlur_2993_1513"/>
<feBlend mode="normal" in="SourceGraphic" in2="effect1_backgroundBlur_2993_1513" result="shape"/>
</filter>
</defs>
</svg>
