<svg width="56" height="56" viewBox="0 0 56 56" fill="none" xmlns="http://www.w3.org/2000/svg">
<g filter="url(#filter0_b_2993_1093)">
<rect width="56" height="56" rx="28" fill="black" fill-opacity="0.1"/>
<path fill-rule="evenodd" clip-rule="evenodd" d="M29.9245 16.6728C30.2807 16.8546 30.6727 17.1245 30.7957 17.2727C30.9951 17.5129 31.0815 17.4872 31.5952 17.0364C32.929 15.8652 35.1432 16.3017 35.9566 17.8962C36.7412 19.4342 36.165 21.2906 34.394 22.9301C33.3353 23.9104 31.5012 25.0885 31.034 25.0885C30.5864 25.0885 28.7904 23.9086 27.6968 22.8963C25.1682 20.5552 25.1026 17.6769 27.5532 16.6138C28.368 16.2605 29.1546 16.2801 29.9245 16.6728ZM31.3086 26.7114C32.1345 27.1384 32.2799 28.261 31.5979 28.943C31.1397 29.4013 30.6447 29.5506 28.0818 30.0039L26.3001 30.3191L27.8815 31.3052L29.4626 32.2913H31.3016H33.1405L35.6177 30.5468C36.9803 29.5875 38.3507 28.6268 38.6631 28.4121C40.2812 27.3003 42.4434 28.0684 41.9203 29.5692C41.6864 30.24 35.479 35.9167 34.6111 36.2532C34.3927 36.3379 31.6413 36.4072 28.4969 36.4072H22.7798L21.0814 38.0223L20.1037 38.9517C19.7049 39.3309 19.0747 39.3166 18.6935 38.9197L16.6914 36.8354C15.8573 35.9671 15.1087 35.1595 14.614 34.6199C14.2647 34.2388 14.2696 33.6555 14.6295 33.2843C14.9505 32.9534 15.3691 32.5295 15.8256 32.0874C16.8297 31.1148 18.3472 29.5088 19.198 28.5184C20.0488 27.528 20.8286 26.661 20.931 26.5917C21.0333 26.5224 23.301 26.4646 25.9703 26.4631C29.8982 26.461 30.916 26.5083 31.3086 26.7114Z" fill="#E0B11A"/>
</g>
<defs>
<filter id="filter0_b_2993_1093" x="-10" y="-10" width="76" height="76" filterUnits="userSpaceOnUse" color-interpolation-filters="sRGB">
<feFlood flood-opacity="0" result="BackgroundImageFix"/>
<feGaussianBlur in="BackgroundImageFix" stdDeviation="5"/>
<feComposite in2="SourceAlpha" operator="in" result="effect1_backgroundBlur_2993_1093"/>
<feBlend mode="normal" in="SourceGraphic" in2="effect1_backgroundBlur_2993_1093" result="shape"/>
</filter>
</defs>
</svg>
