<svg width="41" height="40" viewBox="0 0 41 40" fill="none" xmlns="http://www.w3.org/2000/svg">
<path fill-rule="evenodd" clip-rule="evenodd" d="M17.0532 1.41799L14.1427 2.83183V4.32326V5.81469L13.0877 4.76183L12.0325 3.70889L8.91209 4.748L5.79156 5.78703L4.75253 8.90757L3.71342 12.028L4.76636 13.0831L5.81922 14.1382H4.32779H2.83636L1.41822 17.0682L0 19.9983L1.41822 22.9283L2.83636 25.8584H4.32779H5.81922L4.76636 26.9134L3.71342 27.9685L4.75253 31.089L5.79156 34.2095L8.91209 35.2486L12.0325 36.2877L13.0877 35.2347L14.1427 34.1819V35.6737V37.1655L17.0746 38.5827L20.0064 40L22.9151 38.5965L25.8238 37.1932L25.8451 35.6892L25.8664 34.1853L26.9197 35.2365L27.9731 36.2877L31.0935 35.2486L34.2141 34.2095L35.2531 31.089L36.2922 27.9685L35.2393 26.9134L34.1864 25.8584H35.6778H37.1693L38.5874 22.9283L40.0056 19.9983L38.5874 17.0682L37.1693 14.1382H35.6778H34.1864L35.2393 13.0831L36.2922 12.028L35.2531 8.90757L34.2141 5.78703L31.0935 4.748L27.9731 3.70889L26.9197 4.76003L25.8664 5.81125L25.8451 4.30787L25.8238 2.80449L22.9176 1.40018C21.3192 0.627816 20.0007 -0.00225981 19.9876 6.09244e-06C19.9744 0.00227199 18.6541 0.640396 17.0532 1.41799ZM21.7999 3.46824L23.4798 4.27966L23.5004 6.22029L23.521 8.16091L21.7619 9.91831L20.0028 11.6756L18.2437 9.91831L16.4846 8.16091L16.5052 6.22505L16.5258 4.2892L18.2057 3.47332C19.1297 3.02459 19.9383 2.65736 20.0028 2.6572C20.0673 2.65705 20.876 3.02201 21.7999 3.46824ZM12.7551 7.78899L14.1427 9.17502V11.6566V14.1382H11.6612H9.17954L7.79321 12.7502L6.40687 11.3622L6.99045 9.60531C7.31151 8.63902 7.6042 7.79774 7.64092 7.73586C7.68921 7.65452 11.0073 6.46086 11.3291 6.40906C11.3501 6.40562 11.9918 7.02664 12.7551 7.78899ZM30.5119 7.02585C31.4573 7.33808 32.2705 7.63335 32.319 7.68195C32.3675 7.73047 32.6752 8.57854 33.0028 9.5664L33.5984 11.3626L32.2122 12.7504L30.8261 14.1382H28.3444H25.8629V11.6582V9.17822L27.2498 7.7897C28.0125 7.02601 28.6718 6.41398 28.7148 6.42961C28.7578 6.44524 29.5665 6.71355 30.5119 7.02585ZM9.92346 18.2403L11.6802 19.9983L9.92346 21.7563L8.16677 23.5143H6.23669H4.30661L3.63294 22.1274C3.26235 21.3647 2.88683 20.5736 2.79846 20.3694L2.63774 19.9983L2.79846 19.6271C2.88683 19.423 3.26235 18.6319 3.63294 17.8691L4.30661 16.4822H6.23669H8.16677L9.92346 18.2403ZM36.5328 18.2012C36.9791 19.1251 37.3442 19.9338 37.3442 19.9983C37.3442 20.0627 36.9791 20.8714 36.5328 21.7954L35.7214 23.4753L33.7808 23.4959L31.8402 23.5165L30.0828 21.7574L28.3255 19.9983L30.0828 18.2392L31.8402 16.48L33.7808 16.5007L35.7214 16.5213L36.5328 18.2012ZM14.1427 28.3399V30.8215L12.7549 32.2077L11.3672 33.5939L9.57092 32.9983C8.58307 32.6707 7.73507 32.363 7.68663 32.3145C7.63811 32.266 7.33042 31.418 7.0028 30.4302L6.40718 28.6339L7.79336 27.2462L9.17954 25.8584H11.6612H14.1427V28.3399ZM32.2122 27.2462L33.5984 28.6339L33.0028 30.4302C32.6752 31.418 32.3675 32.266 32.319 32.3145C32.2705 32.363 31.4225 32.6707 30.4347 32.9983L28.6385 33.5939L27.2507 32.2077L25.8629 30.8215V28.3399V25.8584H28.3444H30.8261L32.2122 27.2462ZM21.7824 30.0992L23.5217 31.8397L23.5007 33.7783L23.4798 35.7169L21.7999 36.5283C20.876 36.9746 20.0673 37.3395 20.0028 37.3394C19.9383 37.3392 19.1297 36.972 18.2057 36.5232L16.5258 35.7074L16.5049 33.7735L16.4839 31.8397L18.2232 30.0992C19.1798 29.1419 19.9806 28.3587 20.0028 28.3587C20.025 28.3587 20.8258 29.1419 21.7824 30.0992Z" fill="#0A77B5"/>
<path opacity="0.9" fill-rule="evenodd" clip-rule="evenodd" d="M17.0532 1.41799L14.1427 2.83184V4.32326V5.81469L13.0877 4.76183L12.0325 3.70889L8.91209 4.748L5.79156 5.78703L4.75253 8.90757L3.71342 12.028L4.76636 13.0832L5.81922 14.1382H4.32779H2.83636L1.41822 17.0682L0 19.9983L1.41822 22.9283L2.83636 25.8584H4.32779H5.81922L4.76636 26.9134L3.71342 27.9685L4.75253 31.089L5.79156 34.2095L8.91209 35.2486L12.0325 36.2877L13.0877 35.2347L14.1427 34.1819V35.6737V37.1655L17.0746 38.5827L20.0064 40L22.9151 38.5965L25.8238 37.1932L25.8451 35.6892L25.8664 34.1853L26.9197 35.2365L27.9731 36.2877L31.0935 35.2486L34.2141 34.2095L35.2531 31.089L36.2922 27.9685L35.2393 26.9134L34.1864 25.8584H35.6778H37.1693L38.5874 22.9283L40.0056 19.9983L38.5874 17.0682L37.1693 14.1382H35.6778H34.1864L35.2393 13.0832L36.2922 12.028L35.2531 8.90757L34.2141 5.78703L31.0935 4.748L27.9731 3.70889L26.9197 4.76004L25.8664 5.81125L25.8451 4.30787L25.8238 2.80449L22.9176 1.40018C21.3192 0.62782 20.0007 -0.00225981 19.9876 6.09241e-06C19.9744 0.00227199 18.6541 0.640397 17.0532 1.41799Z" fill="#1089CE"/>
</svg>
