<svg width="336" height="32" viewBox="0 0 336 32" fill="none" xmlns="http://www.w3.org/2000/svg">
<rect width="336" height="32" rx="4" fill="white" fill-opacity="0.7"/>
<path d="M76.5568 20V11.2727H79.5057C80.1903 11.2727 80.75 11.3963 81.1847 11.6435C81.6222 11.8878 81.946 12.2188 82.1562 12.6364C82.3665 13.054 82.4716 13.5199 82.4716 14.0341C82.4716 14.5483 82.3665 15.0156 82.1562 15.4361C81.9489 15.8565 81.6278 16.1918 81.1932 16.4418C80.7585 16.6889 80.2017 16.8125 79.5227 16.8125H77.4091V15.875H79.4886C79.9574 15.875 80.3338 15.794 80.6179 15.6321C80.902 15.4702 81.108 15.2514 81.2358 14.9759C81.3665 14.6974 81.4318 14.3835 81.4318 14.0341C81.4318 13.6847 81.3665 13.3722 81.2358 13.0966C81.108 12.821 80.9006 12.6051 80.6136 12.4489C80.3267 12.2898 79.946 12.2102 79.4716 12.2102H77.6136V20H76.5568ZM86.6024 20.1364C86.0115 20.1364 85.493 19.9957 85.047 19.7145C84.6038 19.4332 84.2572 19.0398 84.0072 18.5341C83.7601 18.0284 83.6365 17.4375 83.6365 16.7614C83.6365 16.0795 83.7601 15.4844 84.0072 14.9759C84.2572 14.4673 84.6038 14.0724 85.047 13.7912C85.493 13.5099 86.0115 13.3693 86.6024 13.3693C87.1933 13.3693 87.7104 13.5099 88.1536 13.7912C88.5996 14.0724 88.9462 14.4673 89.1933 14.9759C89.4433 15.4844 89.5683 16.0795 89.5683 16.7614C89.5683 17.4375 89.4433 18.0284 89.1933 18.5341C88.9462 19.0398 88.5996 19.4332 88.1536 19.7145C87.7104 19.9957 87.1933 20.1364 86.6024 20.1364ZM86.6024 19.233C87.0513 19.233 87.4206 19.1179 87.7104 18.8878C88.0001 18.6577 88.2146 18.3551 88.3538 17.9801C88.493 17.6051 88.5626 17.1989 88.5626 16.7614C88.5626 16.3239 88.493 15.9162 88.3538 15.5384C88.2146 15.1605 88.0001 14.8551 87.7104 14.6222C87.4206 14.3892 87.0513 14.2727 86.6024 14.2727C86.1536 14.2727 85.7842 14.3892 85.4945 14.6222C85.2047 14.8551 84.9902 15.1605 84.851 15.5384C84.7118 15.9162 84.6422 16.3239 84.6422 16.7614C84.6422 17.1989 84.7118 17.6051 84.851 17.9801C84.9902 18.3551 85.2047 18.6577 85.4945 18.8878C85.7842 19.1179 86.1536 19.233 86.6024 19.233ZM92.3398 20L90.3455 13.4545H91.4023L92.8171 18.4659H92.8852L94.283 13.4545H95.3568L96.7375 18.4489H96.8057L98.2205 13.4545H99.2773L97.283 20H96.2943L94.8625 14.9716H94.7602L93.3284 20H92.3398ZM103.104 20.1364C102.474 20.1364 101.93 19.9972 101.472 19.7188C101.018 19.4375 100.667 19.0455 100.42 18.5426C100.176 18.0369 100.053 17.4489 100.053 16.7784C100.053 16.108 100.176 15.517 100.42 15.0057C100.667 14.4915 101.011 14.0909 101.451 13.804C101.894 13.5142 102.411 13.3693 103.002 13.3693C103.343 13.3693 103.68 13.4261 104.012 13.5398C104.345 13.6534 104.647 13.8381 104.92 14.0938C105.193 14.3466 105.41 14.6818 105.572 15.0994C105.734 15.517 105.815 16.0312 105.815 16.642V17.0682H100.769V16.1989H104.792C104.792 15.8295 104.718 15.5 104.57 15.2102C104.426 14.9205 104.218 14.6918 103.948 14.5241C103.681 14.3565 103.366 14.2727 103.002 14.2727C102.602 14.2727 102.255 14.3722 101.962 14.571C101.673 14.767 101.45 15.0227 101.293 15.3381C101.137 15.6534 101.059 15.9915 101.059 16.3523V16.9318C101.059 17.4261 101.144 17.8452 101.315 18.1889C101.488 18.5298 101.728 18.7898 102.035 18.9688C102.342 19.1449 102.698 19.233 103.104 19.233C103.369 19.233 103.607 19.196 103.82 19.1222C104.036 19.0455 104.222 18.9318 104.379 18.7812C104.535 18.6278 104.656 18.4375 104.741 18.2102L105.712 18.483C105.61 18.8125 105.438 19.1023 105.197 19.3523C104.955 19.5994 104.657 19.7926 104.302 19.9318C103.947 20.0682 103.548 20.1364 103.104 20.1364ZM107.321 20V13.4545H108.292V14.4432H108.36C108.48 14.1193 108.696 13.8565 109.008 13.6548C109.321 13.4531 109.673 13.3523 110.065 13.3523C110.139 13.3523 110.231 13.3537 110.342 13.3565C110.453 13.3594 110.536 13.3636 110.593 13.3693V14.392C110.559 14.3835 110.481 14.3707 110.359 14.3537C110.24 14.3338 110.113 14.3239 109.98 14.3239C109.661 14.3239 109.377 14.3906 109.127 14.5241C108.88 14.6548 108.684 14.8366 108.539 15.0696C108.397 15.2997 108.326 15.5625 108.326 15.858V20H107.321ZM114.306 20.1364C113.676 20.1364 113.132 19.9972 112.674 19.7188C112.22 19.4375 111.869 19.0455 111.622 18.5426C111.378 18.0369 111.255 17.4489 111.255 16.7784C111.255 16.108 111.378 15.517 111.622 15.0057C111.869 14.4915 112.213 14.0909 112.653 13.804C113.096 13.5142 113.613 13.3693 114.204 13.3693C114.545 13.3693 114.882 13.4261 115.214 13.5398C115.547 13.6534 115.849 13.8381 116.122 14.0938C116.395 14.3466 116.612 14.6818 116.774 15.0994C116.936 15.517 117.017 16.0312 117.017 16.642V17.0682H111.971V16.1989H115.994C115.994 15.8295 115.92 15.5 115.772 15.2102C115.628 14.9205 115.42 14.6918 115.15 14.5241C114.883 14.3565 114.568 14.2727 114.204 14.2727C113.804 14.2727 113.457 14.3722 113.164 14.571C112.875 14.767 112.652 15.0227 112.495 15.3381C112.339 15.6534 112.261 15.9915 112.261 16.3523V16.9318C112.261 17.4261 112.346 17.8452 112.517 18.1889C112.69 18.5298 112.93 18.7898 113.237 18.9688C113.544 19.1449 113.9 19.233 114.306 19.233C114.571 19.233 114.809 19.196 115.022 19.1222C115.238 19.0455 115.424 18.9318 115.581 18.7812C115.737 18.6278 115.858 18.4375 115.943 18.2102L116.914 18.483C116.812 18.8125 116.64 19.1023 116.399 19.3523C116.157 19.5994 115.859 19.7926 115.504 19.9318C115.149 20.0682 114.75 20.1364 114.306 20.1364ZM120.994 20.1364C120.449 20.1364 119.967 19.9986 119.55 19.723C119.132 19.4446 118.805 19.0526 118.569 18.5469C118.334 18.0384 118.216 17.4375 118.216 16.7443C118.216 16.0568 118.334 15.4602 118.569 14.9545C118.805 14.4489 119.133 14.0582 119.554 13.7827C119.974 13.5071 120.46 13.3693 121.011 13.3693C121.437 13.3693 121.774 13.4403 122.021 13.5824C122.271 13.7216 122.461 13.8807 122.592 14.0597C122.726 14.2358 122.829 14.3807 122.903 14.4943H122.988V11.2727H123.994V20H123.023V18.9943H122.903C122.829 19.1136 122.724 19.2642 122.588 19.446C122.452 19.625 122.257 19.7855 122.004 19.9276C121.751 20.0668 121.415 20.1364 120.994 20.1364ZM121.131 19.233C121.534 19.233 121.875 19.1278 122.153 18.9176C122.432 18.7045 122.643 18.4105 122.788 18.0355C122.933 17.6577 123.006 17.2216 123.006 16.7273C123.006 16.2386 122.934 15.8111 122.792 15.4446C122.65 15.0753 122.44 14.7884 122.162 14.5838C121.883 14.3764 121.54 14.2727 121.131 14.2727C120.704 14.2727 120.349 14.3821 120.065 14.6009C119.784 14.8168 119.572 15.1108 119.43 15.483C119.291 15.8523 119.221 16.267 119.221 16.7273C119.221 17.1932 119.292 17.6165 119.434 17.9972C119.579 18.375 119.792 18.6761 120.074 18.9006C120.358 19.1222 120.71 19.233 121.131 19.233ZM129.439 20V11.2727H130.445V14.4943H130.53C130.604 14.3807 130.706 14.2358 130.837 14.0597C130.97 13.8807 131.161 13.7216 131.408 13.5824C131.658 13.4403 131.996 13.3693 132.422 13.3693C132.973 13.3693 133.459 13.5071 133.879 13.7827C134.3 14.0582 134.628 14.4489 134.864 14.9545C135.1 15.4602 135.217 16.0568 135.217 16.7443C135.217 17.4375 135.1 18.0384 134.864 18.5469C134.628 19.0526 134.301 19.4446 133.884 19.723C133.466 19.9986 132.984 20.1364 132.439 20.1364C132.019 20.1364 131.682 20.0668 131.429 19.9276C131.176 19.7855 130.982 19.625 130.845 19.446C130.709 19.2642 130.604 19.1136 130.53 18.9943H130.411V20H129.439ZM130.428 16.7273C130.428 17.2216 130.5 17.6577 130.645 18.0355C130.79 18.4105 131.002 18.7045 131.28 18.9176C131.558 19.1278 131.899 19.233 132.303 19.233C132.723 19.233 133.074 19.1222 133.355 18.9006C133.639 18.6761 133.852 18.375 133.994 17.9972C134.139 17.6165 134.212 17.1932 134.212 16.7273C134.212 16.267 134.141 15.8523 133.999 15.483C133.859 15.1108 133.648 14.8168 133.364 14.6009C133.083 14.3821 132.729 14.2727 132.303 14.2727C131.894 14.2727 131.55 14.3764 131.271 14.5838C130.993 14.7884 130.783 15.0753 130.641 15.4446C130.499 15.8111 130.428 16.2386 130.428 16.7273ZM137.145 22.4545C136.975 22.4545 136.823 22.4403 136.689 22.4119C136.556 22.3864 136.463 22.3608 136.412 22.3352L136.668 21.4489C136.912 21.5114 137.128 21.5341 137.316 21.517C137.503 21.5 137.669 21.4162 137.814 21.2656C137.962 21.1179 138.097 20.8778 138.219 20.5455L138.407 20.0341L135.986 13.4545H137.077L138.884 18.6705H138.952L140.759 13.4545H141.85L139.071 20.9545C138.946 21.2926 138.791 21.5724 138.607 21.794C138.422 22.0185 138.208 22.1847 137.963 22.2926C137.722 22.4006 137.449 22.4545 137.145 22.4545Z" fill="#555555"/>
<path d="M150 20.7H158.9C159.2 20.7 159.438 20.475 159.438 20.1875V14.075H151.975C151.675 14.075 151.438 14.2875 151.438 14.575V17.3125C151.438 17.5875 151.675 17.8125 151.975 17.8125H158.825V19.125H151.975C150.888 19.1125 150 18.3 150 17.3125V14.575C150 13.5875 150.888 12.775 151.975 12.775H160.875V20.2C160.875 21.1875 159.987 22 158.9 22H150V20.7Z" fill="black"/>
<path d="M162.2 17.3125V16.7125C162.2 15.725 163.087 14.9125 164.162 14.9125H171V16.2125H164.162C163.862 16.2125 163.625 16.4375 163.625 16.725V17.325C163.625 17.6 163.862 17.825 164.162 17.825H171.625V14.575C171.625 14.3 171.387 14.075 171.087 14.075H162.525V12.7625H171.087C172.175 12.7625 173.05 13.575 173.05 14.5625V19.1H164.162C163.087 19.1125 162.2 18.3 162.2 17.3125Z" fill="black"/>
<path d="M181.812 15.5625L185.825 19.1125H183.8L180.775 16.425C180.7 16.3625 180.612 16.3 180.5 16.25C180.412 16.2125 180.287 16.2 180.175 16.2H175.875V19.1H174.462V10H175.875V14.9H180.175C180.4 14.9 180.512 14.85 180.512 14.85C180.612 14.8125 180.675 14.7625 180.775 14.6875L183 12.7625H185.025L181.812 15.5625Z" fill="black"/>
<path d="M193.9 15.5625L197.913 19.1125H195.888L192.863 16.425C192.788 16.3625 192.7 16.3 192.588 16.25C192.5 16.2125 192.375 16.2 192.263 16.2H187.963V19.1H186.55V10H187.963V14.9H192.25C192.475 14.9 192.588 14.85 192.588 14.85C192.688 14.8125 192.75 14.7625 192.85 14.6875L195.088 12.775H197.113L193.9 15.5625Z" fill="black"/>
<path d="M217.175 14.575C217.175 14.3 216.925 14.075 216.613 14.075H212.2C211.9 14.075 211.638 14.2875 211.638 14.575V19.1125H210.225V14.575C210.225 14.3 209.975 14.075 209.663 14.075H204.713V19.1125H203.288V12.7625H209.675C209.988 12.7625 210.3 12.8375 210.575 12.9625C210.713 13.025 210.825 13.1 210.95 13.175C211.05 13.0875 211.175 13.0125 211.313 12.9625C211.588 12.825 211.9 12.7625 212.213 12.7625H216.625C217.713 12.7625 218.6 13.575 218.6 14.5625V19.1H217.188V14.575H217.175Z" fill="#FF870B"/>
<path d="M219.913 17.3125V14.575C219.913 13.5875 220.8 12.775 221.888 12.775H228.825C229.913 12.775 230.8 13.5875 230.8 14.575V16.6H221.963V15.2875H229.375V14.575C229.375 14.3 229.138 14.075 228.838 14.075H221.9C221.6 14.075 221.363 14.2875 221.363 14.575V17.3125C221.363 17.5875 221.6 17.8125 221.9 17.8125H230.813V19.125H221.9C220.8 19.1125 219.913 18.3 219.913 17.3125Z" fill="#FF870B"/>
<path d="M232.138 17.3125V14.575C232.138 13.5875 233.025 12.775 234.113 12.775H240.975V14.0875H234.113C233.813 14.0875 233.575 14.3 233.575 14.5875V17.325C233.575 17.6 233.813 17.825 234.113 17.825H241.6V10H243.025V19.1125H234.113C233.025 19.1125 232.138 18.3 232.138 17.3125Z" fill="#FF870B"/>
<path d="M244.35 10.7375H245.775V12.05H244.35V10.7375ZM244.35 12.725H245.775V19.075H244.35V12.725Z" fill="#FF870B"/>
<path d="M247.113 17.3125V16.7125C247.113 15.725 248 14.9125 249.088 14.9125H255.95V16.2125H249.088C248.788 16.2125 248.55 16.4375 248.55 16.725V17.325C248.55 17.6 248.788 17.825 249.088 17.825H256.575V14.575C256.575 14.3 256.338 14.075 256.038 14.075H247.438V12.7625H256.038C257.125 12.7625 258.013 13.575 258.013 14.5625V19.1H249.1C248 19.1125 247.113 18.3 247.113 17.3125Z" fill="#FF870B"/>
</svg>
