<svg width="328" height="93" viewBox="0 0 328 93" fill="none" xmlns="http://www.w3.org/2000/svg">
<mask id="mask0_2903_7325" style="mask-type:alpha" maskUnits="userSpaceOnUse" x="0" y="0" width="328" height="93">
<path d="M328 46.438L327.104 45.8306C327.031 45.7754 319.058 40.2353 316.059 29.431C312.878 17.9457 306.825 10.6202 301.01 11.2276C297.865 11.5589 295.854 12.7369 294.683 13.7492L294.683 12.4608C294.683 10.3073 293.239 8.46671 291.191 7.98815C290.459 7.8225 289.71 7.73047 288.942 7.73047C288.174 7.73047 287.387 7.82251 286.638 8.00657C286.528 5.85308 285.614 3.84684 284.023 2.33756C282.432 0.828276 280.347 1.22544e-05 278.153 1.21585e-05L49.8469 1.02098e-05C47.6526 1.01139e-05 45.568 0.828274 43.9772 2.33756C42.3863 3.82843 41.472 5.85307 41.3623 8.00655C40.6126 7.8225 39.8446 7.73046 39.0583 7.73046C38.3086 7.73046 37.5406 7.82249 36.8092 7.98814C34.7429 8.4667 33.3166 10.3073 33.3166 12.4608L33.3166 13.7492C32.1463 12.7369 30.1349 11.5589 26.9897 11.2276C21.1749 10.6202 15.1223 17.9457 11.9406 29.431C8.94172 40.2721 0.987428 45.7754 0.896 45.8306L-2.02987e-06 46.438L0.895999 47.0454C0.969142 47.1006 8.94172 52.6408 11.9406 63.4451C15.1223 74.9303 21.1749 82.2559 26.9897 81.6485C30.1349 81.3172 32.1463 80.1392 33.3166 79.1269L33.3166 80.4153C33.3166 82.5688 34.7612 84.4094 36.8275 84.8879C37.5589 85.0536 38.3086 85.1456 39.0583 85.1456C39.8263 85.1456 40.6126 85.0536 41.3623 84.8695C41.472 87.023 42.3863 89.0292 43.9772 90.5385C45.568 92.0478 47.6526 92.8761 49.8469 92.8761L278.171 92.8761C280.366 92.8761 282.45 92.0478 284.041 90.5385C285.632 89.0477 286.546 87.023 286.656 84.8695C287.406 85.0536 288.174 85.1456 288.96 85.1456C289.71 85.1456 290.459 85.0536 291.191 84.8879C293.257 84.4094 294.702 82.5688 294.702 80.4153L294.702 79.1269C295.872 80.1392 297.883 81.3172 301.029 81.6485C306.843 82.2559 312.896 74.9303 316.078 63.4451C319.077 52.604 327.031 47.1007 327.122 47.0454L328 46.438Z" fill="#0A77B5"/>
</mask>
<g mask="url(#mask0_2903_7325)">
<path d="M328 46.438L327.104 45.8306C327.031 45.7754 319.058 40.2353 316.059 29.431C312.878 17.9457 306.825 10.6202 301.01 11.2276C297.865 11.5589 295.854 12.7369 294.683 13.7492L294.683 12.4608C294.683 10.3073 293.239 8.46671 291.191 7.98815C290.459 7.8225 289.71 7.73047 288.942 7.73047C288.174 7.73047 287.387 7.82251 286.638 8.00657C286.528 5.85308 285.614 3.84684 284.023 2.33756C282.432 0.828276 280.347 1.22544e-05 278.153 1.21585e-05L49.8469 1.02098e-05C47.6526 1.01139e-05 45.568 0.828274 43.9772 2.33756C42.3863 3.82843 41.472 5.85307 41.3623 8.00655C40.6126 7.8225 39.8446 7.73046 39.0583 7.73046C38.3086 7.73046 37.5406 7.82249 36.8092 7.98814C34.7429 8.4667 33.3166 10.3073 33.3166 12.4608L33.3166 13.7492C32.1463 12.7369 30.1349 11.5589 26.9897 11.2276C21.1749 10.6202 15.1223 17.9457 11.9406 29.431C8.94172 40.2721 0.987428 45.7754 0.896 45.8306L-2.02987e-06 46.438L0.895999 47.0454C0.969142 47.1006 8.94172 52.6408 11.9406 63.4451C15.1223 74.9303 21.1749 82.2559 26.9897 81.6485C30.1349 81.3172 32.1463 80.1392 33.3166 79.1269L33.3166 80.4153C33.3166 82.5688 34.7612 84.4094 36.8275 84.8879C37.5589 85.0536 38.3086 85.1456 39.0583 85.1456C39.8263 85.1456 40.6126 85.0536 41.3623 84.8695C41.472 87.023 42.3863 89.0292 43.9772 90.5385C45.568 92.0478 47.6526 92.8761 49.8469 92.8761L278.171 92.8761C280.366 92.8761 282.45 92.0478 284.041 90.5385C285.632 89.0477 286.546 87.023 286.656 84.8695C287.406 85.0536 288.174 85.1456 288.96 85.1456C289.71 85.1456 290.459 85.0536 291.191 84.8879C293.257 84.4094 294.702 82.5688 294.702 80.4153L294.702 79.1269C295.872 80.1392 297.883 81.3172 301.029 81.6485C306.843 82.2559 312.896 74.9304 316.078 63.4451C319.077 52.604 327.031 47.1007 327.122 47.0454L328 46.438Z" fill="#F5FAFE"/>
<path d="M-0.746582 -9.70626L329.32 -9.70625L329.32 102.993L-0.746587 102.993L-0.746582 -9.70626ZM57.8044 92.3543L58.6821 92.3543L269.909 92.3543L270.787 92.3543L276.931 92.3543C280.771 92.3543 284.008 89.1149 284.154 84.9736C284.154 84.8631 284.154 84.7527 284.154 84.6239C284.154 84.3877 284.398 84.2061 284.624 84.2751C285.363 84.5009 286.148 84.6239 286.97 84.6239C287.628 84.6239 288.287 84.5502 288.908 84.3846C290.517 83.9796 291.651 82.4152 291.651 80.6298L291.651 80.3905L291.651 79.4126C291.651 78.8942 292.544 78.585 292.935 78.9249C293.962 79.8162 295.67 80.8339 298.289 81.1267C303.226 81.6789 308.675 74.6847 311.583 63.4571C314.472 52.2295 322.152 46.6341 322.152 46.6341C322.152 46.6341 314.49 41.0387 311.583 29.8112C308.693 18.5836 303.226 11.5893 298.289 12.1415C295.67 12.4344 293.962 13.4521 292.935 14.3434C292.544 14.6832 291.651 14.374 291.651 13.8556L291.651 12.6385C291.651 10.8531 290.536 9.28861 288.927 8.88368C288.305 8.73643 287.665 8.6444 286.988 8.6444C286.178 8.6444 285.393 8.76819 284.643 8.99547C284.403 9.06795 284.172 8.89448 284.172 8.6444C284.172 8.53397 284.172 8.42353 284.172 8.29469C284.026 4.15337 280.789 0.913935 276.949 0.913934L270.805 0.913934L269.928 0.913934L58.6638 0.913925L57.7861 0.913925L51.6421 0.913925C47.8021 0.913924 44.5655 4.15336 44.4192 8.29468C44.4192 8.40512 44.4192 8.51555 44.4192 8.64439C44.4192 8.88053 44.1751 9.06219 43.9493 8.99316C43.2105 8.76735 42.4252 8.64439 41.6032 8.64439C40.9449 8.64439 40.2866 8.71802 39.6649 8.88367C38.0558 9.2886 36.9403 10.8531 36.9403 12.6385L36.9403 13.8556C36.9403 14.374 36.0476 14.6832 35.6561 14.3434C34.6293 13.4521 32.9211 12.4344 30.3026 12.1415C25.3654 11.5893 19.9163 18.5836 17.0089 29.8111C14.1197 41.0387 6.43971 46.6341 6.43971 46.6341C6.43971 46.6341 14.1014 52.2295 17.0089 63.4571C19.898 74.6847 25.3654 81.6789 30.3026 81.1267C32.9212 80.8339 34.6293 79.8161 35.6561 78.9248C36.0476 78.585 36.9403 78.8942 36.9403 79.4126L36.9403 80.3905L36.9403 80.6298C36.9403 82.4151 38.074 83.9796 39.6832 84.3846C40.3049 84.5318 40.9449 84.6238 41.6215 84.6238C42.4313 84.6238 43.2164 84.5001 43.967 84.2728C44.2063 84.2003 44.4375 84.3738 44.4375 84.6238C44.4375 84.7343 44.4375 84.8447 44.4375 84.9736C44.5838 89.1149 47.8203 92.3543 51.6603 92.3543L57.8044 92.3543Z" fill="#0072BB" fill-opacity="0.2"/>
<path d="M328 46.4381L327.104 45.8307C327.031 45.7754 319.058 40.2353 316.059 29.431C312.878 17.9457 306.825 10.6202 301.01 11.2276C297.865 11.5589 295.854 12.7369 294.683 13.7492L294.683 12.4608C294.683 10.3073 293.239 8.46672 291.191 7.98816C290.459 7.82251 289.71 7.73048 288.942 7.73048C288.174 7.73048 287.387 7.82251 286.638 8.00657C286.528 5.85308 285.614 3.84684 284.023 2.33756C282.432 0.828277 280.347 1.22544e-05 278.153 1.21585e-05L49.8469 1.02098e-05C47.6526 1.01139e-05 45.5681 0.828276 43.9772 2.33756C42.3863 3.82843 41.472 5.85307 41.3623 8.00656C40.6126 7.8225 39.8446 7.73047 39.0583 7.73047C38.3086 7.73047 37.5406 7.8225 36.8092 7.98815C34.7429 8.46671 33.3166 10.3073 33.3166 12.4608L33.3166 13.7492C32.1463 12.7369 30.1349 11.5589 26.9897 11.2276C21.1749 10.6202 15.1223 17.9457 11.9406 29.431C8.94172 40.2721 0.987428 45.7754 0.895999 45.8306L-2.02987e-06 46.438L0.895999 47.0454C0.969142 47.1006 8.94172 52.6408 11.9406 63.4451C15.1223 74.9303 21.1749 82.2559 26.9897 81.6485C30.1349 81.3172 32.1463 80.1392 33.3166 79.1269L33.3166 80.4153C33.3166 82.5688 34.7612 84.4094 36.8275 84.8879C37.5589 85.0536 38.3086 85.1456 39.0583 85.1456C39.8263 85.1456 40.6126 85.0536 41.3623 84.8695C41.472 87.023 42.3863 89.0292 43.9772 90.5385C45.5681 92.0478 47.6526 92.8761 49.8469 92.8761L278.171 92.8761C280.366 92.8761 282.45 92.0478 284.041 90.5385C285.632 89.0477 286.546 87.023 286.656 84.8695C287.406 85.0536 288.174 85.1456 288.96 85.1456C289.71 85.1456 290.459 85.0536 291.191 84.8879C293.257 84.4094 294.702 82.5688 294.702 80.4153L294.702 79.1269C295.872 80.1392 297.883 81.3172 301.029 81.6485C306.843 82.2559 312.896 74.9303 316.078 63.4451C319.077 52.604 327.031 47.1007 327.122 47.0454L328 46.4381ZM285.192 8.94441C285.167 9.46144 285.675 9.83823 286.162 9.6631C287.058 9.3502 288.009 9.18455 288.96 9.18455C289.6 9.18455 290.24 9.25817 290.88 9.40542C292.251 9.71832 293.239 11.0067 293.239 12.4424L293.239 15.6313C293.239 16.373 294.22 16.6366 294.592 15.9947C294.665 15.8843 296.347 13.1786 301.175 12.6817C306.167 12.1663 311.726 19.2158 314.651 29.8175C317.248 39.2045 323.264 44.6895 325.477 46.4381C323.282 48.1866 317.266 53.6716 314.651 63.0586C311.707 73.6603 306.167 80.7098 301.175 80.1944C296.347 79.6975 294.665 76.9918 294.592 76.863C294.213 76.2285 293.239 76.4974 293.239 77.2365L293.239 80.4153C293.239 81.851 292.251 83.1394 290.862 83.4523C290.24 83.5995 289.6 83.6731 288.96 83.6731C288.009 83.6731 287.077 83.5075 286.162 83.1946C285.675 83.0195 285.167 83.3962 285.192 83.9133L285.193 83.9308C285.211 84.2253 285.211 84.4646 285.193 84.7223C285.065 88.4034 281.902 91.4036 278.171 91.4036L49.8469 91.4036C46.1166 91.4036 42.9532 88.4034 42.8252 84.7223C42.8252 84.4646 42.8252 84.2253 42.8252 83.9308L42.8261 83.9133C42.8517 83.3962 42.3432 83.0195 41.856 83.1946C40.96 83.5075 40.0092 83.6731 39.0583 83.6731C38.4183 83.6731 37.7783 83.5995 37.1566 83.4523C35.7852 83.1394 34.7795 81.8509 34.7795 80.4153L34.7795 77.2264C34.7795 76.4847 33.7979 76.2211 33.4263 76.863C33.3532 76.9734 31.6709 79.6791 26.8435 80.176C21.8332 80.6914 16.2926 73.6419 13.3669 63.0401C10.7703 53.6531 4.75429 48.1682 2.54172 46.4196C4.736 44.6711 10.752 39.1861 13.3669 29.7991C16.3109 19.1973 21.8515 12.1479 26.8435 12.6632C31.6709 13.1602 33.3532 15.8659 33.4263 15.9947C33.8055 16.6292 34.7795 16.3603 34.7795 15.6211L34.7795 12.4424C34.7795 11.0067 35.7669 9.71831 37.1383 9.40541C37.76 9.25816 38.4 9.18453 39.0583 9.18453C40.0092 9.18453 40.9418 9.35019 41.8561 9.66309C42.3432 9.83822 42.8517 9.46143 42.8261 8.9444L42.8252 8.92686C42.8069 8.63236 42.8069 8.39308 42.8252 8.1354C42.9532 4.45423 46.1166 1.45408 49.8469 1.45408L278.171 1.45408C281.902 1.45408 285.065 4.45424 285.193 8.13541C285.211 8.39309 285.193 8.63237 285.193 8.92687L285.192 8.94441Z" fill="#0A77B5"/>
</g>
<path d="M253.071 25.713C252.392 25.6099 251.888 25.5578 251.558 25.5578C251.237 25.5578 250.812 25.874 250.285 26.5053C249.832 27.052 249.606 27.41 249.606 27.5802C249.614 27.6055 249.626 27.6293 249.641 27.6509C249.655 27.6694 249.676 27.6787 249.705 27.6787C249.714 27.6787 249.809 27.6057 249.988 27.4598C250.166 27.3138 250.336 27.2408 250.496 27.2408C251.618 27.2408 252.396 27.3497 252.829 27.5663C252.415 27.8675 251.737 28.1698 250.794 28.471C250.03 28.7154 249.657 28.8811 249.676 28.9656C249.704 29.0594 250.1 29.0745 250.863 29.0085C251.617 28.9424 252.136 28.8428 252.419 28.7119C252.778 28.5428 253.191 28.1745 253.663 27.6092C254.171 27.0057 254.426 26.5296 254.426 26.181C254.429 26.0095 253.976 25.8543 253.071 25.713ZM255.333 33.6303C255.305 33.6303 255.227 33.7808 255.1 34.0832C254.973 34.3843 254.777 34.5361 254.513 34.5361C254.126 34.5361 253.933 34.3009 253.933 33.8283C253.933 33.621 253.992 33.3314 254.11 32.9596C254.228 32.5878 254.286 32.3399 254.286 32.2171C254.286 32.1418 254.262 32.0955 254.214 32.0758C254.054 31.9912 253.842 32.297 253.578 32.9943C253.324 33.6546 253.197 34.1399 253.197 34.4504C253.197 34.7712 253.291 35.0828 253.479 35.3852C253.697 35.7141 253.955 35.8798 254.257 35.8798C254.653 35.8798 254.968 35.6724 255.204 35.2577C255.402 34.9091 255.501 34.5176 255.501 34.0843C255.502 33.7635 255.447 33.6117 255.333 33.6303ZM260.628 44.0855C260.011 43.7716 259.637 43.6129 259.503 43.6129C259.437 43.6129 259.264 43.9117 258.981 44.5106C258.698 45.1083 258.557 45.479 258.557 45.6203C258.557 45.6863 258.86 45.8925 259.469 46.2423C260.076 46.591 260.442 46.7647 260.564 46.7647C260.667 46.7647 260.859 46.4531 261.137 45.8311C261.413 45.2091 261.552 44.8129 261.552 44.6438C261.554 44.5882 261.244 44.4029 260.628 44.0855ZM263.18 48.0806C263.113 48.0516 262.114 48.4814 260.182 49.3664C258.212 50.271 257.115 50.8224 256.888 51.0216C256.699 51.1815 256.468 51.4398 256.194 51.7989C255.865 52.2228 255.699 52.5101 255.699 52.6618C255.699 52.6804 255.709 52.6931 255.727 52.7035C255.643 52.7035 256.613 52.2275 258.64 51.2753C259.705 50.7749 260.742 50.2954 261.75 49.8343C261.939 49.7115 262.222 49.4428 262.598 49.0281C263.005 48.5752 263.207 48.274 263.207 48.1235C263.209 48.1038 263.198 48.0899 263.18 48.0806ZM261.993 32.9515C260.749 30.5954 259.985 29.4174 259.701 29.4174C259.428 29.4174 259.291 30.0012 259.291 31.1711C259.291 31.5765 259.338 32.0804 259.433 32.6839C259.536 33.3152 259.625 33.6314 259.7 33.6314C259.842 33.6314 259.913 33.1646 259.913 32.2321C260.374 32.8449 261.021 33.9569 261.85 35.5693C262.764 37.3404 263.222 38.4675 263.222 38.9482C263.222 39.2783 262.977 39.444 262.486 39.444C262.137 39.444 261.713 39.3722 261.213 39.2309C260.648 39.0803 260.267 38.9065 260.069 38.7084C260.153 38.1432 260.116 37.8408 259.955 37.8038C259.823 37.776 259.616 38.1107 259.333 38.8069C259.05 39.5054 258.82 39.8529 258.64 39.8529C257.962 39.8529 257.401 39.6884 256.957 39.3583C257.136 38.7548 257.24 38.3968 257.269 38.2833C257.269 38.1698 257.236 38.0899 257.17 38.0424C257.048 38.0053 256.873 38.1744 256.647 38.5521C256.344 39.0594 256.053 39.4231 255.77 39.6397C255.384 39.9409 254.828 40.0927 254.102 40.0927C253.263 40.0927 252.812 40.0266 252.746 39.8934C252.887 39.81 253.02 39.6212 253.149 39.3282C253.275 39.0363 253.339 38.7965 253.339 38.6077C253.339 38.4941 253.306 38.4339 253.24 38.4246C253.156 38.405 253.022 38.5046 252.844 38.7212C252.623 38.9935 252.355 39.2235 252.052 39.4C250.996 40.0035 246.985 40.6857 240.019 41.4514C236.645 41.8174 232.356 42.1441 227.153 42.4267C221.564 42.7279 216.63 42.8796 212.351 42.8796C203.451 42.8796 195.021 42.4835 187.056 41.6923C183.614 41.3529 181.343 41.0703 180.24 40.8444C177.403 40.2699 175.442 39.378 174.358 38.1721C173.859 37.6161 173.492 37.3416 173.257 37.352C172.765 37.3717 172.267 37.8327 171.758 38.7374C171.286 39.5563 171.051 40.2409 171.051 40.7877C171.051 41.1653 171.268 41.551 171.702 41.9472C169.128 43.804 167.136 45.2079 165.721 46.1612C165.335 46.4161 165.161 46.5748 165.198 46.6419C165.207 46.6697 165.241 46.6836 165.298 46.6836C165.722 46.6836 166.655 46.3917 168.096 45.8079C169.538 45.2218 170.426 44.7793 170.755 44.4782C171.32 43.9604 171.8 43.2248 172.197 42.2727C172.508 42.4812 173.051 42.692 173.83 42.9098C174.607 43.1264 175.181 43.2248 175.547 43.2075C175.66 43.197 175.812 42.9098 175.999 42.3445C178.678 42.9862 182.508 43.5468 187.495 44.0264C190.88 44.3565 195.243 44.6345 200.588 44.8616C205.404 45.0689 209.298 45.1732 212.267 45.1732C215.755 45.1732 220.515 44.9843 226.547 44.6079C232.315 44.2488 236.972 43.8665 240.517 43.4623C246.115 42.8217 249.782 42.0827 251.517 41.2429C251.462 41.4074 251.429 41.5784 251.418 41.7514C251.418 42.129 252.134 42.3167 253.566 42.3167C254.555 42.3167 255.39 41.9205 256.069 41.1294C256.748 41.6773 257.496 41.9495 258.316 41.9495C258.777 41.9495 259.24 41.251 259.701 39.8564C259.947 40.0741 260.376 40.3568 260.987 40.7043C261.713 41.119 262.214 41.3263 262.486 41.3263C262.759 41.3263 263.057 41.119 263.378 40.7043C263.791 40.1575 264 39.4509 264 38.5833C264 37.3648 263.33 35.4871 261.993 32.9515ZM173.023 17.5119C172.896 17.3706 172.757 17.2999 172.607 17.2999C171.626 17.2999 170.792 18.0355 170.104 19.5054C169.942 19.4962 169.741 19.4324 169.497 19.3143C169.251 19.1961 169.073 19.1382 168.959 19.1382C168.592 19.1382 168.21 19.3931 167.815 19.9016C167.456 20.3638 167.276 20.7356 167.276 21.0182C167.276 21.1132 167.314 21.1595 167.39 21.1595C167.428 21.1595 167.576 21.0066 167.835 20.6997C168.095 20.3939 168.319 20.241 168.507 20.241C168.658 20.241 168.901 20.3232 169.236 20.4877C169.57 20.6533 169.888 20.7356 170.189 20.7356C170.982 20.7356 171.683 20.4668 172.296 19.9294C172.908 19.3919 173.215 18.7328 173.215 17.9498C173.208 17.7848 173.139 17.6284 173.023 17.5119ZM170.951 29.8703C170.576 28.1354 170.199 26.4009 169.82 24.667C169.528 23.2156 169.349 22.4905 169.282 22.4905C169.01 22.4905 168.872 23.4751 168.872 25.4454L169.734 29.2343C170.347 31.8731 170.728 33.65 170.88 34.5639L171.219 36.9536C171.341 37.7644 171.431 38.1698 171.487 38.1698C171.76 38.1698 171.897 37.2825 171.897 35.5114C171.9 34.6913 171.583 32.8102 170.951 29.8703ZM160.73 20.1993C160.544 20.6245 160.392 21.0642 160.277 21.514C161.295 22.6353 161.856 23.9222 161.96 25.3736C161.988 25.7975 162.031 26.0095 162.087 26.0095C162.295 26.0095 162.398 25.5056 162.398 24.4967C162.398 22.8947 161.842 21.4619 160.73 20.1993ZM163.642 27.4945C163.548 26.9107 163.424 26.6234 163.275 26.6316C163.153 26.6316 163.106 26.7914 163.134 27.1123C163.171 27.4899 163.162 27.725 163.106 27.8189C162.988 27.9244 162.84 27.989 162.682 28.003C162.494 28.0227 162.362 27.9752 162.286 27.8617C162.249 27.7957 162.22 27.5976 162.201 27.2675C162.192 27.0034 162.14 26.8713 162.046 26.8713C161.951 26.891 161.885 27.0555 161.848 27.3659C161.8 27.7714 161.759 28.0169 161.721 28.1015C161.599 28.3749 161.349 28.5393 160.972 28.5961C160.69 28.5961 160.515 28.4305 160.449 28.1015C160.449 27.9984 160.481 27.8443 160.547 27.6416C160.613 27.4389 160.646 27.2906 160.646 27.1968C160.646 27.1215 160.618 27.0694 160.561 27.0416C160.552 27.0323 160.537 27.0277 160.518 27.0277C160.405 27.0277 160.245 27.3057 160.038 27.8617C159.887 28.2579 159.83 28.5973 159.868 28.8799C159.953 29.5494 160.321 29.8506 160.971 29.7846C161.311 29.7568 161.655 29.5205 162.003 29.078C162.145 29.21 162.343 29.276 162.597 29.276C163.324 29.276 163.686 28.8417 163.686 27.9752C163.684 27.8141 163.669 27.6534 163.642 27.4945ZM151.595 17.1725C150.606 17.1725 149.762 17.9081 149.065 19.378C148.932 19.3595 148.741 19.2853 148.492 19.1591C148.242 19.0317 148.052 18.9679 147.919 18.9679C147.57 18.9679 147.194 19.2321 146.787 19.7603C146.42 20.241 146.236 20.6186 146.236 20.892C146.236 20.995 146.273 21.0472 146.349 21.0472C146.397 21.0472 146.552 20.892 146.815 20.5804C147.079 20.2688 147.31 20.1136 147.508 20.1136C147.65 20.1136 147.89 20.1888 148.229 20.3394C148.569 20.49 148.877 20.5665 149.149 20.5665C149.941 20.5665 150.634 20.3116 151.227 19.8031C151.858 19.2564 152.175 18.5961 152.175 17.8235C152.176 17.3903 151.982 17.1725 151.595 17.1725ZM167.573 36.6559L165.31 30.8027C165.244 30.6417 165.178 30.5618 165.112 30.5618C165.093 30.5711 165.065 30.6939 165.028 30.929C164.914 31.6263 164.859 32.0595 164.859 32.2298C164.859 32.6827 165.248 33.8538 166.025 35.7431C166.803 37.6335 167.193 38.7142 167.193 38.9888C167.193 39.1776 167.032 39.2714 166.712 39.2714C166.59 39.2904 166.468 39.2997 166.345 39.2992C166.004 39.3076 165.666 39.2351 165.359 39.0877C165.052 38.9403 164.784 38.7222 164.577 38.4513C164.247 38.0366 163.879 36.9941 163.474 35.3272C163.212 34.2014 162.953 33.0747 162.697 31.9472C162.556 31.3437 162.432 31.0425 162.33 31.0425C162 31.6646 161.834 32.2542 161.834 32.8102C161.834 32.9422 161.906 33.2816 162.047 33.8283C162.537 35.7327 162.783 36.964 162.783 37.5188C162.783 38.2173 162.505 38.7629 161.948 39.1579C161.458 39.5077 160.85 39.6814 160.124 39.6814C158.993 39.6814 158.352 39.1347 158.202 38.0412C158.145 37.6358 158.117 36.7369 158.117 35.3411C158.117 34.5778 158.089 34.1955 158.032 34.1955C157.871 34.1955 157.721 34.5118 157.579 35.1431C157.526 35.3706 157.498 35.6032 157.495 35.8369C157.495 35.8937 157.085 36.1149 156.265 36.5006C155.276 36.9721 154.512 37.4864 153.975 38.0412C153.654 38.3714 153.357 38.881 153.084 39.5679C152.904 40.0012 153.018 40.3267 153.423 40.5444C153.725 40.7054 154.116 40.7842 154.597 40.7842C155.643 40.7842 156.335 40.5537 156.675 40.0915C156.703 40.0625 156.816 39.8703 157.014 39.5112C157.146 39.2656 157.283 39.1058 157.424 39.0305C157.463 39.9259 157.636 40.5815 157.948 40.9962C158.456 41.675 159.155 42.0144 160.041 42.0144C160.975 42.0144 161.738 41.6321 162.332 40.8688C162.652 40.4633 162.892 39.978 163.053 39.4127C163.166 39.0351 163.251 38.8127 163.308 38.7478C163.335 38.7675 163.397 38.9656 163.492 39.3421C163.613 39.8228 163.774 40.2236 163.972 40.5444C164.142 40.8178 164.438 41.0599 164.863 41.273C165.287 41.485 165.669 41.5892 166.009 41.5892C166.734 41.5892 167.257 41.1885 167.577 40.388C167.737 39.9919 167.818 39.3745 167.818 38.5358C167.813 37.7076 167.732 37.081 167.573 36.6559ZM155.703 27.7772C155.075 27.2026 154.404 26.9142 153.689 26.9142C153.386 26.9142 153.236 27.1076 153.236 27.4934C153.236 27.842 153.343 28.0876 153.561 28.2289C153.457 28.5023 153.406 28.8695 153.406 29.3316C153.406 29.8784 153.718 30.2027 154.34 30.307C154.009 30.7784 153.467 31.2823 152.713 31.8198C152.189 32.1831 151.661 32.5415 151.13 32.8947C150.554 33.2816 150.291 33.526 150.338 33.6303C150.356 33.6778 150.408 33.7009 150.493 33.7009C150.748 33.7009 151.218 33.5121 151.907 33.1356C152.558 32.7777 153.071 32.4522 153.449 32.1603C154.043 31.6993 154.589 31.0958 155.089 30.351C155.212 30.351 155.403 30.4054 155.662 30.5132C155.922 30.622 156.098 30.6753 156.193 30.6753C156.495 30.6753 156.646 30.351 156.646 29.7C156.644 28.9934 156.33 28.3528 155.703 27.7772ZM173.865 46.3975C173.63 46.3975 172.823 46.7277 171.447 47.3868C170.108 48.0285 169.294 48.4617 169.001 48.6876C168.54 49.1498 168.252 49.4509 168.139 49.5922C167.837 49.9687 167.715 50.1992 167.772 50.2861C167.781 50.2953 167.8 50.3 167.829 50.3C168.398 50.0006 168.964 49.6944 169.526 49.3814C170.652 48.82 171.787 48.2778 172.932 47.7551C173.054 47.6613 173.244 47.4412 173.497 47.0983C173.752 46.7531 173.88 46.5261 173.88 46.4126C173.88 46.4022 173.874 46.3975 173.865 46.3975ZM148.895 27.198C148.415 24.5593 148.155 23.0882 148.118 22.787C148.034 22.1268 147.94 21.7978 147.836 21.7978C147.788 21.7978 147.673 22.3492 147.489 23.4519C147.305 24.5546 147.232 25.2056 147.27 25.4037C148.015 29.6641 148.543 32.6665 148.854 34.4098C149.061 35.6261 149.254 37.3972 149.433 39.7255C149.451 39.9722 149.517 40.0938 149.631 40.0938C149.772 40.0938 149.843 40.0139 149.843 39.8529C150.021 38.9112 150.079 37.5443 150.012 35.7523C149.946 33.782 149.574 30.9302 148.895 27.198ZM142.109 18.4455C142.052 18.427 140.851 18.954 138.504 20.029C136.119 21.1225 134.786 21.7769 134.502 21.9947C134.333 22.1268 134.106 22.3804 133.823 22.758C133.511 23.1635 133.356 23.4415 133.356 23.5921C133.356 23.6199 133.365 23.6349 133.384 23.6349C133.252 23.6349 134.209 23.1588 136.254 22.2067C137.998 21.3958 139.469 20.7263 140.665 20.1993C140.854 20.0858 141.144 19.8101 141.535 19.3722C141.926 18.9344 142.121 18.6355 142.121 18.4745C142.123 18.4652 142.118 18.4548 142.109 18.4455ZM140.51 25.1188C140.387 24.4597 140.237 24.1434 140.058 24.1712C139.963 24.1909 139.916 24.2697 139.916 24.4122C139.916 24.5071 139.93 24.6461 139.959 24.8292C139.987 25.0133 140.002 25.1523 140.002 25.2462C140.002 25.7176 139.804 25.9528 139.407 25.9528C139.331 25.9564 139.254 25.9368 139.189 25.8965C139.123 25.8562 139.072 25.7971 139.04 25.7269C139.012 25.6701 138.968 25.4396 138.913 25.0342C138.865 24.7145 138.795 24.5627 138.701 24.5813C138.597 24.601 138.526 24.7794 138.489 25.1188C138.462 25.3935 138.424 25.6671 138.375 25.9389C138.28 26.2412 138.022 26.4149 137.598 26.4624C137.296 26.5377 137.108 26.3732 137.033 25.9678C137.017 25.8109 137.031 25.6524 137.076 25.501C137.119 25.3439 137.148 25.1829 137.16 25.0203C137.16 24.9172 137.132 24.8512 137.076 24.8222C137.056 24.8222 137.042 24.8176 137.033 24.8083C136.929 24.8083 136.764 25.1153 136.538 25.7269C136.434 26.1798 136.406 26.547 136.454 26.8296C136.473 26.972 136.52 27.1091 136.593 27.233C136.666 27.3569 136.763 27.4651 136.878 27.5513C136.99 27.6392 137.121 27.7012 137.26 27.733C137.4 27.7649 137.544 27.7657 137.684 27.7355C138.202 27.6405 138.555 27.3822 138.745 26.9582C138.833 27.0674 138.945 27.1548 139.072 27.2137C139.2 27.2726 139.339 27.3013 139.479 27.2976C140.215 27.2976 140.582 26.803 140.582 25.8126C140.582 25.6053 140.558 25.3736 140.51 25.1188ZM153.873 44.1156C152.506 44.7793 151.695 45.2253 151.44 45.4512C150.921 45.9122 150.62 46.2006 150.536 46.313C150.234 46.6999 150.126 46.935 150.21 47.0196C150.222 47.03 150.237 47.0354 150.253 47.0346C150.31 47.0346 150.512 46.9304 150.861 46.723C151.351 46.4311 151.709 46.2273 151.936 46.1149C153.077 45.5595 154.222 45.0127 155.372 44.4747C155.673 44.2488 155.951 43.9801 156.206 43.6696C156.517 43.3024 156.55 43.1171 156.304 43.1171C156.049 43.1171 155.238 43.4495 153.873 44.1156ZM130.091 20.651C129.412 20.5479 128.904 20.4958 128.564 20.4958C128.243 20.4958 127.819 20.8155 127.291 21.4572C126.829 22.0132 126.598 22.3665 126.598 22.5183C126.61 22.5389 126.624 22.5577 126.641 22.5739C126.65 22.5832 126.661 22.5906 126.674 22.5953C126.686 22.6001 126.699 22.6023 126.712 22.6017C126.73 22.6017 126.828 22.5299 127.002 22.3827C127.175 22.2368 127.339 22.1638 127.489 22.1638C127.715 22.1638 128.121 22.2067 128.705 22.2912C129.337 22.3851 129.71 22.465 129.822 22.5322C129.407 22.8148 128.733 23.1067 127.8 23.409C127.036 23.6534 126.659 23.8145 126.668 23.8898C126.696 23.9558 126.861 23.9882 127.163 23.9882C128.124 23.9882 128.873 23.8701 129.411 23.6349C129.76 23.4843 130.179 23.1206 130.669 22.5461C131.197 21.9426 131.461 21.4758 131.461 21.1468C131.462 20.9568 131.005 20.7923 130.091 20.651ZM144.979 31.0425C144.319 27.3103 143.99 25.4153 143.99 25.3585C144.291 24.4539 144.443 23.9639 144.443 23.8874C144.433 23.8504 144.348 23.7739 144.188 23.6616C143.744 23.35 143.495 22.8507 143.438 22.1627C143.411 21.8603 143.363 21.7097 143.297 21.7097C143.165 21.7097 143.005 22.0491 142.816 22.7279C142.647 23.3407 142.562 23.7785 142.562 24.0427C142.562 24.4388 142.67 24.7828 142.887 25.0747L144.047 31.3518C144.801 35.4245 145.178 37.7516 145.178 38.3366C145.178 38.9772 144.641 39.298 143.566 39.298C143.32 39.298 143.147 39.2737 143.042 39.2262C142.722 38.9536 142.424 38.6557 142.152 38.3355C141.907 39.042 141.685 39.7625 141.487 40.4981C142.062 40.885 142.35 41.3379 142.35 41.8557C142.35 42.1858 141.992 42.7036 141.275 43.4113C139.785 44.8824 138.085 45.6168 136.171 45.6168C135.87 45.6168 135.422 45.5751 134.827 45.4894C134.388 45.4188 133.944 45.3766 133.499 45.3631C133.357 45.3631 133.287 45.4002 133.287 45.4766C133.287 45.6458 133.608 45.8948 134.248 46.2249C134.706 46.4717 135.184 46.6798 135.676 46.847C136.779 47.2246 137.558 47.4122 138.009 47.4122C138.8 47.4122 139.768 46.8748 140.907 45.801C142.208 44.5743 142.99 43.204 143.254 41.6854C144.159 41.6854 144.847 41.2719 145.318 40.4413C145.715 39.7625 145.913 38.9378 145.913 37.9671C145.913 36.869 145.601 34.5593 144.979 31.0425ZM122.668 21.2314C122.489 21.6368 122.338 22.07 122.215 22.5322C122.847 23.2202 123.295 23.9558 123.558 24.7377C123.708 25.1998 123.813 25.7512 123.869 26.3918C123.906 26.8262 123.954 27.0428 124.011 27.0428C124.228 27.0428 124.336 26.5389 124.336 25.53C124.336 23.9268 123.78 22.4939 122.668 21.2314ZM119.472 17.2154C118.52 17.2154 117.686 17.9509 116.97 19.4209C116.801 19.4116 116.595 19.3409 116.355 19.2089C116.114 19.0768 115.938 19.0108 115.825 19.0108C115.457 19.0108 115.075 19.2703 114.679 19.7881C114.32 20.2502 114.142 20.6325 114.142 20.9337C114.142 21.0368 114.184 21.0889 114.269 21.0889C114.317 21.0889 114.467 20.9337 114.722 20.6221C114.977 20.3105 115.193 20.1553 115.373 20.1553C115.533 20.1553 115.781 20.2305 116.115 20.3811C116.45 20.5317 116.764 20.607 117.056 20.607C117.858 20.607 118.562 20.3452 119.17 19.8216C119.778 19.2992 120.082 18.6459 120.082 17.864C120.08 17.432 119.877 17.2154 119.472 17.2154ZM122.165 29.7151C121.557 29.3757 121.192 29.2065 121.07 29.2065C120.975 29.2065 120.829 29.4846 120.632 30.0406C120.434 30.5966 120.335 30.9591 120.335 31.1282C120.335 31.2696 120.602 31.5105 121.135 31.8499C121.666 32.1881 122.013 32.3584 122.174 32.3584C122.267 32.3584 122.442 32.0526 122.697 31.4398C122.952 30.8271 123.079 30.4506 123.079 30.3093C123.078 30.2514 122.774 30.0533 122.165 29.7151ZM117.422 27.2825C116.978 25.1431 116.691 23.6673 116.559 22.8565C116.456 22.2345 116.347 21.924 116.234 21.924C116.186 21.924 116.083 22.4777 115.923 23.5851C115.762 24.6925 115.702 25.3412 115.739 25.5288C116.26 28.2458 116.793 30.9606 117.336 33.6731C117.581 34.9936 117.803 36.7647 118.001 38.9899C118.058 39.2355 118.138 39.3571 118.242 39.3571C118.317 39.3571 118.383 39.2621 118.44 39.0745C118.591 38.0934 118.62 36.7416 118.525 35.0156C118.411 32.8959 118.044 30.3174 117.422 27.2825ZM108.006 25.4871C107.883 24.828 107.733 24.5118 107.553 24.5396C107.458 24.5593 107.412 24.638 107.412 24.7805C107.412 24.8755 107.428 25.0145 107.46 25.1975C107.493 25.3805 107.51 25.5207 107.51 25.6145C107.51 26.086 107.307 26.3211 106.902 26.3211C106.741 26.3211 106.619 26.2458 106.535 26.0952C106.499 25.9121 106.466 25.7283 106.436 25.5439L106.422 25.4025C106.375 25.091 106.304 24.9415 106.21 24.9496C106.097 24.9693 106.022 25.1477 105.985 25.4871C105.937 25.9875 105.905 26.2597 105.886 26.3072C105.791 26.6095 105.533 26.7833 105.109 26.8308C104.807 26.9061 104.614 26.7462 104.53 26.3501C104.51 26.2562 104.527 26.0883 104.579 25.8485C104.63 25.6076 104.657 25.45 104.657 25.3747C104.657 25.2717 104.629 25.201 104.573 25.1628C104.468 25.106 104.29 25.4176 104.035 26.0964C103.931 26.5018 103.908 26.869 103.964 27.1991C104.058 27.8119 104.384 28.1177 104.94 28.1177C105.553 28.1177 105.99 27.8536 106.254 27.3254C106.339 27.4353 106.449 27.5234 106.574 27.5824C106.7 27.6414 106.837 27.6697 106.976 27.6648C107.712 27.6648 108.079 27.1702 108.079 26.1798C108.074 25.9473 108.05 25.7156 108.006 25.4871ZM125.87 45.8184C124.508 46.4693 123.699 46.906 123.445 47.1331C123.136 47.4135 122.848 47.7158 122.582 48.0377C122.262 48.4246 122.139 48.6551 122.215 48.7304C122.225 48.7304 122.81 48.4293 123.969 47.8258C125.095 47.2648 126.231 46.7234 127.376 46.2018C127.706 45.9365 127.984 45.6678 128.21 45.3956C128.511 45.0284 128.544 44.8442 128.308 44.8442C128.045 44.8442 127.232 45.1685 125.87 45.8184ZM112.855 28.0737C112.091 23.8886 111.605 21.8383 111.399 21.9229C111.144 22.026 110.941 22.7233 110.791 24.0149C110.688 24.7982 110.632 25.5868 110.621 26.3767C110.621 27.9509 110.697 29.3606 110.847 30.6047C110.979 31.7167 111.111 32.2727 111.243 32.2727C111.309 32.2727 111.342 31.9947 111.342 31.4387L111.257 28.442C111.23 27.0567 111.253 26.0153 111.328 25.3168L112.36 30.7043C112.954 33.8144 113.251 35.6632 113.251 36.247C113.251 36.5389 112.949 36.7427 112.346 36.8551C111.799 36.9582 111.417 36.964 111.201 36.869C110.843 36.6037 110.583 36.3836 110.423 36.2041C110.112 35.9968 109.867 36.2423 109.688 36.9396C109.499 37.6289 109.542 38.1096 109.815 38.3829C110.437 38.8718 110.749 39.3339 110.749 39.7672C110.749 40.4842 110.174 41.3136 109.024 42.2553C107.817 43.2445 106.687 43.7391 105.631 43.7391C104.575 43.7391 103.84 43.3997 103.426 42.7209C103.218 42.3815 103.082 41.8452 103.016 41.1097C102.959 40.4877 102.893 40.1749 102.818 40.1749C102.62 40.1749 102.521 40.5618 102.521 41.3356C102.521 42.0711 102.658 42.7499 102.931 43.3719C103.619 44.9264 104.75 45.7048 106.325 45.7048C107.626 45.7048 108.847 44.9172 109.987 43.343C111.062 41.8638 111.575 40.4923 111.528 39.2285C112.49 39.144 113.164 38.7571 113.551 38.069C113.843 37.542 113.989 36.745 113.989 35.6805C113.986 34.7191 113.609 32.1835 112.855 28.0737ZM96.1143 20.892C88.8469 22.7106 84.2703 24.0774 82.3856 24.9925C81.4705 25.4361 80.7257 25.9921 80.1512 26.6605C79.689 27.198 79.4585 27.6034 79.4585 27.8768C79.4585 27.9335 79.4828 27.9613 79.5292 27.9613C79.5106 27.9521 79.7272 27.7968 80.1801 27.4945C80.8114 27.0706 81.6837 26.6466 82.7957 26.2215C85.8027 25.0713 89.733 23.9118 94.5876 22.7441C99.5453 21.5464 104.758 20.3452 110.225 19.1382C110.838 18.5069 111.366 17.9312 111.809 17.4135C108.086 18.0447 102.855 19.2043 96.1143 20.892ZM137.033 30.8456C136.561 30.6568 135.586 30.1761 134.106 29.4035C133.324 28.998 132.608 28.7953 131.957 28.7953C130.731 28.7953 129.882 29.3745 129.412 30.534C129.355 30.7321 129.303 30.9302 129.257 31.1271C129.864 31.0828 130.472 31.0593 131.081 31.0564C131.76 31.0564 132.311 31.0935 132.735 31.1699C133.244 31.3113 133.938 31.5557 134.813 31.9043C131.769 32.3098 129.767 32.9654 128.804 33.87C128.568 34.0878 128.228 34.5488 127.786 35.2554C127.362 35.9145 127.059 36.3153 126.881 36.4578C126.466 36.7867 125.835 36.9524 124.986 36.9524C124.6 36.9524 124.334 36.898 124.188 36.7891C124.042 36.6813 123.858 36.4323 123.637 36.0466C123.415 35.6608 123.229 35.4002 123.078 35.2693C123.003 35.2021 122.83 35.4998 122.562 36.1601C122.293 36.8203 122.258 37.2872 122.456 37.5594C123.031 38.3239 123.319 39.0583 123.319 39.7649C123.319 41.9136 120.223 44.1677 114.029 46.5238C108.958 48.4559 103.242 49.422 96.8788 49.422C90.5346 49.422 84.9409 48.1408 80.0956 45.5774C78.8469 44.9139 77.6677 44.1274 76.5754 43.2295C75.8354 42.6112 75.1275 41.9555 74.4544 41.2649C73.9355 40.7367 73.6436 40.4969 73.5776 40.5444C73.5683 40.5537 73.5637 40.5768 73.5637 40.6151C73.5637 41.0112 74.0873 41.9912 75.1332 43.5561C76.2927 45.2902 77.3434 46.4971 78.2863 47.1759C80.0585 48.4478 82.4482 49.5042 85.4541 50.3428C88.9233 51.3135 92.6231 51.7989 96.5533 51.7989C103.151 51.7989 109.523 50.5027 115.669 47.9115C121.004 45.6666 123.879 42.7221 124.293 39.0745C124.435 39.0837 124.567 39.0884 124.689 39.0884C125.906 39.0884 126.824 38.4432 127.446 37.1516C128.36 38.2636 129.511 38.8196 130.897 38.8196C131.283 38.8196 131.627 38.4698 131.929 37.7737C132.193 37.1702 132.324 36.6466 132.324 36.2041C132.324 35.5068 131.98 34.8674 131.292 34.2813C131.745 34.0843 132.536 33.8712 133.667 33.6453C134.929 33.3905 135.995 33.2631 136.863 33.2631C138.257 33.2631 139.813 33.5515 141.528 34.126C142.48 33.0048 142.932 32.443 142.886 32.443C140.275 31.8962 138.324 31.3634 137.033 30.8456ZM79.5581 20.3973C78.8886 20.2943 78.3847 20.2421 78.0453 20.2421C77.7152 20.2421 77.2866 20.5618 76.7596 21.2036C76.3159 21.7503 76.0947 22.1036 76.0947 22.2646C76.0947 22.3306 76.1225 22.3631 76.1792 22.3631C76.1978 22.3631 76.2951 22.2901 76.4688 22.1441C76.6426 21.9982 76.8013 21.9252 76.9426 21.9252C77.1881 21.9252 77.5982 21.9623 78.1727 22.0387C78.7948 22.1325 79.177 22.2183 79.3183 22.2936C78.9036 22.5762 78.2249 22.8681 77.2831 23.1693C76.5105 23.4148 76.1375 23.57 76.1665 23.6361C76.1734 23.7102 76.3437 23.7473 76.6738 23.7473C77.626 23.7473 78.3708 23.6442 78.9083 23.4368C79.2569 23.2573 79.6716 22.8808 80.1523 22.3051C80.6609 21.6924 80.9157 21.2209 80.9157 20.8908C80.9157 20.7031 80.4628 20.5387 79.5581 20.3973ZM86.5568 30.2375C86.509 30.4483 86.4665 30.6604 86.4294 30.8734C86.3448 31.2603 86.1421 31.4537 85.8213 31.4537C85.2282 31.4537 84.9305 30.9916 84.9305 30.0684C84.9305 29.9838 84.9351 29.8564 84.9444 29.6861C84.9537 29.517 84.9583 29.3896 84.9583 29.3039C84.9583 29.115 84.9305 29.0166 84.8738 29.0073C84.751 28.9888 84.6374 29.2714 84.5344 29.8552C84.453 30.2462 84.4057 30.6434 84.393 31.0425C84.393 31.4862 84.4961 31.8962 84.7046 32.2727C84.949 32.7163 85.2792 32.9376 85.6939 32.9376C86.0703 32.9376 86.368 32.7349 86.5846 32.3294C86.7537 31.9993 86.8395 31.6275 86.8395 31.2128C86.8395 30.4877 86.7456 30.1622 86.5568 30.2375ZM94.9548 39.2007C94.9363 39.1822 94.8587 39.3594 94.722 39.7313C94.5853 40.1031 94.517 40.3324 94.517 40.417C94.517 40.4448 94.5262 40.4738 94.5448 40.5016C95.5155 41.5672 96.0668 42.853 96.1989 44.3612C96.2359 44.7955 96.2834 45.0121 96.3402 45.0121C96.529 45.0121 96.6228 44.5164 96.6228 43.5271C96.624 41.9066 96.068 40.4645 94.9548 39.2007ZM105.263 32.1603C104.34 31.9252 103.213 31.5522 101.884 31.0437C100.895 30.6672 100.301 30.4784 100.102 30.4784C99.2917 30.4784 98.6465 30.841 98.1657 31.5661C97.8171 32.0943 97.6422 32.5553 97.6422 32.9515C97.6422 32.9793 97.6468 32.999 97.6561 33.0082C98.0708 32.9712 98.4854 32.9515 98.9001 32.9515C100.568 32.9515 102.133 33.2434 103.594 33.8283C101.737 34.8187 100.313 35.3133 99.3241 35.3133C98.7681 35.3133 98.3244 35.1767 97.9955 34.9033C97.7696 34.7156 97.6561 34.55 97.6561 34.4087C97.6561 34.4759 97.6792 34.3473 97.7267 34.0264C97.7545 33.848 97.7175 33.7438 97.6132 33.7148C97.5472 33.6963 97.3954 33.8191 97.1603 34.082C96.8394 34.4492 96.4155 34.7469 95.8873 34.9728C94.766 35.4535 93.0644 35.8821 90.7836 36.2585C88.1912 36.6837 85.5803 36.8956 82.9509 36.8956C78.1623 36.8956 74.8911 35.9296 73.1386 33.9975C72.6301 33.4415 72.271 33.1681 72.0636 33.1774C71.5447 33.197 71.0362 33.6534 70.5369 34.5488C70.0852 35.3597 69.8593 36.0477 69.8593 36.613C69.8593 36.9895 70.0759 37.3717 70.5091 37.7586C68.0303 39.5482 66.0414 40.944 64.5425 41.9425C64.1464 42.2066 63.9668 42.3804 64.005 42.4661C64.0143 42.4927 64.0525 42.5078 64.1186 42.5078C64.5332 42.5078 65.4692 42.2136 66.9252 41.624C68.3813 41.0344 69.2662 40.5942 69.5767 40.3012C70.1327 39.7927 70.6087 39.0525 71.0049 38.0818C71.3258 38.2799 71.8771 38.4918 72.659 38.7177C73.4409 38.9436 74.0073 39.0478 74.356 39.0293C74.5911 38.9552 74.7707 38.6378 74.8935 38.0829C76.2035 38.742 78.5087 39.0722 81.8076 39.0722C85.2294 39.0722 88.4102 38.7698 91.3512 38.1675C94.6316 37.498 96.5024 36.6269 96.9645 35.552C97.5391 36.6732 98.1669 37.2339 98.8457 37.2339C99.3264 37.2339 100.716 36.7624 103.017 35.8195C105.317 34.8766 106.967 34.4052 107.965 34.4052C108.738 34.4052 109.463 34.499 110.142 34.6878C110.217 34.7075 110.438 34.3809 110.807 33.7125C111.108 33.1565 111.26 32.8356 111.26 32.7511C111.26 32.7325 111.255 32.7233 111.246 32.7233C108.717 32.7256 106.724 32.5379 105.263 32.1603ZM87.7511 40.4031C87.0966 40.0927 86.7259 39.9502 86.6414 39.9803C86.3402 40.5073 86.0946 41.0124 85.9058 41.4931L84.6896 40.9556C84.1903 40.7379 83.8984 40.644 83.8139 40.673C83.7189 40.7008 83.566 41.0217 83.354 41.6344C83.142 42.2472 83.0505 42.6097 83.0783 42.7221C83.0969 42.7974 83.4177 42.9804 84.0397 43.2677C84.6618 43.555 85.0394 43.6986 85.1714 43.6986C85.285 43.6986 85.5305 43.1936 85.907 42.1858C87.0387 42.8171 87.7071 43.1044 87.9144 43.0476C87.999 43.0198 88.1739 42.6966 88.438 42.0792C88.7021 41.4618 88.8144 41.1016 88.7774 40.9973C88.7484 40.9116 88.4067 40.7147 87.7511 40.4031ZM70.7003 45.9886C69.338 46.6396 68.5203 47.0809 68.2469 47.3172C67.209 48.2034 66.8047 48.7165 67.0306 48.8578C67.0399 48.8683 67.0584 48.8729 67.0874 48.8729C67.2287 48.7687 67.7986 48.4629 68.7983 47.9532C69.9246 47.3962 71.056 46.8495 72.1922 46.313C72.4748 46.1439 72.7575 45.8936 73.0401 45.5647C73.3517 45.1975 73.3841 45.0133 73.1386 45.0133C72.8745 45.0133 72.0625 45.3376 70.7003 45.9886ZM171.73 19.4209C171.295 19.5622 170.919 19.6189 170.598 19.59C171.097 18.6853 171.573 18.2324 172.025 18.2324C172.355 18.2324 172.521 18.398 172.521 18.727C172.522 19.0108 172.257 19.2425 171.73 19.4209ZM172.436 39.4417C172.436 39.3189 172.53 39.1509 172.719 38.939C172.907 38.727 173.058 38.6216 173.172 38.6216C173.266 38.6123 173.44 38.8393 173.694 39.3004C174.014 39.8842 174.293 40.2849 174.53 40.5016C173.134 40.2108 172.436 39.8575 172.436 39.4417ZM150.691 19.2934C150.256 19.4348 149.88 19.4915 149.559 19.4626C150.04 18.5394 150.516 18.0772 150.987 18.0772C151.317 18.0772 151.482 18.2521 151.482 18.6008C151.483 18.8834 151.219 19.1151 150.691 19.2934ZM156.092 29.6432C155.942 29.6432 155.687 29.5819 155.328 29.4591C155.375 29.261 155.4 29.0861 155.4 28.9355C155.405 28.8043 155.381 28.6735 155.328 28.5532C155.46 28.5718 155.658 28.7224 155.922 29.0062C156.139 29.2425 156.246 29.4116 156.246 29.5147C156.246 29.5344 156.241 29.5538 156.232 29.5714C156.223 29.6201 156.177 29.6432 156.092 29.6432ZM154.707 29.3757C154.188 29.3757 153.93 29.2772 153.93 29.0791C153.93 28.6459 154.08 28.4281 154.382 28.4281C154.656 28.4281 154.793 28.5938 154.793 28.9228C154.788 29.0773 154.759 29.2301 154.707 29.3757ZM157.378 38.2115C156.693 38.5584 155.923 38.7053 155.159 38.6355C154.724 38.5984 154.508 38.537 154.508 38.4524C154.508 38.2741 155.478 37.6891 157.42 36.6987C157.393 36.9431 157.378 37.4482 157.378 38.2115ZM118.595 19.3224C118.153 19.473 117.775 19.5344 117.464 19.5066C117.964 18.6019 118.439 18.149 118.892 18.149C119.222 18.149 119.387 18.3146 119.387 18.6436C119.388 18.917 119.124 19.144 118.595 19.3224ZM130.996 36.7555C130.581 36.7555 130.095 36.5991 129.539 36.2898C129.324 36.1698 129.129 36.017 128.96 35.8369C128.734 35.6006 128.668 35.4118 128.762 35.2716C128.828 35.1859 129.003 35.1535 129.286 35.172C129.597 35.1998 129.86 35.2716 130.078 35.3852C130.823 35.7813 131.195 36.1948 131.195 36.6292C131.194 36.7126 131.128 36.7555 130.996 36.7555ZM71.2447 35.2716C71.2447 35.15 71.3397 34.9797 71.5273 34.7631C71.715 34.5465 71.8713 34.4284 71.9941 34.4087C72.0787 34.4087 72.249 34.645 72.5026 35.1153C72.8142 35.7002 73.0922 36.1045 73.3366 36.3315C71.942 36.0396 71.2447 35.6852 71.2447 35.2716Z" fill="#0A77B5"/>
<path d="M93.7756 63.9763V72.7036H92.4588V63.9763H93.7756ZM102.977 63.9763V72.7036H101.767L97.3309 66.303H97.2499V72.7036H95.9332V63.9763H97.1519L101.592 70.3854H101.673V63.9763H102.977ZM108.123 65.1098V63.9763H114.878V65.1098H112.155V72.7036H110.842V65.1098H108.123ZM116.61 72.7036V63.9763H117.927V67.7689H122.278V63.9763H123.599V72.7036H122.278V68.8982H117.927V72.7036H116.61ZM125.756 72.7036V63.9763H131.228V65.1098H127.073V67.7689H130.943V68.8982H127.073V71.57H131.279V72.7036H125.756ZM143.687 63.9763V72.7036H142.477L138.04 66.303H137.959V72.7036H136.643V63.9763H137.861L142.302 70.3854H142.383V63.9763H143.687ZM146.585 72.7036H145.187L148.328 63.9763H149.849L152.99 72.7036H151.592L149.125 65.5615H149.056L146.585 72.7036ZM146.819 69.2859H151.353V70.3939H146.819V69.2859ZM154.49 63.9763H156.088L158.866 70.7604H158.969L161.747 63.9763H163.345V72.7036H162.092V66.3882H162.011L159.437 72.6908H158.398L155.824 66.3839H155.743V72.7036H154.49V63.9763ZM165.499 72.7036V63.9763H170.971V65.1098H166.816V67.7689H170.686V68.8982H166.816V71.57H171.022V72.7036H165.499ZM183.967 68.3399C183.967 69.2717 183.796 70.0729 183.455 70.7433C183.114 71.4109 182.647 71.9251 182.053 72.2859C181.462 72.6439 180.791 72.8229 180.038 72.8229C179.282 72.8229 178.607 72.6439 178.014 72.2859C177.423 71.9251 176.957 71.4095 176.616 70.7391C176.275 70.0686 176.104 69.2689 176.104 68.3399C176.104 67.4081 176.275 66.6084 176.616 65.9408C176.957 65.2703 177.423 64.7561 178.014 64.3982C178.607 64.0374 179.282 63.857 180.038 63.857C180.791 63.857 181.462 64.0374 182.053 64.3982C182.647 64.7561 183.114 65.2703 183.455 65.9408C183.796 66.6084 183.967 67.4081 183.967 68.3399ZM182.663 68.3399C182.663 67.6297 182.548 67.0317 182.317 66.5459C182.09 66.0572 181.778 65.6879 181.38 65.4379C180.985 65.1851 180.538 65.0587 180.038 65.0587C179.535 65.0587 179.086 65.1851 178.691 65.4379C178.296 65.6879 177.984 66.0572 177.754 66.5459C177.526 67.0317 177.413 67.6297 177.413 68.3399C177.413 69.0501 177.526 69.6496 177.754 70.1382C177.984 70.624 178.296 70.9933 178.691 71.2462C179.086 71.4962 179.535 71.6212 180.038 71.6212C180.538 71.6212 180.985 71.4962 181.38 71.2462C181.778 70.9933 182.09 70.624 182.317 70.1382C182.548 69.6496 182.663 69.0501 182.663 68.3399ZM185.848 72.7036V63.9763H191.26V65.1098H187.165V67.7689H190.872V68.8982H187.165V72.7036H185.848ZM197.273 72.7036H195.875L199.015 63.9763H200.537L203.677 72.7036H202.28L199.812 65.5615H199.744L197.273 72.7036ZM197.507 69.2859H202.041V70.3939H197.507V69.2859ZM205.178 72.7036V63.9763H206.494V71.57H210.449V72.7036H205.178ZM212.191 72.7036V63.9763H213.508V71.57H217.462V72.7036H212.191ZM220.387 72.7036H218.989L222.13 63.9763H223.651L226.792 72.7036H225.394L222.927 65.5615H222.859L220.387 72.7036ZM220.621 69.2859H225.156V70.3939H220.621V69.2859ZM228.292 72.7036V63.9763H229.609V67.7689H233.96V63.9763H235.281V72.7036H233.96V68.8982H229.609V72.7036H228.292Z" fill="#0A77B5"/>
</svg>
