<svg width="328" height="93" viewBox="0 0 328 93" fill="none" xmlns="http://www.w3.org/2000/svg">
<mask id="mask0_2903_7325" style="mask-type:alpha" maskUnits="userSpaceOnUse" x="0" y="0" width="328" height="93">
<path d="M328 46.438L327.104 45.8306C327.031 45.7754 319.058 40.2353 316.059 29.431C312.878 17.9457 306.825 10.6202 301.01 11.2276C297.865 11.5589 295.854 12.7369 294.683 13.7492L294.683 12.4608C294.683 10.3073 293.239 8.46671 291.191 7.98815C290.459 7.8225 289.71 7.73047 288.942 7.73047C288.174 7.73047 287.387 7.82251 286.638 8.00657C286.528 5.85308 285.614 3.84684 284.023 2.33756C282.432 0.828276 280.347 1.22544e-05 278.153 1.21585e-05L49.8469 1.02098e-05C47.6526 1.01139e-05 45.568 0.828274 43.9772 2.33756C42.3863 3.82843 41.472 5.85307 41.3623 8.00655C40.6126 7.8225 39.8446 7.73046 39.0583 7.73046C38.3086 7.73046 37.5406 7.82249 36.8092 7.98814C34.7429 8.4667 33.3166 10.3073 33.3166 12.4608L33.3166 13.7492C32.1463 12.7369 30.1349 11.5589 26.9897 11.2276C21.1749 10.6202 15.1223 17.9457 11.9406 29.431C8.94172 40.2721 0.987428 45.7754 0.896 45.8306L-2.02987e-06 46.438L0.895999 47.0454C0.969142 47.1006 8.94172 52.6408 11.9406 63.4451C15.1223 74.9303 21.1749 82.2559 26.9897 81.6485C30.1349 81.3172 32.1463 80.1392 33.3166 79.1269L33.3166 80.4153C33.3166 82.5688 34.7612 84.4094 36.8275 84.8879C37.5589 85.0536 38.3086 85.1456 39.0583 85.1456C39.8263 85.1456 40.6126 85.0536 41.3623 84.8695C41.472 87.023 42.3863 89.0292 43.9772 90.5385C45.568 92.0478 47.6526 92.8761 49.8469 92.8761L278.171 92.8761C280.366 92.8761 282.45 92.0478 284.041 90.5385C285.632 89.0477 286.546 87.023 286.656 84.8695C287.406 85.0536 288.174 85.1456 288.96 85.1456C289.71 85.1456 290.459 85.0536 291.191 84.8879C293.257 84.4094 294.702 82.5688 294.702 80.4153L294.702 79.1269C295.872 80.1392 297.883 81.3172 301.029 81.6485C306.843 82.2559 312.896 74.9303 316.078 63.4451C319.077 52.604 327.031 47.1007 327.122 47.0454L328 46.438Z" fill="#0A77B5"/>
</mask>
<g mask="url(#mask0_2903_7325)">
<path d="M328 46.438L327.104 45.8306C327.031 45.7754 319.058 40.2353 316.059 29.431C312.878 17.9457 306.825 10.6202 301.01 11.2276C297.865 11.5589 295.854 12.7369 294.683 13.7492L294.683 12.4608C294.683 10.3073 293.239 8.46671 291.191 7.98815C290.459 7.8225 289.71 7.73047 288.942 7.73047C288.174 7.73047 287.387 7.82251 286.638 8.00657C286.528 5.85308 285.614 3.84684 284.023 2.33756C282.432 0.828276 280.347 1.22544e-05 278.153 1.21585e-05L49.8469 1.02098e-05C47.6526 1.01139e-05 45.568 0.828274 43.9772 2.33756C42.3863 3.82843 41.472 5.85307 41.3623 8.00655C40.6126 7.8225 39.8446 7.73046 39.0583 7.73046C38.3086 7.73046 37.5406 7.82249 36.8092 7.98814C34.7429 8.4667 33.3166 10.3073 33.3166 12.4608L33.3166 13.7492C32.1463 12.7369 30.1349 11.5589 26.9897 11.2276C21.1749 10.6202 15.1223 17.9457 11.9406 29.431C8.94172 40.2721 0.987428 45.7754 0.896 45.8306L-2.02987e-06 46.438L0.895999 47.0454C0.969142 47.1006 8.94172 52.6408 11.9406 63.4451C15.1223 74.9303 21.1749 82.2559 26.9897 81.6485C30.1349 81.3172 32.1463 80.1392 33.3166 79.1269L33.3166 80.4153C33.3166 82.5688 34.7612 84.4094 36.8275 84.8879C37.5589 85.0536 38.3086 85.1456 39.0583 85.1456C39.8263 85.1456 40.6126 85.0536 41.3623 84.8695C41.472 87.023 42.3863 89.0292 43.9772 90.5385C45.568 92.0478 47.6526 92.8761 49.8469 92.8761L278.171 92.8761C280.366 92.8761 282.45 92.0478 284.041 90.5385C285.632 89.0477 286.546 87.023 286.656 84.8695C287.406 85.0536 288.174 85.1456 288.96 85.1456C289.71 85.1456 290.459 85.0536 291.191 84.8879C293.257 84.4094 294.702 82.5688 294.702 80.4153L294.702 79.1269C295.872 80.1392 297.883 81.3172 301.029 81.6485C306.843 82.2559 312.896 74.9304 316.078 63.4451C319.077 52.604 327.031 47.1007 327.122 47.0454L328 46.438Z" fill="#F5FAFE"/>
<path d="M-0.746582 -9.70626L329.32 -9.70625L329.32 102.993L-0.746587 102.993L-0.746582 -9.70626ZM57.8044 92.3543L58.6821 92.3543L269.909 92.3543L270.787 92.3543L276.931 92.3543C280.771 92.3543 284.008 89.1149 284.154 84.9736C284.154 84.8631 284.154 84.7527 284.154 84.6239C284.154 84.3877 284.398 84.2061 284.624 84.2751C285.363 84.5009 286.148 84.6239 286.97 84.6239C287.628 84.6239 288.287 84.5502 288.908 84.3846C290.517 83.9796 291.651 82.4152 291.651 80.6298L291.651 80.3905L291.651 79.4126C291.651 78.8942 292.544 78.585 292.935 78.9249C293.962 79.8162 295.67 80.8339 298.289 81.1267C303.226 81.6789 308.675 74.6847 311.583 63.4571C314.472 52.2295 322.152 46.6341 322.152 46.6341C322.152 46.6341 314.49 41.0387 311.583 29.8112C308.693 18.5836 303.226 11.5893 298.289 12.1415C295.67 12.4344 293.962 13.4521 292.935 14.3434C292.544 14.6832 291.651 14.374 291.651 13.8556L291.651 12.6385C291.651 10.8531 290.536 9.28861 288.927 8.88368C288.305 8.73643 287.665 8.6444 286.988 8.6444C286.178 8.6444 285.393 8.76819 284.643 8.99547C284.403 9.06795 284.172 8.89448 284.172 8.6444C284.172 8.53397 284.172 8.42353 284.172 8.29469C284.026 4.15337 280.789 0.913935 276.949 0.913934L270.805 0.913934L269.928 0.913934L58.6638 0.913925L57.7861 0.913925L51.6421 0.913925C47.8021 0.913924 44.5655 4.15336 44.4192 8.29468C44.4192 8.40512 44.4192 8.51555 44.4192 8.64439C44.4192 8.88053 44.1751 9.06219 43.9493 8.99316C43.2105 8.76735 42.4252 8.64439 41.6032 8.64439C40.9449 8.64439 40.2866 8.71802 39.6649 8.88367C38.0558 9.2886 36.9403 10.8531 36.9403 12.6385L36.9403 13.8556C36.9403 14.374 36.0476 14.6832 35.6561 14.3434C34.6293 13.4521 32.9211 12.4344 30.3026 12.1415C25.3654 11.5893 19.9163 18.5836 17.0089 29.8111C14.1197 41.0387 6.43971 46.6341 6.43971 46.6341C6.43971 46.6341 14.1014 52.2295 17.0089 63.4571C19.898 74.6847 25.3654 81.6789 30.3026 81.1267C32.9212 80.8339 34.6293 79.8161 35.6561 78.9248C36.0476 78.585 36.9403 78.8942 36.9403 79.4126L36.9403 80.3905L36.9403 80.6298C36.9403 82.4151 38.074 83.9796 39.6832 84.3846C40.3049 84.5318 40.9449 84.6238 41.6215 84.6238C42.4313 84.6238 43.2164 84.5001 43.967 84.2728C44.2063 84.2003 44.4375 84.3738 44.4375 84.6238C44.4375 84.7343 44.4375 84.8447 44.4375 84.9736C44.5838 89.1149 47.8203 92.3543 51.6603 92.3543L57.8044 92.3543Z" fill="#0072BB" fill-opacity="0.2"/>
<path d="M328 46.4381L327.104 45.8307C327.031 45.7754 319.058 40.2353 316.059 29.431C312.878 17.9457 306.825 10.6202 301.01 11.2276C297.865 11.5589 295.854 12.7369 294.683 13.7492L294.683 12.4608C294.683 10.3073 293.239 8.46672 291.191 7.98816C290.459 7.82251 289.71 7.73048 288.942 7.73048C288.174 7.73048 287.387 7.82251 286.638 8.00657C286.528 5.85308 285.614 3.84684 284.023 2.33756C282.432 0.828277 280.347 1.22544e-05 278.153 1.21585e-05L49.8469 1.02098e-05C47.6526 1.01139e-05 45.5681 0.828276 43.9772 2.33756C42.3863 3.82843 41.472 5.85307 41.3623 8.00656C40.6126 7.8225 39.8446 7.73047 39.0583 7.73047C38.3086 7.73047 37.5406 7.8225 36.8092 7.98815C34.7429 8.46671 33.3166 10.3073 33.3166 12.4608L33.3166 13.7492C32.1463 12.7369 30.1349 11.5589 26.9897 11.2276C21.1749 10.6202 15.1223 17.9457 11.9406 29.431C8.94172 40.2721 0.987428 45.7754 0.895999 45.8306L-2.02987e-06 46.438L0.895999 47.0454C0.969142 47.1006 8.94172 52.6408 11.9406 63.4451C15.1223 74.9303 21.1749 82.2559 26.9897 81.6485C30.1349 81.3172 32.1463 80.1392 33.3166 79.1269L33.3166 80.4153C33.3166 82.5688 34.7612 84.4094 36.8275 84.8879C37.5589 85.0536 38.3086 85.1456 39.0583 85.1456C39.8263 85.1456 40.6126 85.0536 41.3623 84.8695C41.472 87.023 42.3863 89.0292 43.9772 90.5385C45.5681 92.0478 47.6526 92.8761 49.8469 92.8761L278.171 92.8761C280.366 92.8761 282.45 92.0478 284.041 90.5385C285.632 89.0477 286.546 87.023 286.656 84.8695C287.406 85.0536 288.174 85.1456 288.96 85.1456C289.71 85.1456 290.459 85.0536 291.191 84.8879C293.257 84.4094 294.702 82.5688 294.702 80.4153L294.702 79.1269C295.872 80.1392 297.883 81.3172 301.029 81.6485C306.843 82.2559 312.896 74.9303 316.078 63.4451C319.077 52.604 327.031 47.1007 327.122 47.0454L328 46.4381ZM285.192 8.94441C285.167 9.46144 285.675 9.83823 286.162 9.6631C287.058 9.3502 288.009 9.18455 288.96 9.18455C289.6 9.18455 290.24 9.25817 290.88 9.40542C292.251 9.71832 293.239 11.0067 293.239 12.4424L293.239 15.6313C293.239 16.373 294.22 16.6366 294.592 15.9947C294.665 15.8843 296.347 13.1786 301.175 12.6817C306.167 12.1663 311.726 19.2158 314.651 29.8175C317.248 39.2045 323.264 44.6895 325.477 46.4381C323.282 48.1866 317.266 53.6716 314.651 63.0586C311.707 73.6603 306.167 80.7098 301.175 80.1944C296.347 79.6975 294.665 76.9918 294.592 76.863C294.213 76.2285 293.239 76.4974 293.239 77.2365L293.239 80.4153C293.239 81.851 292.251 83.1394 290.862 83.4523C290.24 83.5995 289.6 83.6731 288.96 83.6731C288.009 83.6731 287.077 83.5075 286.162 83.1946C285.675 83.0195 285.167 83.3962 285.192 83.9133L285.193 83.9308C285.211 84.2253 285.211 84.4646 285.193 84.7223C285.065 88.4034 281.902 91.4036 278.171 91.4036L49.8469 91.4036C46.1166 91.4036 42.9532 88.4034 42.8252 84.7223C42.8252 84.4646 42.8252 84.2253 42.8252 83.9308L42.8261 83.9133C42.8517 83.3962 42.3432 83.0195 41.856 83.1946C40.96 83.5075 40.0092 83.6731 39.0583 83.6731C38.4183 83.6731 37.7783 83.5995 37.1566 83.4523C35.7852 83.1394 34.7795 81.8509 34.7795 80.4153L34.7795 77.2264C34.7795 76.4847 33.7979 76.2211 33.4263 76.863C33.3532 76.9734 31.6709 79.6791 26.8435 80.176C21.8332 80.6914 16.2926 73.6419 13.3669 63.0401C10.7703 53.6531 4.75429 48.1682 2.54172 46.4196C4.736 44.6711 10.752 39.1861 13.3669 29.7991C16.3109 19.1973 21.8515 12.1479 26.8435 12.6632C31.6709 13.1602 33.3532 15.8659 33.4263 15.9947C33.8055 16.6292 34.7795 16.3603 34.7795 15.6211L34.7795 12.4424C34.7795 11.0067 35.7669 9.71831 37.1383 9.40541C37.76 9.25816 38.4 9.18453 39.0583 9.18453C40.0092 9.18453 40.9418 9.35019 41.8561 9.66309C42.3432 9.83822 42.8517 9.46143 42.8261 8.9444L42.8252 8.92686C42.8069 8.63236 42.8069 8.39308 42.8252 8.1354C42.9532 4.45423 46.1166 1.45408 49.8469 1.45408L278.171 1.45408C281.902 1.45408 285.065 4.45424 285.193 8.13541C285.211 8.39309 285.193 8.63237 285.193 8.92687L285.192 8.94441Z" fill="#0A77B5"/>
</g>
<path d="M253.071 24.213C252.392 24.1099 251.888 24.0578 251.558 24.0578C251.237 24.0578 250.812 24.374 250.285 25.0053C249.832 25.552 249.606 25.91 249.606 26.0802C249.614 26.1055 249.626 26.1293 249.641 26.1509C249.655 26.1694 249.676 26.1787 249.705 26.1787C249.714 26.1787 249.809 26.1057 249.988 25.9598C250.166 25.8138 250.336 25.7408 250.496 25.7408C251.618 25.7408 252.396 25.8497 252.829 26.0663C252.415 26.3675 251.737 26.6698 250.794 26.971C250.03 27.2154 249.657 27.3811 249.676 27.4656C249.704 27.5594 250.1 27.5745 250.863 27.5085C251.617 27.4424 252.136 27.3428 252.419 27.2119C252.778 27.0428 253.191 26.6745 253.663 26.1092C254.171 25.5057 254.426 25.0296 254.426 24.681C254.429 24.5095 253.976 24.3543 253.071 24.213ZM255.333 32.1303C255.305 32.1303 255.227 32.2808 255.1 32.5832C254.973 32.8843 254.777 33.0361 254.513 33.0361C254.126 33.0361 253.933 32.8009 253.933 32.3283C253.933 32.121 253.992 31.8314 254.11 31.4596C254.228 31.0878 254.286 30.8399 254.286 30.7171C254.286 30.6418 254.262 30.5955 254.214 30.5758C254.054 30.4912 253.842 30.797 253.578 31.4943C253.324 32.1546 253.197 32.6399 253.197 32.9504C253.197 33.2712 253.291 33.5828 253.479 33.8852C253.697 34.2141 253.955 34.3798 254.257 34.3798C254.653 34.3798 254.968 34.1724 255.204 33.7577C255.402 33.4091 255.501 33.0176 255.501 32.5843C255.502 32.2635 255.447 32.1117 255.333 32.1303ZM260.628 42.5855C260.011 42.2716 259.637 42.1129 259.503 42.1129C259.437 42.1129 259.264 42.4117 258.981 43.0106C258.698 43.6083 258.557 43.979 258.557 44.1203C258.557 44.1863 258.86 44.3925 259.469 44.7423C260.076 45.091 260.442 45.2647 260.564 45.2647C260.667 45.2647 260.859 44.9531 261.137 44.3311C261.413 43.7091 261.552 43.3129 261.552 43.1438C261.554 43.0882 261.244 42.9029 260.628 42.5855ZM263.18 46.5806C263.113 46.5516 262.114 46.9814 260.182 47.8664C258.212 48.771 257.115 49.3224 256.888 49.5216C256.699 49.6815 256.468 49.9398 256.194 50.2989C255.865 50.7228 255.699 51.0101 255.699 51.1618C255.699 51.1804 255.709 51.1931 255.727 51.2035C255.643 51.2035 256.613 50.7275 258.64 49.7753C259.705 49.2749 260.742 48.7954 261.75 48.3343C261.939 48.2115 262.222 47.9428 262.598 47.5281C263.005 47.0752 263.207 46.774 263.207 46.6235C263.209 46.6038 263.198 46.5899 263.18 46.5806ZM261.993 31.4515C260.749 29.0954 259.985 27.9174 259.701 27.9174C259.428 27.9174 259.291 28.5012 259.291 29.6711C259.291 30.0765 259.338 30.5804 259.433 31.1839C259.536 31.8152 259.625 32.1314 259.7 32.1314C259.842 32.1314 259.913 31.6646 259.913 30.7321C260.374 31.3449 261.021 32.4569 261.85 34.0693C262.764 35.8404 263.222 36.9675 263.222 37.4482C263.222 37.7783 262.977 37.944 262.486 37.944C262.137 37.944 261.713 37.8722 261.213 37.7309C260.648 37.5803 260.267 37.4065 260.069 37.2084C260.153 36.6432 260.116 36.3408 259.955 36.3038C259.823 36.276 259.616 36.6107 259.333 37.3069C259.05 38.0054 258.82 38.3529 258.64 38.3529C257.962 38.3529 257.401 38.1884 256.957 37.8583C257.136 37.2548 257.24 36.8968 257.269 36.7833C257.269 36.6698 257.236 36.5899 257.17 36.5424C257.048 36.5053 256.873 36.6744 256.647 37.0521C256.344 37.5594 256.053 37.9231 255.77 38.1397C255.384 38.4409 254.828 38.5927 254.102 38.5927C253.263 38.5927 252.812 38.5266 252.746 38.3934C252.887 38.31 253.02 38.1212 253.149 37.8282C253.275 37.5363 253.339 37.2965 253.339 37.1077C253.339 36.9941 253.306 36.9339 253.24 36.9246C253.156 36.905 253.022 37.0046 252.844 37.2212C252.623 37.4935 252.355 37.7235 252.052 37.9C250.996 38.5035 246.985 39.1857 240.019 39.9514C236.645 40.3174 232.356 40.6441 227.153 40.9267C221.564 41.2279 216.63 41.3796 212.351 41.3796C203.451 41.3796 195.021 40.9835 187.056 40.1923C183.614 39.8529 181.343 39.5703 180.24 39.3444C177.403 38.7699 175.442 37.878 174.358 36.6721C173.859 36.1161 173.492 35.8416 173.257 35.852C172.765 35.8717 172.267 36.3327 171.758 37.2374C171.286 38.0563 171.051 38.7409 171.051 39.2877C171.051 39.6653 171.268 40.051 171.702 40.4472C169.128 42.304 167.136 43.7079 165.721 44.6612C165.335 44.9161 165.161 45.0748 165.198 45.1419C165.207 45.1697 165.241 45.1836 165.298 45.1836C165.722 45.1836 166.655 44.8917 168.096 44.3079C169.538 43.7218 170.426 43.2793 170.755 42.9782C171.32 42.4604 171.8 41.7248 172.197 40.7727C172.508 40.9812 173.051 41.192 173.83 41.4098C174.607 41.6264 175.181 41.7248 175.547 41.7075C175.66 41.697 175.812 41.4098 175.999 40.8445C178.678 41.4862 182.508 42.0468 187.495 42.5264C190.88 42.8565 195.243 43.1345 200.588 43.3616C205.404 43.5689 209.298 43.6732 212.267 43.6732C215.755 43.6732 220.515 43.4843 226.547 43.1079C232.315 42.7488 236.972 42.3665 240.517 41.9623C246.115 41.3217 249.782 40.5827 251.517 39.7429C251.462 39.9074 251.429 40.0784 251.418 40.2514C251.418 40.629 252.134 40.8167 253.566 40.8167C254.555 40.8167 255.39 40.4205 256.069 39.6294C256.748 40.1773 257.496 40.4495 258.316 40.4495C258.777 40.4495 259.24 39.751 259.701 38.3564C259.947 38.5741 260.376 38.8568 260.987 39.2043C261.713 39.619 262.214 39.8263 262.486 39.8263C262.759 39.8263 263.057 39.619 263.378 39.2043C263.791 38.6575 264 37.9509 264 37.0833C264 35.8648 263.33 33.9871 261.993 31.4515ZM173.023 16.0119C172.896 15.8706 172.757 15.7999 172.607 15.7999C171.626 15.7999 170.792 16.5355 170.104 18.0054C169.942 17.9962 169.741 17.9324 169.497 17.8143C169.251 17.6961 169.073 17.6382 168.959 17.6382C168.592 17.6382 168.21 17.8931 167.815 18.4016C167.456 18.8638 167.276 19.2356 167.276 19.5182C167.276 19.6132 167.314 19.6595 167.39 19.6595C167.428 19.6595 167.576 19.5066 167.835 19.1997C168.095 18.8939 168.319 18.741 168.507 18.741C168.658 18.741 168.901 18.8232 169.236 18.9877C169.57 19.1533 169.888 19.2356 170.189 19.2356C170.982 19.2356 171.683 18.9668 172.296 18.4294C172.908 17.8919 173.215 17.2328 173.215 16.4498C173.208 16.2848 173.139 16.1284 173.023 16.0119ZM170.951 28.3703C170.576 26.6354 170.199 24.9009 169.82 23.167C169.528 21.7156 169.349 20.9905 169.282 20.9905C169.01 20.9905 168.872 21.9751 168.872 23.9454L169.734 27.7343C170.347 30.3731 170.728 32.15 170.88 33.0639L171.219 35.4536C171.341 36.2644 171.431 36.6698 171.487 36.6698C171.76 36.6698 171.897 35.7825 171.897 34.0114C171.9 33.1913 171.583 31.3102 170.951 28.3703ZM160.73 18.6993C160.544 19.1245 160.392 19.5642 160.277 20.014C161.295 21.1353 161.856 22.4222 161.96 23.8736C161.988 24.2975 162.031 24.5095 162.087 24.5095C162.295 24.5095 162.398 24.0056 162.398 22.9967C162.398 21.3947 161.842 19.9619 160.73 18.6993ZM163.642 25.9945C163.548 25.4107 163.424 25.1234 163.275 25.1316C163.153 25.1316 163.106 25.2914 163.134 25.6123C163.171 25.9899 163.162 26.225 163.106 26.3189C162.988 26.4244 162.84 26.489 162.682 26.503C162.494 26.5227 162.362 26.4752 162.286 26.3617C162.249 26.2957 162.22 26.0976 162.201 25.7675C162.192 25.5034 162.14 25.3713 162.046 25.3713C161.951 25.391 161.885 25.5555 161.848 25.8659C161.8 26.2714 161.759 26.5169 161.721 26.6015C161.599 26.8749 161.349 27.0393 160.972 27.0961C160.69 27.0961 160.515 26.9305 160.449 26.6015C160.449 26.4984 160.481 26.3443 160.547 26.1416C160.613 25.9389 160.646 25.7906 160.646 25.6968C160.646 25.6215 160.618 25.5694 160.561 25.5416C160.552 25.5323 160.537 25.5277 160.518 25.5277C160.405 25.5277 160.245 25.8057 160.038 26.3617C159.887 26.7579 159.83 27.0973 159.868 27.3799C159.953 28.0494 160.321 28.3506 160.971 28.2846C161.311 28.2568 161.655 28.0205 162.003 27.578C162.145 27.71 162.343 27.776 162.597 27.776C163.324 27.776 163.686 27.3417 163.686 26.4752C163.684 26.3141 163.669 26.1534 163.642 25.9945ZM151.595 15.6725C150.606 15.6725 149.762 16.4081 149.065 17.878C148.932 17.8595 148.741 17.7853 148.492 17.6591C148.242 17.5317 148.052 17.4679 147.919 17.4679C147.57 17.4679 147.194 17.7321 146.787 18.2603C146.42 18.741 146.236 19.1186 146.236 19.392C146.236 19.495 146.273 19.5472 146.349 19.5472C146.397 19.5472 146.552 19.392 146.815 19.0804C147.079 18.7688 147.31 18.6136 147.508 18.6136C147.65 18.6136 147.89 18.6888 148.229 18.8394C148.569 18.99 148.877 19.0665 149.149 19.0665C149.941 19.0665 150.634 18.8116 151.227 18.3031C151.858 17.7564 152.175 17.0961 152.175 16.3235C152.176 15.8903 151.982 15.6725 151.595 15.6725ZM167.573 35.1559L165.31 29.3027C165.244 29.1417 165.178 29.0618 165.112 29.0618C165.093 29.0711 165.065 29.1939 165.028 29.429C164.914 30.1263 164.859 30.5595 164.859 30.7298C164.859 31.1827 165.248 32.3538 166.025 34.2431C166.803 36.1335 167.193 37.2142 167.193 37.4888C167.193 37.6776 167.032 37.7714 166.712 37.7714C166.59 37.7904 166.468 37.7997 166.345 37.7992C166.004 37.8076 165.666 37.7351 165.359 37.5877C165.052 37.4403 164.784 37.2222 164.577 36.9513C164.247 36.5366 163.879 35.4941 163.474 33.8272C163.212 32.7014 162.953 31.5747 162.697 30.4472C162.556 29.8437 162.432 29.5425 162.33 29.5425C162 30.1646 161.834 30.7542 161.834 31.3102C161.834 31.4422 161.906 31.7816 162.047 32.3283C162.537 34.2327 162.783 35.464 162.783 36.0188C162.783 36.7173 162.505 37.2629 161.948 37.6579C161.458 38.0077 160.85 38.1814 160.124 38.1814C158.993 38.1814 158.352 37.6347 158.202 36.5412C158.145 36.1358 158.117 35.2369 158.117 33.8411C158.117 33.0778 158.089 32.6955 158.032 32.6955C157.871 32.6955 157.721 33.0118 157.579 33.6431C157.526 33.8706 157.498 34.1032 157.495 34.3369C157.495 34.3937 157.085 34.6149 156.265 35.0006C155.276 35.4721 154.512 35.9864 153.975 36.5412C153.654 36.8714 153.357 37.381 153.084 38.0679C152.904 38.5012 153.018 38.8267 153.423 39.0444C153.725 39.2054 154.116 39.2842 154.597 39.2842C155.643 39.2842 156.335 39.0537 156.675 38.5915C156.703 38.5625 156.816 38.3703 157.014 38.0112C157.146 37.7656 157.283 37.6058 157.424 37.5305C157.463 38.4259 157.636 39.0815 157.948 39.4962C158.456 40.175 159.155 40.5144 160.041 40.5144C160.975 40.5144 161.738 40.1321 162.332 39.3688C162.652 38.9633 162.892 38.478 163.053 37.9127C163.166 37.5351 163.251 37.3127 163.308 37.2478C163.335 37.2675 163.397 37.4656 163.492 37.8421C163.613 38.3228 163.774 38.7236 163.972 39.0444C164.142 39.3178 164.438 39.5599 164.863 39.773C165.287 39.985 165.669 40.0892 166.009 40.0892C166.734 40.0892 167.257 39.6885 167.577 38.888C167.737 38.4919 167.818 37.8745 167.818 37.0358C167.813 36.2076 167.732 35.581 167.573 35.1559ZM155.703 26.2772C155.075 25.7026 154.404 25.4142 153.689 25.4142C153.386 25.4142 153.236 25.6076 153.236 25.9934C153.236 26.342 153.343 26.5876 153.561 26.7289C153.457 27.0023 153.406 27.3695 153.406 27.8316C153.406 28.3784 153.718 28.7027 154.34 28.807C154.009 29.2784 153.467 29.7823 152.713 30.3198C152.189 30.6831 151.661 31.0415 151.13 31.3947C150.554 31.7816 150.291 32.026 150.338 32.1303C150.356 32.1778 150.408 32.2009 150.493 32.2009C150.748 32.2009 151.218 32.0121 151.907 31.6356C152.558 31.2777 153.071 30.9522 153.449 30.6603C154.043 30.1993 154.589 29.5958 155.089 28.851C155.212 28.851 155.403 28.9054 155.662 29.0132C155.922 29.122 156.098 29.1753 156.193 29.1753C156.495 29.1753 156.646 28.851 156.646 28.2C156.644 27.4934 156.33 26.8528 155.703 26.2772ZM173.865 44.8975C173.63 44.8975 172.823 45.2277 171.447 45.8868C170.108 46.5285 169.294 46.9617 169.001 47.1876C168.54 47.6498 168.252 47.9509 168.139 48.0922C167.837 48.4687 167.715 48.6992 167.772 48.7861C167.781 48.7953 167.8 48.8 167.829 48.8C168.398 48.5006 168.964 48.1944 169.526 47.8814C170.652 47.32 171.787 46.7778 172.932 46.2551C173.054 46.1613 173.244 45.9412 173.497 45.5983C173.752 45.2531 173.88 45.0261 173.88 44.9126C173.88 44.9022 173.874 44.8975 173.865 44.8975ZM148.895 25.698C148.415 23.0593 148.155 21.5882 148.118 21.287C148.034 20.6268 147.94 20.2978 147.836 20.2978C147.788 20.2978 147.673 20.8492 147.489 21.9519C147.305 23.0546 147.232 23.7056 147.27 23.9037C148.015 28.1641 148.543 31.1665 148.854 32.9098C149.061 34.1261 149.254 35.8972 149.433 38.2255C149.451 38.4722 149.517 38.5938 149.631 38.5938C149.772 38.5938 149.843 38.5139 149.843 38.3529C150.021 37.4112 150.079 36.0443 150.012 34.2523C149.946 32.282 149.574 29.4302 148.895 25.698ZM142.109 16.9455C142.052 16.927 140.851 17.454 138.504 18.529C136.119 19.6225 134.786 20.2769 134.502 20.4947C134.333 20.6268 134.106 20.8804 133.823 21.258C133.511 21.6635 133.356 21.9415 133.356 22.0921C133.356 22.1199 133.365 22.1349 133.384 22.1349C133.252 22.1349 134.209 21.6588 136.254 20.7067C137.998 19.8958 139.469 19.2263 140.665 18.6993C140.854 18.5858 141.144 18.3101 141.535 17.8722C141.926 17.4344 142.121 17.1355 142.121 16.9745C142.123 16.9652 142.118 16.9548 142.109 16.9455ZM140.51 23.6188C140.387 22.9597 140.237 22.6434 140.058 22.6712C139.963 22.6909 139.916 22.7697 139.916 22.9122C139.916 23.0071 139.93 23.1461 139.959 23.3292C139.987 23.5133 140.002 23.6523 140.002 23.7462C140.002 24.2176 139.804 24.4528 139.407 24.4528C139.331 24.4564 139.254 24.4368 139.189 24.3965C139.123 24.3562 139.072 24.2971 139.04 24.2269C139.012 24.1701 138.968 23.9396 138.913 23.5342C138.865 23.2145 138.795 23.0627 138.701 23.0813C138.597 23.101 138.526 23.2794 138.489 23.6188C138.462 23.8935 138.424 24.1671 138.375 24.4389C138.28 24.7412 138.022 24.9149 137.598 24.9624C137.296 25.0377 137.108 24.8732 137.033 24.4678C137.017 24.3109 137.031 24.1524 137.076 24.001C137.119 23.8439 137.148 23.6829 137.16 23.5203C137.16 23.4172 137.132 23.3512 137.076 23.3222C137.056 23.3222 137.042 23.3176 137.033 23.3083C136.929 23.3083 136.764 23.6153 136.538 24.2269C136.434 24.6798 136.406 25.047 136.454 25.3296C136.473 25.472 136.52 25.6091 136.593 25.733C136.666 25.8569 136.763 25.9651 136.878 26.0513C136.99 26.1392 137.121 26.2012 137.26 26.233C137.4 26.2649 137.544 26.2657 137.684 26.2355C138.202 26.1405 138.555 25.8822 138.745 25.4582C138.833 25.5674 138.945 25.6548 139.072 25.7137C139.2 25.7726 139.339 25.8013 139.479 25.7976C140.215 25.7976 140.582 25.303 140.582 24.3126C140.582 24.1053 140.558 23.8736 140.51 23.6188ZM153.873 42.6156C152.506 43.2793 151.695 43.7253 151.44 43.9512C150.921 44.4122 150.62 44.7006 150.536 44.813C150.234 45.1999 150.126 45.435 150.21 45.5196C150.222 45.53 150.237 45.5354 150.253 45.5346C150.31 45.5346 150.512 45.4304 150.861 45.223C151.351 44.9311 151.709 44.7273 151.936 44.6149C153.077 44.0595 154.222 43.5127 155.372 42.9747C155.673 42.7488 155.951 42.4801 156.206 42.1696C156.517 41.8024 156.55 41.6171 156.304 41.6171C156.049 41.6171 155.238 41.9495 153.873 42.6156ZM130.091 19.151C129.412 19.0479 128.904 18.9958 128.564 18.9958C128.243 18.9958 127.819 19.3155 127.291 19.9572C126.829 20.5132 126.598 20.8665 126.598 21.0183C126.61 21.0389 126.624 21.0577 126.641 21.0739C126.65 21.0832 126.661 21.0906 126.674 21.0953C126.686 21.1001 126.699 21.1023 126.712 21.1017C126.73 21.1017 126.828 21.0299 127.002 20.8827C127.175 20.7368 127.339 20.6638 127.489 20.6638C127.715 20.6638 128.121 20.7067 128.705 20.7912C129.337 20.8851 129.71 20.965 129.822 21.0322C129.407 21.3148 128.733 21.6067 127.8 21.909C127.036 22.1534 126.659 22.3145 126.668 22.3898C126.696 22.4558 126.861 22.4882 127.163 22.4882C128.124 22.4882 128.873 22.3701 129.411 22.1349C129.76 21.9843 130.179 21.6206 130.669 21.0461C131.197 20.4426 131.461 19.9758 131.461 19.6468C131.462 19.4568 131.005 19.2923 130.091 19.151ZM144.979 29.5425C144.319 25.8103 143.99 23.9153 143.99 23.8585C144.291 22.9539 144.443 22.4639 144.443 22.3874C144.433 22.3504 144.348 22.2739 144.188 22.1616C143.744 21.85 143.495 21.3507 143.438 20.6627C143.411 20.3603 143.363 20.2097 143.297 20.2097C143.165 20.2097 143.005 20.5491 142.816 21.2279C142.647 21.8407 142.562 22.2785 142.562 22.5427C142.562 22.9388 142.67 23.2828 142.887 23.5747L144.047 29.8518C144.801 33.9245 145.178 36.2516 145.178 36.8366C145.178 37.4772 144.641 37.798 143.566 37.798C143.32 37.798 143.147 37.7737 143.042 37.7262C142.722 37.4536 142.424 37.1557 142.152 36.8355C141.907 37.542 141.685 38.2625 141.487 38.9981C142.062 39.385 142.35 39.8379 142.35 40.3557C142.35 40.6858 141.992 41.2036 141.275 41.9113C139.785 43.3824 138.085 44.1168 136.171 44.1168C135.87 44.1168 135.422 44.0751 134.827 43.9894C134.388 43.9188 133.944 43.8766 133.499 43.8631C133.357 43.8631 133.287 43.9002 133.287 43.9766C133.287 44.1458 133.608 44.3948 134.248 44.7249C134.706 44.9717 135.184 45.1798 135.676 45.347C136.779 45.7246 137.558 45.9122 138.009 45.9122C138.8 45.9122 139.768 45.3748 140.907 44.301C142.208 43.0743 142.99 41.704 143.254 40.1854C144.159 40.1854 144.847 39.7719 145.318 38.9413C145.715 38.2625 145.913 37.4378 145.913 36.4671C145.913 35.369 145.601 33.0593 144.979 29.5425ZM122.668 19.7314C122.489 20.1368 122.338 20.57 122.215 21.0322C122.847 21.7202 123.295 22.4558 123.558 23.2377C123.708 23.6998 123.813 24.2512 123.869 24.8918C123.906 25.3262 123.954 25.5428 124.011 25.5428C124.228 25.5428 124.336 25.0389 124.336 24.03C124.336 22.4268 123.78 20.9939 122.668 19.7314ZM119.472 15.7154C118.52 15.7154 117.686 16.4509 116.97 17.9209C116.801 17.9116 116.595 17.8409 116.355 17.7089C116.114 17.5768 115.938 17.5108 115.825 17.5108C115.457 17.5108 115.075 17.7703 114.679 18.2881C114.32 18.7502 114.142 19.1325 114.142 19.4337C114.142 19.5368 114.184 19.5889 114.269 19.5889C114.317 19.5889 114.467 19.4337 114.722 19.1221C114.977 18.8105 115.193 18.6553 115.373 18.6553C115.533 18.6553 115.781 18.7305 116.115 18.8811C116.45 19.0317 116.764 19.107 117.056 19.107C117.858 19.107 118.562 18.8452 119.17 18.3216C119.778 17.7992 120.082 17.1459 120.082 16.364C120.08 15.932 119.877 15.7154 119.472 15.7154ZM122.165 28.2151C121.557 27.8757 121.192 27.7065 121.07 27.7065C120.975 27.7065 120.829 27.9846 120.632 28.5406C120.434 29.0966 120.335 29.4591 120.335 29.6282C120.335 29.7696 120.602 30.0105 121.135 30.3499C121.666 30.6881 122.013 30.8584 122.174 30.8584C122.267 30.8584 122.442 30.5526 122.697 29.9398C122.952 29.3271 123.079 28.9506 123.079 28.8093C123.078 28.7514 122.774 28.5533 122.165 28.2151ZM117.422 25.7825C116.978 23.6431 116.691 22.1673 116.559 21.3565C116.456 20.7345 116.347 20.424 116.234 20.424C116.186 20.424 116.083 20.9777 115.923 22.0851C115.762 23.1925 115.702 23.8412 115.739 24.0288C116.26 26.7458 116.793 29.4606 117.336 32.1731C117.581 33.4936 117.803 35.2647 118.001 37.4899C118.058 37.7355 118.138 37.8571 118.242 37.8571C118.317 37.8571 118.383 37.7621 118.44 37.5745C118.591 36.5934 118.62 35.2416 118.525 33.5156C118.411 31.3959 118.044 28.8174 117.422 25.7825ZM108.006 23.9871C107.883 23.328 107.733 23.0118 107.553 23.0396C107.458 23.0593 107.412 23.138 107.412 23.2805C107.412 23.3755 107.428 23.5145 107.46 23.6975C107.493 23.8805 107.51 24.0207 107.51 24.1145C107.51 24.586 107.307 24.8211 106.902 24.8211C106.741 24.8211 106.619 24.7458 106.535 24.5952C106.499 24.4121 106.466 24.2283 106.436 24.0439L106.422 23.9025C106.375 23.591 106.304 23.4415 106.21 23.4496C106.097 23.4693 106.022 23.6477 105.985 23.9871C105.937 24.4875 105.905 24.7597 105.886 24.8072C105.791 25.1095 105.533 25.2833 105.109 25.3308C104.807 25.4061 104.614 25.2462 104.53 24.8501C104.51 24.7562 104.527 24.5883 104.579 24.3485C104.63 24.1076 104.657 23.95 104.657 23.8747C104.657 23.7717 104.629 23.701 104.573 23.6628C104.468 23.606 104.29 23.9176 104.035 24.5964C103.931 25.0018 103.908 25.369 103.964 25.6991C104.058 26.3119 104.384 26.6177 104.94 26.6177C105.553 26.6177 105.99 26.3536 106.254 25.8254C106.339 25.9353 106.449 26.0234 106.574 26.0824C106.7 26.1414 106.837 26.1697 106.976 26.1648C107.712 26.1648 108.079 25.6702 108.079 24.6798C108.074 24.4473 108.05 24.2156 108.006 23.9871ZM125.87 44.3184C124.508 44.9693 123.699 45.406 123.445 45.6331C123.136 45.9135 122.848 46.2158 122.582 46.5377C122.262 46.9246 122.139 47.1551 122.215 47.2304C122.225 47.2304 122.81 46.9293 123.969 46.3258C125.095 45.7648 126.231 45.2234 127.376 44.7018C127.706 44.4365 127.984 44.1678 128.21 43.8956C128.511 43.5284 128.544 43.3442 128.308 43.3442C128.045 43.3442 127.232 43.6685 125.87 44.3184ZM112.855 26.5737C112.091 22.3886 111.605 20.3383 111.399 20.4229C111.144 20.526 110.941 21.2233 110.791 22.5149C110.688 23.2982 110.632 24.0868 110.621 24.8767C110.621 26.4509 110.697 27.8606 110.847 29.1047C110.979 30.2167 111.111 30.7727 111.243 30.7727C111.309 30.7727 111.342 30.4947 111.342 29.9387L111.257 26.942C111.23 25.5567 111.253 24.5153 111.328 23.8168L112.36 29.2043C112.954 32.3144 113.251 34.1632 113.251 34.747C113.251 35.0389 112.949 35.2427 112.346 35.3551C111.799 35.4582 111.417 35.464 111.201 35.369C110.843 35.1037 110.583 34.8836 110.423 34.7041C110.112 34.4968 109.867 34.7423 109.688 35.4396C109.499 36.1289 109.542 36.6096 109.815 36.8829C110.437 37.3718 110.749 37.8339 110.749 38.2672C110.749 38.9842 110.174 39.8136 109.024 40.7553C107.817 41.7445 106.687 42.2391 105.631 42.2391C104.575 42.2391 103.84 41.8997 103.426 41.2209C103.218 40.8815 103.082 40.3452 103.016 39.6097C102.959 38.9877 102.893 38.6749 102.818 38.6749C102.62 38.6749 102.521 39.0618 102.521 39.8356C102.521 40.5711 102.658 41.2499 102.931 41.8719C103.619 43.4264 104.75 44.2048 106.325 44.2048C107.626 44.2048 108.847 43.4172 109.987 41.843C111.062 40.3638 111.575 38.9923 111.528 37.7285C112.49 37.644 113.164 37.2571 113.551 36.569C113.843 36.042 113.989 35.245 113.989 34.1805C113.986 33.2191 113.609 30.6835 112.855 26.5737ZM96.1143 19.392C88.8469 21.2106 84.2703 22.5774 82.3856 23.4925C81.4705 23.9361 80.7257 24.4921 80.1512 25.1605C79.689 25.698 79.4585 26.1034 79.4585 26.3768C79.4585 26.4335 79.4828 26.4613 79.5292 26.4613C79.5106 26.4521 79.7272 26.2968 80.1801 25.9945C80.8114 25.5706 81.6837 25.1466 82.7957 24.7215C85.8027 23.5713 89.733 22.4118 94.5876 21.2441C99.5453 20.0464 104.758 18.8452 110.225 17.6382C110.838 17.0069 111.366 16.4312 111.809 15.9135C108.086 16.5447 102.855 17.7043 96.1143 19.392ZM137.033 29.3456C136.561 29.1568 135.586 28.6761 134.106 27.9035C133.324 27.498 132.608 27.2953 131.957 27.2953C130.731 27.2953 129.882 27.8745 129.412 29.034C129.355 29.2321 129.303 29.4302 129.257 29.6271C129.864 29.5828 130.472 29.5593 131.081 29.5564C131.76 29.5564 132.311 29.5935 132.735 29.6699C133.244 29.8113 133.938 30.0557 134.813 30.4043C131.769 30.8098 129.767 31.4654 128.804 32.37C128.568 32.5878 128.228 33.0488 127.786 33.7554C127.362 34.4145 127.059 34.8153 126.881 34.9578C126.466 35.2867 125.835 35.4524 124.986 35.4524C124.6 35.4524 124.334 35.398 124.188 35.2891C124.042 35.1813 123.858 34.9323 123.637 34.5466C123.415 34.1608 123.229 33.9002 123.078 33.7693C123.003 33.7021 122.83 33.9998 122.562 34.6601C122.293 35.3203 122.258 35.7872 122.456 36.0594C123.031 36.8239 123.319 37.5583 123.319 38.2649C123.319 40.4136 120.223 42.6677 114.029 45.0238C108.958 46.9559 103.242 47.922 96.8788 47.922C90.5346 47.922 84.9409 46.6408 80.0956 44.0774C78.8469 43.4139 77.6677 42.6274 76.5754 41.7295C75.8354 41.1112 75.1275 40.4555 74.4544 39.7649C73.9355 39.2367 73.6436 38.9969 73.5776 39.0444C73.5683 39.0537 73.5637 39.0768 73.5637 39.1151C73.5637 39.5112 74.0873 40.4912 75.1332 42.0561C76.2927 43.7902 77.3434 44.9971 78.2863 45.6759C80.0585 46.9478 82.4482 48.0042 85.4541 48.8428C88.9233 49.8135 92.6231 50.2989 96.5533 50.2989C103.151 50.2989 109.523 49.0027 115.669 46.4115C121.004 44.1666 123.879 41.2221 124.293 37.5745C124.435 37.5837 124.567 37.5884 124.689 37.5884C125.906 37.5884 126.824 36.9432 127.446 35.6516C128.36 36.7636 129.511 37.3196 130.897 37.3196C131.283 37.3196 131.627 36.9698 131.929 36.2737C132.193 35.6702 132.324 35.1466 132.324 34.7041C132.324 34.0068 131.98 33.3674 131.292 32.7813C131.745 32.5843 132.536 32.3712 133.667 32.1453C134.929 31.8905 135.995 31.7631 136.863 31.7631C138.257 31.7631 139.813 32.0515 141.528 32.626C142.48 31.5048 142.932 30.943 142.886 30.943C140.275 30.3962 138.324 29.8634 137.033 29.3456ZM79.5581 18.8973C78.8886 18.7943 78.3847 18.7421 78.0453 18.7421C77.7152 18.7421 77.2866 19.0618 76.7596 19.7036C76.3159 20.2503 76.0947 20.6036 76.0947 20.7646C76.0947 20.8306 76.1225 20.8631 76.1792 20.8631C76.1978 20.8631 76.2951 20.7901 76.4688 20.6441C76.6426 20.4982 76.8013 20.4252 76.9426 20.4252C77.1881 20.4252 77.5982 20.4623 78.1727 20.5387C78.7948 20.6325 79.177 20.7183 79.3183 20.7936C78.9036 21.0762 78.2249 21.3681 77.2831 21.6693C76.5105 21.9148 76.1375 22.07 76.1665 22.1361C76.1734 22.2102 76.3437 22.2473 76.6738 22.2473C77.626 22.2473 78.3708 22.1442 78.9083 21.9368C79.2569 21.7573 79.6716 21.3808 80.1523 20.8051C80.6609 20.1924 80.9157 19.7209 80.9157 19.3908C80.9157 19.2031 80.4628 19.0387 79.5581 18.8973ZM86.5568 28.7375C86.509 28.9483 86.4665 29.1604 86.4294 29.3734C86.3448 29.7603 86.1421 29.9537 85.8213 29.9537C85.2282 29.9537 84.9305 29.4916 84.9305 28.5684C84.9305 28.4838 84.9351 28.3564 84.9444 28.1861C84.9537 28.017 84.9583 27.8896 84.9583 27.8039C84.9583 27.615 84.9305 27.5166 84.8738 27.5073C84.751 27.4888 84.6374 27.7714 84.5344 28.3552C84.453 28.7462 84.4057 29.1434 84.393 29.5425C84.393 29.9862 84.4961 30.3962 84.7046 30.7727C84.949 31.2163 85.2792 31.4376 85.6939 31.4376C86.0703 31.4376 86.368 31.2349 86.5846 30.8294C86.7537 30.4993 86.8395 30.1275 86.8395 29.7128C86.8395 28.9877 86.7456 28.6622 86.5568 28.7375ZM94.9548 37.7007C94.9363 37.6822 94.8587 37.8594 94.722 38.2313C94.5853 38.6031 94.517 38.8324 94.517 38.917C94.517 38.9448 94.5262 38.9738 94.5448 39.0016C95.5155 40.0672 96.0668 41.353 96.1989 42.8612C96.2359 43.2955 96.2834 43.5121 96.3402 43.5121C96.529 43.5121 96.6228 43.0164 96.6228 42.0271C96.624 40.4066 96.068 38.9645 94.9548 37.7007ZM105.263 30.6603C104.34 30.4252 103.213 30.0522 101.884 29.5437C100.895 29.1672 100.301 28.9784 100.102 28.9784C99.2917 28.9784 98.6465 29.341 98.1657 30.0661C97.8171 30.5943 97.6422 31.0553 97.6422 31.4515C97.6422 31.4793 97.6468 31.499 97.6561 31.5082C98.0708 31.4712 98.4854 31.4515 98.9001 31.4515C100.568 31.4515 102.133 31.7434 103.594 32.3283C101.737 33.3187 100.313 33.8133 99.3241 33.8133C98.7681 33.8133 98.3244 33.6767 97.9955 33.4033C97.7696 33.2156 97.6561 33.05 97.6561 32.9087C97.6561 32.9759 97.6792 32.8473 97.7267 32.5264C97.7545 32.348 97.7175 32.2438 97.6132 32.2148C97.5472 32.1963 97.3954 32.3191 97.1603 32.582C96.8394 32.9492 96.4155 33.2469 95.8873 33.4728C94.766 33.9535 93.0644 34.3821 90.7836 34.7585C88.1912 35.1837 85.5803 35.3956 82.9509 35.3956C78.1623 35.3956 74.8911 34.4296 73.1386 32.4975C72.6301 31.9415 72.271 31.6681 72.0636 31.6774C71.5447 31.697 71.0362 32.1534 70.5369 33.0488C70.0852 33.8597 69.8593 34.5477 69.8593 35.113C69.8593 35.4895 70.0759 35.8717 70.5091 36.2586C68.0303 38.0482 66.0414 39.444 64.5425 40.4425C64.1464 40.7066 63.9668 40.8804 64.005 40.9661C64.0143 40.9927 64.0525 41.0078 64.1186 41.0078C64.5332 41.0078 65.4692 40.7136 66.9252 40.124C68.3813 39.5344 69.2662 39.0942 69.5767 38.8012C70.1327 38.2927 70.6087 37.5525 71.0049 36.5818C71.3258 36.7799 71.8771 36.9918 72.659 37.2177C73.4409 37.4436 74.0073 37.5478 74.356 37.5293C74.5911 37.4552 74.7707 37.1378 74.8935 36.5829C76.2035 37.242 78.5087 37.5722 81.8076 37.5722C85.2294 37.5722 88.4102 37.2698 91.3512 36.6675C94.6316 35.998 96.5024 35.1269 96.9645 34.052C97.5391 35.1732 98.1669 35.7339 98.8457 35.7339C99.3264 35.7339 100.716 35.2624 103.017 34.3195C105.317 33.3766 106.967 32.9052 107.965 32.9052C108.738 32.9052 109.463 32.999 110.142 33.1878C110.217 33.2075 110.438 32.8809 110.807 32.2125C111.108 31.6565 111.26 31.3356 111.26 31.2511C111.26 31.2325 111.255 31.2233 111.246 31.2233C108.717 31.2256 106.724 31.0379 105.263 30.6603ZM87.7511 38.9031C87.0966 38.5927 86.7259 38.4502 86.6414 38.4803C86.3402 39.0073 86.0946 39.5124 85.9058 39.9931L84.6896 39.4556C84.1903 39.2379 83.8984 39.144 83.8139 39.173C83.7189 39.2008 83.566 39.5217 83.354 40.1344C83.142 40.7472 83.0505 41.1097 83.0783 41.2221C83.0969 41.2974 83.4177 41.4804 84.0397 41.7677C84.6618 42.055 85.0394 42.1986 85.1714 42.1986C85.285 42.1986 85.5305 41.6936 85.907 40.6858C87.0387 41.3171 87.7071 41.6044 87.9144 41.5476C87.999 41.5198 88.1739 41.1966 88.438 40.5792C88.7021 39.9618 88.8144 39.6016 88.7774 39.4973C88.7484 39.4116 88.4067 39.2147 87.7511 38.9031ZM70.7003 44.4886C69.338 45.1396 68.5203 45.5809 68.2469 45.8172C67.209 46.7034 66.8047 47.2165 67.0306 47.3578C67.0399 47.3683 67.0584 47.3729 67.0874 47.3729C67.2287 47.2687 67.7986 46.9629 68.7983 46.4532C69.9246 45.8962 71.056 45.3495 72.1922 44.813C72.4748 44.6439 72.7575 44.3936 73.0401 44.0647C73.3517 43.6975 73.3841 43.5133 73.1386 43.5133C72.8745 43.5133 72.0625 43.8376 70.7003 44.4886ZM171.73 17.9209C171.295 18.0622 170.919 18.1189 170.598 18.09C171.097 17.1853 171.573 16.7324 172.025 16.7324C172.355 16.7324 172.521 16.898 172.521 17.227C172.522 17.5108 172.257 17.7425 171.73 17.9209ZM172.436 37.9417C172.436 37.8189 172.53 37.6509 172.719 37.439C172.907 37.227 173.058 37.1216 173.172 37.1216C173.266 37.1123 173.44 37.3393 173.694 37.8004C174.014 38.3842 174.293 38.7849 174.53 39.0016C173.134 38.7108 172.436 38.3575 172.436 37.9417ZM150.691 17.7934C150.256 17.9348 149.88 17.9915 149.559 17.9626C150.04 17.0394 150.516 16.5772 150.987 16.5772C151.317 16.5772 151.482 16.7521 151.482 17.1008C151.483 17.3834 151.219 17.6151 150.691 17.7934ZM156.092 28.1432C155.942 28.1432 155.687 28.0819 155.328 27.9591C155.375 27.761 155.4 27.5861 155.4 27.4355C155.405 27.3043 155.381 27.1735 155.328 27.0532C155.46 27.0718 155.658 27.2224 155.922 27.5062C156.139 27.7425 156.246 27.9116 156.246 28.0147C156.246 28.0344 156.241 28.0538 156.232 28.0714C156.223 28.1201 156.177 28.1432 156.092 28.1432ZM154.707 27.8757C154.188 27.8757 153.93 27.7772 153.93 27.5791C153.93 27.1459 154.08 26.9281 154.382 26.9281C154.656 26.9281 154.793 27.0938 154.793 27.4228C154.788 27.5773 154.759 27.7301 154.707 27.8757ZM157.378 36.7115C156.693 37.0584 155.923 37.2053 155.159 37.1355C154.724 37.0984 154.508 37.037 154.508 36.9524C154.508 36.7741 155.478 36.1891 157.42 35.1987C157.393 35.4431 157.378 35.9482 157.378 36.7115ZM118.595 17.8224C118.153 17.973 117.775 18.0344 117.464 18.0066C117.964 17.1019 118.439 16.649 118.892 16.649C119.222 16.649 119.387 16.8146 119.387 17.1436C119.388 17.417 119.124 17.644 118.595 17.8224ZM130.996 35.2555C130.581 35.2555 130.095 35.0991 129.539 34.7898C129.324 34.6698 129.129 34.517 128.96 34.3369C128.734 34.1006 128.668 33.9118 128.762 33.7716C128.828 33.6859 129.003 33.6535 129.286 33.672C129.597 33.6998 129.86 33.7716 130.078 33.8852C130.823 34.2813 131.195 34.6948 131.195 35.1292C131.194 35.2126 131.128 35.2555 130.996 35.2555ZM71.2447 33.7716C71.2447 33.65 71.3397 33.4797 71.5273 33.2631C71.715 33.0465 71.8713 32.9284 71.9941 32.9087C72.0787 32.9087 72.249 33.145 72.5026 33.6153C72.8142 34.2002 73.0922 34.6045 73.3366 34.8315C71.942 34.5396 71.2447 34.1852 71.2447 33.7716Z" fill="#1E2022"/>
<path d="M85.1416 64.4946C84.7132 63.9933 84.4261 63.6127 84.2803 63.353C84.8818 62.2683 85.5016 61.5004 86.1396 61.0493C86.7822 60.5935 87.5319 60.3657 88.3887 60.3657C89.1999 60.3657 90.0156 60.5525 90.8359 60.9262C91.6562 61.2953 92.668 61.9744 93.8711 62.9633L93.2764 63.7221C92.1917 62.838 91.3099 62.2296 90.6309 61.8969C89.9518 61.5597 89.2568 61.3911 88.5459 61.3911C87.876 61.3911 87.2972 61.5574 86.8096 61.8901C86.3219 62.2182 85.8799 62.7537 85.4834 63.4965C85.6201 63.7608 85.8708 64.0935 86.2354 64.4946H87.8691V65.4926H86.3994V73.2036H85.3262V65.4926H83.8564V64.4946H85.1416ZM94.7249 73.2036H93.6517C93.196 72.3331 92.5329 71.5925 91.6624 70.9819C90.7965 70.3712 89.8304 69.977 88.764 69.7993L88.2171 68.4526C89.1605 67.8966 90.0856 67.4112 90.9925 66.9965C91.8994 66.5818 92.7858 66.2377 93.6517 65.9643V65.4926H87.5609V64.4946H96.1947V65.4926H94.7249V73.2036ZM93.6517 67.058C92.8861 67.3224 92.1592 67.6118 91.471 67.9262C90.7829 68.2407 90.1335 68.5802 89.5228 68.9448C90.416 69.1544 91.2386 69.5053 91.9906 69.9975C92.7471 70.4851 93.3167 71.048 93.6995 71.686C93.6676 71.3077 93.6517 70.9295 93.6517 70.5512V67.058ZM96.5563 66.2787L96.7067 65.4926H95.8864V64.4946H105.723V65.4926H104.254V73.2036H103.18V68.7465C102.975 68.4913 102.788 68.2953 102.62 68.1586C102.451 68.0174 102.287 67.9467 102.128 67.9467C101.977 67.9467 101.847 67.99 101.738 68.0766C101.633 68.1586 101.515 68.3022 101.382 68.5073C101.25 68.7078 101.068 69.0222 100.836 69.4506C100.389 70.2664 100.018 70.7996 99.7213 71.0502C99.4297 71.2963 99.0765 71.4194 98.6618 71.4194C98.2379 71.4194 97.8574 71.2827 97.5202 71.0092C97.1875 70.7312 96.8525 70.3233 96.5153 69.7856L97.3766 69.2729C97.6182 69.6967 97.821 69.9793 97.985 70.1205C98.1536 70.2618 98.3405 70.3325 98.5456 70.3325C98.7552 70.3325 98.9557 70.2413 99.1471 70.059C99.3431 69.8767 99.5573 69.5942 99.7897 69.2114C99.6758 68.35 99.5277 67.7576 99.3454 67.434C99.1631 67.1059 98.8691 66.8575 98.4635 66.6889C98.0625 66.5203 97.4267 66.3836 96.5563 66.2787ZM97.5338 65.4926C98.5547 65.643 99.2747 65.9096 99.694 66.2924C100.113 66.6752 100.362 67.295 100.439 68.1518C100.644 67.7416 100.854 67.4317 101.068 67.2221C101.282 67.0125 101.54 66.9077 101.84 66.9077C102.073 66.9077 102.294 66.9623 102.504 67.0717C102.713 67.1811 102.952 67.3725 103.221 67.6459C103.194 67.4409 103.18 67.1537 103.18 66.7846V65.4926H97.5338ZM106.7 64.4946C106.272 63.9933 105.985 63.6127 105.839 63.353C106.44 62.2683 107.06 61.5004 107.698 61.0493C108.341 60.5935 109.09 60.3657 109.947 60.3657C110.758 60.3657 111.574 60.5525 112.395 60.9262C113.215 61.2953 114.227 61.9744 115.43 62.9633L114.835 63.7221C113.75 62.838 112.868 62.2296 112.189 61.8969C111.51 61.5597 110.815 61.3911 110.104 61.3911C109.435 61.3911 108.856 61.5574 108.368 61.8901C107.881 62.2182 107.438 62.7537 107.042 63.4965C107.179 63.7608 107.429 64.0935 107.794 64.4946H109.428V65.4926H107.958V73.2036H106.885V65.4926H105.415V64.4946H106.7ZM112.599 67.9399C112.467 67.4203 112.189 67.0467 111.765 66.8188C111.346 66.5864 110.66 66.4109 109.707 66.2924L109.83 65.4926H109.119V64.4946H118.109V65.4926H116.639V73.2036H115.566V70.9409C115.046 70.2937 114.524 69.7993 114 69.4575C113.481 69.1157 112.995 68.9448 112.544 68.9448C112.171 68.9448 111.87 69.0405 111.642 69.2319C111.419 69.4187 111.307 69.6785 111.307 70.0112C111.307 70.2892 111.405 70.5307 111.601 70.7358C111.797 70.9363 112.102 71.1163 112.517 71.2758L111.977 72.2739C111.389 72.0278 110.938 71.7042 110.623 71.3032C110.313 70.9021 110.159 70.4578 110.159 69.9702C110.159 69.5691 110.254 69.2136 110.446 68.9037C110.642 68.5939 110.913 68.3546 111.259 68.186C111.61 68.0174 111.981 67.933 112.373 67.933H112.49C112.526 67.9376 112.562 67.9399 112.599 67.9399ZM113.617 68.0082V68.0834C113.617 68.1062 113.615 68.1313 113.611 68.1586C114.267 68.4047 114.928 68.8878 115.593 69.6078C115.575 69.3572 115.566 69.0177 115.566 68.5893V65.4926H110.753C111.678 65.6248 112.387 65.9142 112.879 66.3608C113.371 66.8074 113.617 67.3565 113.617 68.0082ZM125.785 72.0004C125.644 71.8728 125.505 71.7726 125.368 71.6996C125.236 71.6267 125.094 71.5903 124.944 71.5903C124.725 71.5903 124.557 71.6564 124.438 71.7885C124.32 71.9161 124.26 72.1121 124.26 72.3764C124.26 72.4995 124.272 72.6202 124.295 72.7387L123.44 72.7797C123.372 72.3194 123.217 71.9594 122.975 71.6996C122.734 71.4399 122.435 71.31 122.08 71.31C121.811 71.31 121.597 71.3761 121.437 71.5082C121.278 71.6404 121.198 71.8136 121.198 72.0278C121.198 72.5154 121.59 72.8891 122.374 73.1489L121.97 74.0991C121.351 73.8712 120.886 73.5818 120.576 73.2309C120.266 72.88 120.111 72.4653 120.111 71.9868C120.111 71.5219 120.289 71.1345 120.644 70.8246C121 70.5148 121.453 70.3598 122.005 70.3598C122.378 70.3598 122.718 70.4373 123.023 70.5922C123.333 70.7472 123.577 70.9682 123.755 71.2553C123.955 70.8497 124.297 70.6469 124.78 70.6469C125.099 70.6469 125.434 70.7608 125.785 70.9887V68.1655C125.297 67.6687 124.825 67.4203 124.37 67.4203C124.087 67.4203 123.868 67.4955 123.714 67.6459C123.559 67.7918 123.481 68.0037 123.481 68.2817C123.481 68.3819 123.492 68.4936 123.515 68.6166L122.606 68.6645C122.515 68.2224 122.312 67.8715 121.998 67.6118C121.683 67.352 121.325 67.2221 120.924 67.2221C120.555 67.2221 120.264 67.3064 120.049 67.475C119.835 67.6437 119.728 67.8715 119.728 68.1586C119.728 68.4412 119.815 68.6827 119.988 68.8832C120.161 69.0838 120.45 69.2638 120.856 69.4233L120.425 70.4418C119.824 70.214 119.366 69.8995 119.051 69.4985C118.742 69.0974 118.587 68.628 118.587 68.0903C118.587 67.5571 118.803 67.1105 119.236 66.7504C119.669 66.3904 120.202 66.2104 120.836 66.2104C121.278 66.2104 121.663 66.2833 121.991 66.4291C122.319 66.575 122.633 66.8256 122.934 67.1811C123.053 66.9487 123.23 66.7664 123.467 66.6342C123.709 66.4975 123.982 66.4291 124.288 66.4291C124.543 66.4291 124.789 66.4747 125.026 66.5659C125.263 66.6524 125.52 66.8006 125.798 67.0102C125.789 66.8871 125.785 66.6616 125.785 66.3334V65.4926H117.8V64.4946H128.328V65.4926H126.858V73.812H125.785V72.0004ZM130.556 73.2036H129.482V66.6411C129.35 66.2719 129.168 65.9894 128.936 65.7934C128.708 65.5929 128.441 65.4926 128.136 65.4926H128.013V64.4946H128.238C128.484 64.4946 128.724 64.5743 128.956 64.7338C129.193 64.8888 129.384 65.103 129.53 65.3764C129.498 65.1577 129.482 64.9047 129.482 64.6176V63.5717H130.228L130.542 64.4946H132.025V65.4926H130.556V73.2036ZM133.002 64.4946C132.574 63.9933 132.287 63.6127 132.141 63.353C132.742 62.2683 133.362 61.5004 134 61.0493C134.643 60.5935 135.393 60.3657 136.249 60.3657C137.061 60.3657 137.876 60.5525 138.697 60.9262C139.517 61.2953 140.529 61.9744 141.732 62.9633L141.137 63.7221C140.052 62.838 139.171 62.2296 138.492 61.8969C137.812 61.5597 137.117 61.3911 136.407 61.3911C135.737 61.3911 135.158 61.5574 134.67 61.8901C134.183 62.2182 133.741 62.7537 133.344 63.4965C133.481 63.7608 133.731 64.0935 134.096 64.4946H135.73V65.4926H134.26V73.2036H133.187V65.4926H131.717V64.4946H133.002ZM137.903 66.3334C137.712 65.937 137.365 65.6567 136.864 65.4926H135.422V64.4946H143.132V65.4926H138.525C138.753 65.6886 138.917 65.9256 139.017 66.2036C139.623 66.2127 140.157 66.322 140.617 66.5317C141.082 66.7413 141.437 67.0375 141.683 67.4203C141.934 67.8032 142.059 68.2156 142.059 68.6577C142.059 69.364 141.829 69.936 141.369 70.3735C140.908 70.8064 140.248 71.0799 139.386 71.1938C140.006 71.4217 140.628 71.7156 141.253 72.0756C141.877 72.4311 142.501 72.8549 143.126 73.3471L142.476 74.0922C141.259 73.1671 140.216 72.4995 139.345 72.0893C138.475 71.6746 137.431 71.3282 136.214 71.0502L136.413 70.0795C136.732 70.1798 137.044 70.2504 137.349 70.2914C137.655 70.3279 138.024 70.3461 138.457 70.3461C139.286 70.3461 139.91 70.2049 140.33 69.9223C140.749 69.6398 140.959 69.2387 140.959 68.7192C140.959 68.2498 140.783 67.8784 140.432 67.6049C140.081 67.3269 139.612 67.1879 139.024 67.1879C138.555 67.1879 138.204 67.2563 137.971 67.393C137.743 67.5252 137.63 67.7348 137.63 68.0219C137.63 68.1769 137.659 68.3273 137.718 68.4731L136.7 68.6782C136.595 68.3728 136.543 68.088 136.543 67.8237C136.543 67.4682 136.657 67.1629 136.884 66.9077C137.112 66.6479 137.452 66.4565 137.903 66.3334ZM149.981 73.2036H148.908C148.452 72.3331 147.789 71.5925 146.919 70.9819C146.053 70.3712 145.087 69.977 144.02 69.7993L143.474 68.4526C144.417 67.8966 145.342 67.4112 146.249 66.9965C147.156 66.5818 148.042 66.2377 148.908 65.9643V65.4926H142.817V64.4946H151.451V65.4926H149.981V73.2036ZM148.908 67.058C148.143 67.3224 147.416 67.6118 146.727 67.9262C146.039 68.2407 145.39 68.5802 144.779 68.9448C145.672 69.1544 146.495 69.5053 147.247 69.9975C148.004 70.4851 148.573 71.048 148.956 71.686C148.924 71.3077 148.908 70.9295 148.908 70.5512V67.058ZM145.572 73.2856C145.344 73.2856 145.146 73.2081 144.977 73.0532C144.809 72.8982 144.725 72.7023 144.725 72.4653C144.725 72.2328 144.804 72.0369 144.964 71.8774C145.128 71.7179 145.331 71.6381 145.572 71.6381C145.8 71.6381 145.994 71.7179 146.153 71.8774C146.313 72.0369 146.393 72.2328 146.393 72.4653C146.393 72.7023 146.313 72.8982 146.153 73.0532C145.994 73.2081 145.8 73.2856 145.572 73.2856ZM162.216 73.2036H161.143C160.687 72.3331 160.024 71.5925 159.154 70.9819C158.288 70.3712 157.322 69.977 156.255 69.7993L155.709 68.4526C156.652 67.8966 157.577 67.4112 158.484 66.9965C159.391 66.5818 160.277 66.2377 161.143 65.9643V65.4926H155.052V64.4946H163.686V65.4926H162.216V73.2036ZM161.143 67.058C160.378 67.3224 159.651 67.6118 158.963 67.9262C158.274 68.2407 157.625 68.5802 157.014 68.9448C157.907 69.1544 158.73 69.5053 159.482 69.9975C160.239 70.4851 160.808 71.048 161.191 71.686C161.159 71.3077 161.143 70.9295 161.143 70.5512V67.058ZM157.807 73.2856C157.579 73.2856 157.381 73.2081 157.213 73.0532C157.044 72.8982 156.96 72.7023 156.96 72.4653C156.96 72.2328 157.039 72.0369 157.199 71.8774C157.363 71.7179 157.566 71.6381 157.807 71.6381C158.035 71.6381 158.229 71.7179 158.388 71.8774C158.548 72.0369 158.628 72.2328 158.628 72.4653C158.628 72.7023 158.548 72.8982 158.388 73.0532C158.229 73.2081 158.035 73.2856 157.807 73.2856ZM165.921 73.2036H164.848V66.6411C164.715 66.2719 164.533 65.9894 164.301 65.7934C164.073 65.5929 163.806 65.4926 163.501 65.4926H163.378V64.4946H163.603C163.85 64.4946 164.089 64.5743 164.321 64.7338C164.558 64.8888 164.75 65.103 164.895 65.3764C164.864 65.1577 164.848 64.9047 164.848 64.6176V63.5717H165.593L165.907 64.4946H167.391V65.4926H165.921V73.2036ZM169.564 66.3334C169.372 65.937 169.026 65.6567 168.525 65.4926H167.082V64.4946H174.793V65.4926H170.186C170.414 65.6886 170.578 65.9256 170.678 66.2036C171.284 66.2127 171.817 66.322 172.278 66.5317C172.742 66.7413 173.098 67.0375 173.344 67.4203C173.595 67.8032 173.72 68.2156 173.72 68.6577C173.72 69.364 173.49 69.936 173.03 70.3735C172.569 70.8064 171.908 71.0799 171.047 71.1938C171.667 71.4217 172.289 71.7156 172.913 72.0756C173.538 72.4311 174.162 72.8549 174.786 73.3471L174.137 74.0922C172.92 73.1671 171.877 72.4995 171.006 72.0893C170.136 71.6746 169.092 71.3282 167.875 71.0502L168.074 70.0795C168.393 70.1798 168.705 70.2504 169.01 70.2914C169.315 70.3279 169.685 70.3461 170.117 70.3461C170.947 70.3461 171.571 70.2049 171.99 69.9223C172.41 69.6398 172.619 69.2387 172.619 68.7192C172.619 68.2498 172.444 67.8784 172.093 67.6049C171.742 67.3269 171.273 67.1879 170.685 67.1879C170.215 67.1879 169.865 67.2563 169.632 67.393C169.404 67.5252 169.29 67.7348 169.29 68.0219C169.29 68.1769 169.32 68.3273 169.379 68.4731L168.361 68.6782C168.256 68.3728 168.203 68.088 168.203 67.8237C168.203 67.4682 168.317 67.1629 168.545 66.9077C168.773 66.6479 169.113 66.4565 169.564 66.3334ZM177.958 67.9399C177.825 67.4203 177.547 67.0467 177.124 66.8188C176.704 66.5864 176.018 66.4109 175.066 66.2924L175.189 65.4926H174.478V64.4946H183.467V65.4926H181.998V73.2036H180.924V70.9409C180.405 70.2937 179.883 69.7993 179.359 69.4575C178.839 69.1157 178.354 68.9448 177.903 68.9448C177.529 68.9448 177.228 69.0405 177.001 69.2319C176.777 69.4187 176.666 69.6785 176.666 70.0112C176.666 70.2892 176.764 70.5307 176.96 70.7358C177.156 70.9363 177.461 71.1163 177.876 71.2758L177.336 72.2739C176.748 72.0278 176.296 71.7042 175.982 71.3032C175.672 70.9021 175.517 70.4578 175.517 69.9702C175.517 69.5691 175.613 69.2136 175.804 68.9037C176 68.5939 176.271 68.3546 176.618 68.186C176.969 68.0174 177.34 67.933 177.732 67.933H177.848C177.885 67.9376 177.921 67.9399 177.958 67.9399ZM178.976 68.0082V68.0834C178.976 68.1062 178.974 68.1313 178.969 68.1586C179.626 68.4047 180.286 68.8878 180.952 69.6078C180.934 69.3572 180.924 69.0177 180.924 68.5893V65.4926H176.112C177.037 65.6248 177.746 65.9142 178.238 66.3608C178.73 66.8074 178.976 67.3565 178.976 68.0082ZM185.702 73.2036H184.629V66.6411C184.497 66.2719 184.314 65.9894 184.082 65.7934C183.854 65.5929 183.587 65.4926 183.282 65.4926H183.159V64.4946H183.385C183.631 64.4946 183.87 64.5743 184.102 64.7338C184.339 64.8888 184.531 65.103 184.677 65.3764C184.645 65.1577 184.629 64.9047 184.629 64.6176V63.5717H185.374L185.688 64.4946H187.172V65.4926H185.702V73.2036ZM188.149 64.4946C187.72 63.9933 187.433 63.6127 187.287 63.353C187.889 62.2683 188.509 61.5004 189.147 61.0493C189.789 60.5935 190.539 60.3657 191.396 60.3657C192.207 60.3657 193.023 60.5525 193.843 60.9262C194.663 61.2953 195.675 61.9744 196.878 62.9633L196.283 63.7221C195.199 62.838 194.317 62.2296 193.638 61.8969C192.959 61.5597 192.264 61.3911 191.553 61.3911C190.883 61.3911 190.304 61.5574 189.817 61.8901C189.329 62.2182 188.887 62.7537 188.49 63.4965C188.627 63.7608 188.878 64.0935 189.242 64.4946H190.876V65.4926H189.406V73.2036H188.333V65.4926H186.864V64.4946H188.149ZM196.795 68.9653C196.773 68.7146 196.761 68.3956 196.761 68.0082V65.4926H190.568V64.4946H199.304V65.4926H197.835V73.2036H196.761V70.2914C196.242 69.6443 195.72 69.1498 195.196 68.808C194.676 68.4662 194.191 68.2953 193.74 68.2953C193.366 68.2953 193.065 68.3911 192.837 68.5825C192.614 68.7693 192.503 69.0291 192.503 69.3618C192.503 69.6398 192.6 69.8813 192.796 70.0864C192.992 70.2869 193.298 70.4669 193.712 70.6264L193.172 71.6245C192.58 71.3784 192.129 71.0571 191.819 70.6606C191.509 70.2595 191.354 69.8129 191.354 69.3207C191.354 68.9197 191.45 68.5642 191.641 68.2543C191.837 67.9444 192.108 67.7052 192.455 67.5366C192.806 67.3679 193.177 67.2836 193.569 67.2836C194.134 67.2836 194.674 67.4135 195.189 67.6733C195.709 67.933 196.244 68.3637 196.795 68.9653ZM206.153 73.2036H205.08C204.624 72.3331 203.961 71.5925 203.091 70.9819C202.225 70.3712 201.259 69.977 200.192 69.7993L199.645 68.4526C200.589 67.8966 201.514 67.4112 202.421 66.9965C203.328 66.5818 204.214 66.2377 205.08 65.9643V65.4926H198.989V64.4946H207.623V65.4926H206.153V73.2036ZM205.08 67.058C204.314 67.3224 203.587 67.6118 202.899 67.9262C202.211 68.2407 201.562 68.5802 200.951 68.9448C201.844 69.1544 202.667 69.5053 203.419 69.9975C204.175 70.4851 204.745 71.048 205.128 71.686C205.096 71.3077 205.08 70.9295 205.08 70.5512V67.058ZM201.744 73.2856C201.516 73.2856 201.318 73.2081 201.149 73.0532C200.981 72.8982 200.896 72.7023 200.896 72.4653C200.896 72.2328 200.976 72.0369 201.136 71.8774C201.3 71.7179 201.503 71.6381 201.744 71.6381C201.972 71.6381 202.166 71.7179 202.325 71.8774C202.485 72.0369 202.564 72.2328 202.564 72.4653C202.564 72.7023 202.485 72.8982 202.325 73.0532C202.166 73.2081 201.972 73.2856 201.744 73.2856ZM218.388 73.2036H217.315C216.859 72.3331 216.196 71.5925 215.326 70.9819C214.46 70.3712 213.494 69.977 212.427 69.7993L211.88 68.4526C212.824 67.8966 213.749 67.4112 214.656 66.9965C215.563 66.5818 216.449 66.2377 217.315 65.9643V65.4926H211.224V64.4946H219.858V65.4926H218.388V73.2036ZM217.315 67.058C216.549 67.3224 215.822 67.6118 215.134 67.9262C214.446 68.2407 213.797 68.5802 213.186 68.9448C214.079 69.1544 214.902 69.5053 215.654 69.9975C216.41 70.4851 216.98 71.048 217.363 71.686C217.331 71.3077 217.315 70.9295 217.315 70.5512V67.058ZM213.979 73.2856C213.751 73.2856 213.553 73.2081 213.384 73.0532C213.216 72.8982 213.131 72.7023 213.131 72.4653C213.131 72.2328 213.211 72.0369 213.371 71.8774C213.535 71.7179 213.738 71.6381 213.979 71.6381C214.207 71.6381 214.401 71.7179 214.56 71.8774C214.72 72.0369 214.799 72.2328 214.799 72.4653C214.799 72.7023 214.72 72.8982 214.56 73.0532C214.401 73.2081 214.207 73.2856 213.979 73.2856ZM222.093 73.2036H221.019V66.6411C220.887 66.2719 220.705 65.9894 220.473 65.7934C220.245 65.5929 219.978 65.4926 219.673 65.4926H219.55V64.4946H219.775C220.021 64.4946 220.261 64.5743 220.493 64.7338C220.73 64.8888 220.921 65.103 221.067 65.3764C221.035 65.1577 221.019 64.9047 221.019 64.6176V63.5717H221.765L222.079 64.4946H223.562V65.4926H222.093V73.2036ZM224.539 64.4946C224.111 63.9933 223.824 63.6127 223.678 63.353C224.28 62.2683 224.899 61.5004 225.537 61.0493C226.18 60.5935 226.93 60.3657 227.786 60.3657C228.598 60.3657 229.413 60.5525 230.234 60.9262C231.054 61.2953 232.066 61.9744 233.269 62.9633L232.674 63.7221C231.589 62.838 230.708 62.2296 230.029 61.8969C229.349 61.5597 228.655 61.3911 227.944 61.3911C227.274 61.3911 226.695 61.5574 226.207 61.8901C225.72 62.2182 225.278 62.7537 224.881 63.4965C225.018 63.7608 225.268 64.0935 225.633 64.4946H227.267V65.4926H225.797V73.2036H224.724V65.4926H223.254V64.4946H224.539ZM229.44 66.3334C229.249 65.937 228.902 65.6567 228.401 65.4926H226.959V64.4946H234.669V65.4926H230.062C230.29 65.6886 230.454 65.9256 230.554 66.2036C231.16 66.2127 231.694 66.322 232.154 66.5317C232.619 66.7413 232.974 67.0375 233.22 67.4203C233.471 67.8032 233.596 68.2156 233.596 68.6577C233.596 69.364 233.366 69.936 232.906 70.3735C232.446 70.8064 231.785 71.0799 230.923 71.1938C231.543 71.4217 232.165 71.7156 232.79 72.0756C233.414 72.4311 234.038 72.8549 234.663 73.3471L234.013 74.0922C232.796 73.1671 231.753 72.4995 230.882 72.0893C230.012 71.6746 228.968 71.3282 227.752 71.0502L227.95 70.0795C228.269 70.1798 228.581 70.2504 228.886 70.2914C229.192 70.3279 229.561 70.3461 229.994 70.3461C230.823 70.3461 231.447 70.2049 231.867 69.9223C232.286 69.6398 232.496 69.2387 232.496 68.7192C232.496 68.2498 232.32 67.8784 231.969 67.6049C231.618 67.3269 231.149 67.1879 230.561 67.1879C230.092 67.1879 229.741 67.2563 229.508 67.393C229.28 67.5252 229.167 67.7348 229.167 68.0219C229.167 68.1769 229.196 68.3273 229.255 68.4731L228.237 68.6782C228.132 68.3728 228.08 68.088 228.08 67.8237C228.08 67.4682 228.194 67.1629 228.421 66.9077C228.649 66.6479 228.989 66.4565 229.44 66.3334ZM237.834 67.9399C237.702 67.4203 237.424 67.0467 237 66.8188C236.581 66.5864 235.895 66.4109 234.942 66.2924L235.065 65.4926H234.354V64.4946H243.344V65.4926H241.874V73.2036H240.801V70.9409C240.281 70.2937 239.759 69.7993 239.235 69.4575C238.716 69.1157 238.23 68.9448 237.779 68.9448C237.405 68.9448 237.105 69.0405 236.877 69.2319C236.654 69.4187 236.542 69.6785 236.542 70.0112C236.542 70.2892 236.64 70.5307 236.836 70.7358C237.032 70.9363 237.337 71.1163 237.752 71.2758L237.212 72.2739C236.624 72.0278 236.173 71.7042 235.858 71.3032C235.548 70.9021 235.393 70.4578 235.393 69.9702C235.393 69.5691 235.489 69.2136 235.681 68.9037C235.877 68.5939 236.148 68.3546 236.494 68.186C236.845 68.0174 237.216 67.933 237.608 67.933H237.724C237.761 67.9376 237.797 67.9399 237.834 67.9399ZM238.852 68.0082V68.0834C238.852 68.1062 238.85 68.1313 238.846 68.1586C239.502 68.4047 240.163 68.8878 240.828 69.6078C240.81 69.3572 240.801 69.0177 240.801 68.5893V65.4926H235.988C236.913 65.6248 237.622 65.9142 238.114 66.3608C238.606 66.8074 238.852 67.3565 238.852 68.0082Z" fill="#1E2022"/>
</svg>
